<?xml version="1.0" encoding="UTF-8"?> <svg xmlns="http://www.w3.org/2000/svg" width="230" height="58" viewBox="0 0 230 58" fill="none"><g clip-path="url(#clip0_3042_57780)"><rect x="192.988" y="1.29199" width="33.0897" height="16.3945" fill="white"></rect><path d="M217.845 1.22168H226.078V17.6875H217.845V1.22168ZM203.596 9.45457L203.121 9.61289C203.121 9.61289 205.971 11.9878 205.971 12.1461C206.129 12.3044 206.288 12.3044 206.129 12.7794C205.971 13.2544 205.813 13.7293 205.813 13.7293C205.813 13.7293 208.346 13.2544 208.662 13.096C208.979 13.096 209.137 13.096 209.137 13.4127C209.137 13.7293 208.979 16.4209 208.979 16.4209H209.771C209.771 16.4209 209.612 13.571 209.612 13.4127C209.612 13.096 209.771 13.096 210.087 13.096C210.404 13.096 212.937 13.7293 212.937 13.7293C212.937 13.7293 212.779 13.096 212.621 12.7794C212.462 12.3044 212.621 12.3044 212.779 12.1461C212.937 11.9878 215.629 9.61289 215.629 9.61289L215.154 9.45457C214.837 9.29624 214.995 9.13792 214.995 8.97959C214.995 8.82127 215.47 7.23802 215.47 7.23802C215.47 7.23802 214.204 7.55467 214.045 7.55467C213.887 7.55467 213.729 7.55467 213.729 7.39634C213.729 7.23802 213.412 6.60472 213.412 6.60472C213.412 6.60472 211.987 8.18797 211.829 8.34629C211.512 8.66294 211.196 8.34629 211.354 8.02964C211.354 7.71299 212.146 4.38817 212.146 4.38817C212.146 4.38817 211.354 4.86315 211.037 5.02147C210.721 5.1798 210.562 5.1798 210.562 4.86315C210.404 4.5465 209.454 2.80493 209.454 2.6466C209.454 2.6466 208.504 4.5465 208.346 4.86315C208.187 5.1798 208.029 5.1798 207.871 5.02147C207.554 4.86315 206.763 4.38817 206.763 4.38817C206.763 4.38817 207.554 7.71299 207.554 8.02964C207.554 8.34629 207.396 8.50462 207.079 8.34629L205.496 6.60472C205.496 6.60472 205.338 7.0797 205.179 7.23802C205.179 7.39634 205.021 7.55467 204.863 7.39634C204.546 7.39634 203.279 7.0797 203.279 7.0797C203.279 7.0797 203.754 8.66294 203.913 8.82127C203.913 8.97959 203.913 9.29624 203.596 9.45457ZM192.988 1.22168H201.221V17.6875H192.988V1.22168Z" fill="#FF0000"></path><path d="M227.817 50.6071C227.184 52.032 225.917 52.507 225.126 52.507C224.176 52.507 221.326 52.3486 221.326 44.9074C221.326 44.9074 221.326 29.8665 221.326 28.9166C221.326 24.0085 217.526 20.0504 207.71 20.0504C197.102 20.0504 196.944 25.2751 196.944 26.5417C196.785 27.9666 197.577 29.5499 200.269 29.5499C202.643 29.5499 203.277 26.8584 203.593 25.9084C203.91 24.8001 204.068 21.6337 208.343 21.6337C211.985 21.6337 214.201 24.8001 214.359 29.3916C214.359 30.1832 214.359 30.6582 214.359 31.1331C214.359 31.4498 214.359 31.6081 214.359 31.9248V32.0831C214.043 33.6663 213.251 34.458 211.826 35.0913C209.926 36.0412 204.385 36.8328 203.752 36.9911C201.535 37.4661 195.361 39.0494 195.519 45.5407C195.677 51.8737 202.01 54.0902 206.443 53.9319C210.718 53.7736 213.251 52.032 214.359 51.0821C214.993 50.6071 214.993 50.6071 215.468 51.2404C216.101 51.8737 218.159 53.9319 223.067 53.9319C228.134 53.9319 228.767 51.557 229.084 50.7654C229.242 50.2904 228.134 49.8155 227.817 50.6071ZM208.026 52.3487C203.593 52.3487 202.485 48.7072 202.485 46.8073C202.485 45.0657 203.435 41.4242 207.868 38.891C207.868 38.891 209.926 37.6245 213.884 36.0412C214.043 36.0412 214.201 36.0412 214.201 36.0412C214.201 36.0412 214.359 36.1995 214.359 36.3578V36.5162V36.6745V43.3241C214.359 48.5489 211.826 52.3487 208.026 52.3487ZM193.461 52.1903C192.827 52.032 188.869 52.507 188.869 40.4743C188.869 28.4416 188.869 2.63468 188.869 2.63468C188.869 2.15971 188.869 0.893112 187.444 0.893112C186.019 0.893112 176.52 1.36809 175.887 1.52641C175.253 1.52641 174.778 2.31803 175.887 2.31803C176.995 2.47636 182.061 2.79301 182.061 11.1842C182.061 15.3007 182.061 19.4171 182.061 22.4253C182.061 22.5836 182.061 22.7419 182.061 22.7419C182.061 23.0586 182.061 23.2169 181.903 23.3752C181.903 23.3752 181.903 23.3752 181.903 23.5335C181.745 23.6919 181.586 23.5335 181.111 23.2169C180.32 22.5836 176.678 20.3671 172.087 20.3671C164.645 20.3671 155.463 25.7501 155.463 36.8328C155.463 48.7072 163.854 54.4069 172.562 54.4069C176.837 54.4069 179.845 52.507 180.953 51.8737C182.22 51.0821 182.061 51.2404 182.22 52.3487C182.378 53.1403 182.22 54.7235 184.436 54.5652C186.811 54.2486 192.511 53.6152 193.619 53.4569C194.727 52.982 194.411 52.3487 193.461 52.1903ZM173.828 52.6653C166.862 52.6653 163.221 44.4324 163.221 36.5162C163.221 27.8083 168.129 21.9503 173.353 22.267C180.161 22.7419 181.903 28.125 182.061 37.7828C182.061 38.4161 182.061 39.0494 182.061 39.841C181.903 49.3405 177.945 52.6653 173.828 52.6653ZM155.304 50.6071C154.671 52.032 153.404 52.507 152.613 52.507C151.663 52.507 148.813 52.3486 148.813 44.9074C148.813 44.9074 148.813 29.8665 148.813 28.9166C148.813 24.0085 145.013 20.0504 135.197 20.0504C124.589 20.0504 124.431 25.2751 124.431 26.5417C124.273 27.9666 125.064 29.5499 127.756 29.5499C130.131 29.5499 130.764 26.8584 131.081 25.9084C131.397 24.8001 131.556 21.6337 135.83 21.6337C139.472 21.6337 141.847 24.8001 141.847 29.5499V29.7082C141.847 29.8665 141.847 30.0249 141.847 30.0249V30.4998C141.847 30.6582 141.847 30.9748 141.847 31.1331C141.688 33.508 141.055 34.2996 139.155 35.2496C137.255 36.1995 131.714 36.9911 131.081 37.1495C128.864 37.6244 122.689 39.2077 122.848 45.699C123.006 52.032 129.339 54.2485 133.772 54.0902C138.047 53.9319 140.58 52.1903 141.688 51.2404C142.322 50.7654 142.322 50.7654 142.797 51.3987C143.43 52.032 145.488 54.0902 150.396 54.0902C155.463 54.0902 156.096 51.7153 156.413 50.9237C156.729 50.2904 155.779 49.8155 155.304 50.6071ZM135.672 52.3487C131.239 52.3487 130.131 48.7072 130.131 46.8073C130.131 45.0657 131.081 41.4242 135.514 38.891C135.514 38.891 137.572 37.6245 141.53 36.0412C141.688 36.0412 141.847 36.0412 141.847 36.0412V36.1995C141.847 36.3578 141.847 36.5162 141.847 36.8328V36.6745C141.847 36.6745 141.847 36.6745 141.847 36.8328V43.4825C141.847 48.5489 139.314 52.3487 135.672 52.3487ZM120.473 52.1903C119.206 51.8737 116.99 50.4487 116.99 43.4825V30.8165C116.99 27.8083 117.306 20.0504 105.432 20.0504C99.2574 20.0504 95.7742 23.2169 95.4576 23.3752C94.9826 23.8502 94.666 24.0085 94.5076 23.2169C94.3493 22.5836 94.0327 21.6336 93.8743 21.0004C93.716 20.5254 93.3994 20.0504 92.2911 20.2087C91.1828 20.3671 84.2165 21.4753 82.9499 21.792C81.8417 22.1086 82.1583 22.5836 82.9499 22.7419C83.7416 22.9002 87.5414 23.2169 87.5414 29.7082C87.5414 36.1995 87.5414 43.3241 87.5414 43.3241C87.5414 51.2404 85.9581 51.8737 84.5332 52.3487C82.6333 52.8236 83.5832 53.4569 84.3749 53.4569C84.3749 53.4569 98.4658 53.4569 98.7824 53.4569C99.7324 53.4569 100.207 52.507 98.3074 52.1903C96.4075 51.8737 94.666 50.7654 94.666 44.5907C94.666 43.9574 94.666 37.1495 94.666 35.8829C94.666 32.5581 93.8743 22.4253 103.057 22.267C109.548 22.1086 110.182 27.4917 110.182 30.9748V44.4324C110.182 49.9738 108.599 51.7154 106.699 52.032C104.957 52.3487 105.274 53.1403 106.224 53.1403C106.54 53.1403 120.948 53.1403 120.948 53.1403C121.739 53.4569 122.531 52.6653 120.473 52.1903ZM82 50.6071C81.3667 52.032 80.1001 52.507 79.3085 52.507C78.3585 52.507 75.5087 52.3486 75.5087 44.9074C75.5087 44.9074 75.5087 29.8665 75.5087 28.9166C75.5087 24.0085 71.7089 20.0504 61.8927 20.0504C51.285 20.0504 51.1267 25.2751 51.1267 26.5417C50.9683 27.9666 51.76 29.5499 54.4515 29.5499C56.8264 29.5499 57.4597 26.8584 57.7763 25.9084C58.093 24.8001 58.2513 21.6337 62.526 21.6337C66.1675 21.6337 68.3841 24.8001 68.5424 29.3916C68.5424 30.1832 68.5424 30.6582 68.5424 31.1331C68.5424 31.4498 68.5424 31.7664 68.3841 31.9248V32.0831C68.0674 33.6663 67.2758 34.458 65.8509 35.0913C63.951 36.0412 58.4096 36.8328 57.7763 36.9911C55.5598 37.4661 49.3851 39.0494 49.5434 45.5407C49.7017 51.8737 56.0347 54.0902 60.4678 53.9319C64.7426 53.7736 67.2758 52.032 68.3841 51.0821C69.0174 50.6071 69.0174 50.6071 69.4923 51.2404C70.1256 51.8737 72.1839 53.9319 77.0919 53.9319C82.1583 53.9319 82.7916 51.557 83.1083 50.7654C83.4249 50.2904 82.3166 49.8155 82 50.6071ZM62.2094 52.3487C57.7763 52.3487 56.668 48.7072 56.668 46.8073C56.668 44.9074 57.618 41.4242 62.0511 38.891C62.0511 38.891 64.1093 37.6245 68.0674 36.0412C68.2257 36.0412 68.3841 36.0412 68.3841 36.0412C68.3841 36.0412 68.5424 36.1995 68.5424 36.3578C68.5424 36.3578 68.5424 36.5162 68.5424 36.6745V36.8328V43.4825C68.5424 48.5489 66.0092 52.3487 62.2094 52.3487ZM47.0102 38.5744C45.427 43.6408 42.4188 51.8737 31.4944 52.1903C20.095 52.3487 13.2871 44.5907 12.9704 30.1832C12.4954 14.8257 19.1451 3.10966 29.4362 2.79301C40.9939 2.63468 45.1103 16.4089 45.2687 18.4672C45.427 20.0504 47.4852 19.8921 47.4852 18.3088C47.4852 17.5172 46.5353 3.90128 46.2186 2.31803C45.902 0.734787 44.6354 1.36809 44.3187 2.00139C44.1604 2.47636 44.477 1.52641 43.8437 2.95133C43.2104 4.37626 41.4689 3.58463 40.8356 3.42631C38.9357 2.63468 35.2942 0.734787 29.4362 0.893112C15.9786 1.20976 2.20433 11.1842 2.52098 28.5999C2.83763 45.5407 16.4536 55.0402 29.1195 54.8818C40.6772 54.7235 47.1686 47.4406 49.0684 39.0494C49.7017 36.9911 47.6435 36.5162 47.0102 38.5744Z" fill="white"></path></g><defs><clipPath id="clip0_3042_57780"><rect width="229.5" height="56.25" fill="white" transform="translate(0.5 0.884766)"></rect></clipPath></defs></svg> 