<?xml version="1.0" encoding="UTF-8"?> <svg xmlns="http://www.w3.org/2000/svg" width="161" height="40" viewBox="0 0 161 40" fill="none"><g clip-path="url(#clip0_2813_52690)"><path d="M150.788 39.4498C150.779 39.4515 150.77 39.4529 150.761 39.4543C150.769 39.4423 150.777 39.4297 150.785 39.4182C150.786 39.4193 150.787 39.4208 150.788 39.4215V39.4498ZM150.636 39.3723C150.65 39.3687 150.668 39.3617 150.685 39.358C150.689 39.358 150.689 39.358 150.692 39.358C150.692 39.3617 150.696 39.3653 150.696 39.3687C150.675 39.3687 150.657 39.3723 150.636 39.3723V39.3723ZM141.715 34.141C141.648 34.2045 141.574 34.2751 141.5 34.3456C141.468 34.3103 141.44 34.2715 141.412 34.2362C141.253 34.3034 141.228 34.2962 141.151 34.1516C141.158 34.201 141.165 34.2539 141.172 34.3175C140.995 34.2856 140.777 34.4621 140.71 34.2644C140.752 34.0493 140.784 33.9012 140.816 33.7495C140.971 33.7284 140.953 33.8412 140.96 33.9329C141.009 33.9259 141.055 33.9082 141.094 33.9153C141.345 33.9576 141.32 33.9329 141.433 33.7248C141.521 33.5731 141.578 33.5167 141.726 33.5167C141.683 33.6507 141.637 33.7954 141.574 33.9823C141.637 34.0352 141.697 34.1057 141.764 34.1375C141.778 34.1445 141.789 34.1481 141.8 34.1551C141.768 34.1516 141.74 34.1445 141.715 34.141V34.141ZM160.781 34.2574V34.2292C160.77 34.1798 160.76 34.1269 160.746 34.0775C160.739 33.8977 160.728 33.7143 160.714 33.5343C160.71 33.4743 160.703 33.4144 160.693 33.3579C160.7 33.305 160.707 33.2521 160.721 33.1992C160.692 33.1906 160.71 33.0952 160.714 32.97C160.719 32.7948 160.626 32.6736 160.626 32.5184C160.629 32.268 160.488 32.0633 160.386 31.8447C160.365 31.8059 160.315 31.7741 160.298 31.7318C160.266 31.6648 159.815 31.5625 159.649 31.5625L152.89 31.5519H151.218H150.671H149.126H148.721L147.737 31.5625H146.218H146.035C146.028 31.559 146.014 31.559 146.003 31.559C146.003 31.559 145.999 31.559 145.999 31.5625H145.586H145.424H145.145C145.141 31.559 145.134 31.559 145.131 31.559C145.131 31.559 145.131 31.559 145.131 31.5625H144.748H141.509C141.509 31.5625 141.472 31.9258 141.454 31.9399C141.465 32.0811 141.472 32.2257 141.486 32.3879C141.394 32.402 141.33 32.4761 141.352 32.6066C141.26 32.6136 141.179 32.6172 141.048 32.6313C141.098 32.5537 141.133 32.5078 141.158 32.469C141.144 32.4302 141.126 32.3809 141.108 32.328C141.165 32.3138 141.218 32.2997 141.292 32.2786C141.292 32.2715 141.288 32.2432 141.285 32.2257C141.193 32.1904 141.112 32.1587 141.006 32.1162C140.995 32.1798 140.96 32.2539 140.974 32.3138C141.006 32.4267 140.978 32.4972 140.868 32.5396C140.89 32.5431 140.907 32.536 140.918 32.5466C140.964 32.5678 141.002 32.596 141.045 32.6207C141.006 32.6524 140.971 32.6877 140.932 32.7159C140.914 32.7265 140.882 32.7159 140.847 32.7194C140.83 32.79 140.809 32.8605 140.787 32.9312C140.664 32.9594 140.544 32.9804 140.385 33.0123C140.413 32.9312 140.431 32.8748 140.452 32.8147C140.265 32.8464 140.255 32.8358 140.23 32.6736C140.17 32.6877 140.114 32.7018 140.054 32.7194C140.04 32.723 140.033 32.7371 140.029 32.7371C140.05 32.7724 140.071 32.8006 140.092 32.8323C140.04 32.857 139.983 32.8818 139.909 32.9241C139.909 32.9241 139.905 32.9522 139.898 33.0123C140.015 32.9663 140.114 32.9312 140.23 32.8818C140.233 32.9241 140.241 32.9628 140.251 33.0123C140.106 33.0546 139.972 33.0969 139.835 33.1392C139.842 33.1463 139.846 33.1604 139.846 33.1675C139.934 33.1604 140.033 33.1639 140.11 33.1357C140.283 33.0793 140.272 33.171 140.276 33.2803C140.23 33.2874 140.188 33.2945 140.138 33.2979C140.131 33.3332 140.124 33.3755 140.117 33.4144C140.643 33.4779 140.643 33.4779 140.625 33.5731C140.512 33.5731 140.399 33.5589 140.297 33.5766C140.202 33.5979 140.121 33.6612 140.033 33.7072C140.057 33.7213 140.106 33.7284 140.124 33.7566C140.142 33.7777 140.135 33.8271 140.121 33.8553C140.099 33.8977 140.064 33.9329 140.018 33.9964C140.156 34.0317 140.255 34.0529 140.382 34.0881C140.325 33.9541 140.498 33.8518 140.615 33.8977C140.657 33.9153 140.692 33.9365 140.741 33.9647C140.787 34.1551 140.561 34.0811 140.484 34.1692C140.53 34.2186 140.678 34.2644 140.505 34.3491C140.481 34.3632 140.477 34.4585 140.502 34.5009C140.516 34.5361 140.593 34.5467 140.629 34.5785C140.724 34.6701 140.826 34.6913 140.957 34.6631C140.978 34.6631 141.027 34.7372 141.038 34.7795C141.055 34.8536 141.066 34.9276 141.062 35.0052C141.059 35.044 141.027 35.1147 140.999 35.1182C140.868 35.1393 140.734 35.1393 140.6 35.1675H140.833V35.3333C140.897 35.3474 140.96 35.3615 141.062 35.3827C141.031 35.4356 141.009 35.5097 140.974 35.5132C140.911 35.5167 140.816 35.5097 140.777 35.4674C140.731 35.425 140.738 35.3404 140.688 35.2769C140.681 35.3051 140.688 35.3439 140.671 35.3686C140.66 35.3862 140.615 35.3827 140.586 35.3897C140.6 35.2769 140.505 35.3263 140.449 35.3087C140.473 35.4568 140.445 35.4744 140.262 35.4638C140.311 35.4744 140.367 35.485 140.435 35.5026C140.424 35.5802 140.406 35.6578 140.392 35.7424C140.297 35.7495 140.212 35.7566 140.128 35.7636V35.7989C140.209 35.7883 140.343 35.7495 140.364 35.7812C140.424 35.88 140.544 35.7848 140.608 35.8695C140.59 35.8906 140.576 35.9117 140.558 35.933C140.569 35.9401 140.579 35.9436 140.59 35.9471C140.615 35.9047 140.639 35.8625 140.667 35.8059H140.851C140.918 35.9258 140.597 36.0213 140.826 36.1517C140.826 36.1024 140.83 36.0599 140.83 36.0317C140.946 35.9789 141.045 35.9295 141.151 35.88C141.197 35.9542 141.119 36.0882 141.271 36.0812C141.352 36.0775 141.433 36.0389 141.493 36C141.542 35.9471 141.588 35.8941 141.641 35.8378C141.712 36.007 141.768 36.1447 141.828 36.2857C141.846 36.2821 141.86 36.2787 141.877 36.2751C141.87 36.2009 141.863 36.1234 141.853 36.0389H141.969C141.997 36.1587 142.022 36.2645 142.043 36.3668C142.138 36.3492 142.191 36.3422 142.248 36.3316C142.244 36.3739 142.241 36.4197 142.237 36.4586C142.212 36.448 142.184 36.441 142.16 36.4337C142.114 36.4234 142.064 36.4726 141.987 36.5079C142.068 36.6244 142.117 36.6985 142.181 36.7936C142.174 36.7973 142.17 36.8006 142.163 36.8006C142.078 36.8006 141.994 36.7936 141.912 36.776C141.902 36.7727 141.888 36.6809 141.905 36.6703C142.043 36.5784 141.905 36.5469 141.877 36.469C141.838 36.5926 141.807 36.6879 141.771 36.7973C141.733 36.8006 141.687 36.8043 141.659 36.8079C141.652 36.8714 141.62 36.9489 141.648 36.9842C141.761 37.104 141.659 37.1535 141.578 37.2133C141.673 37.4532 141.655 37.4851 141.429 37.4815C141.461 37.3405 141.493 37.1957 141.521 37.0477C141.323 37.0088 141.373 37.1428 141.32 37.263C141.246 37.1428 141.182 37.0583 141.136 36.9629C141.098 36.8678 141.084 36.7584 141.041 36.6563C141.031 36.628 140.981 36.6136 140.932 36.575C140.943 36.6703 140.946 36.73 140.953 36.7973C141.098 36.903 141.168 37.083 141.084 37.1675C141.055 37.1957 140.992 37.2027 140.932 37.1957C140.854 37.2805 140.791 37.3121 140.741 37.1817C140.671 37.1994 140.615 37.2133 140.561 37.2346C140.533 37.2486 140.498 37.2875 140.498 37.3121C140.498 37.3441 140.53 37.3756 140.554 37.397C140.59 37.4286 140.671 37.4462 140.671 37.4745C140.671 37.5344 140.639 37.5909 140.611 37.6754C140.738 37.6261 140.875 37.5769 141.027 37.5204C141.041 37.5839 141.052 37.6192 141.052 37.6225C141.136 37.6438 141.211 37.679 141.274 37.672C141.352 37.6614 141.433 37.6261 141.493 37.5839C141.588 37.5134 141.581 37.5061 141.62 37.6155C141.701 37.6754 141.902 37.545 141.874 37.7778C141.726 37.7532 141.574 37.8729 141.45 37.7672C141.292 37.7918 141.14 37.8201 140.999 37.8413C141.115 37.8589 141.239 37.8802 141.355 37.8906C141.426 37.8906 141.496 37.8729 141.567 37.8729C141.598 37.8696 141.634 37.8696 141.659 37.8836C141.782 37.9717 141.912 37.9507 142.05 37.9225C142.163 37.8978 142.258 37.9118 142.241 38.0458C142.029 38.0705 141.824 38.0955 141.613 38.1235C141.606 38.1235 141.606 38.166 141.598 38.1976C141.648 38.173 141.687 38.1517 141.764 38.1165C141.75 38.2012 141.743 38.2541 141.736 38.307H142.05C142.061 38.2964 142.068 38.2857 142.075 38.2754C142.036 38.2647 141.997 38.2505 141.958 38.2435C141.965 38.2189 141.976 38.2012 141.983 38.1762C142.057 38.173 142.128 38.166 142.202 38.166C142.311 38.1693 142.435 38.2505 142.512 38.1025C142.519 38.0811 142.586 38.0881 142.622 38.0848C142.632 38.0987 142.646 38.1025 142.646 38.1131C142.664 38.3316 142.664 38.3246 142.9 38.321C142.819 38.3775 142.738 38.4693 142.65 38.4903C142.484 38.5328 142.357 38.6668 142.251 38.9101C142.34 38.8997 142.417 38.8572 142.495 38.8078C142.54 38.7796 142.579 38.7337 142.625 38.7161C142.759 38.6562 142.897 38.6067 143.041 38.5504C143.056 38.5857 143.08 38.6456 143.091 38.6738C143.161 38.6668 143.214 38.6632 143.271 38.6562C143.235 38.7551 143.214 38.8218 143.189 38.8891C143.197 38.9031 143.207 38.9137 143.214 38.928C143.278 38.8747 143.341 38.8256 143.405 38.7657C143.472 38.7054 143.528 38.6033 143.599 38.5714C143.69 38.5328 143.789 38.5434 143.884 38.5362C143.913 38.5362 143.941 38.5468 143.966 38.5538V38.6033C143.853 38.6349 143.743 38.6668 143.63 38.7021C143.63 38.7124 143.634 38.7267 143.634 38.7373C143.726 38.7267 143.817 38.7197 143.909 38.7091C143.909 38.7301 143.913 38.7551 143.916 38.776C143.835 38.8362 143.75 38.8997 143.669 38.9596C143.673 38.9772 143.673 38.9982 143.676 39.0161C143.789 38.9878 143.905 38.9596 144.008 38.935C144.026 38.8362 144.04 38.7583 144.061 38.6492C144.089 38.7231 144.103 38.7583 144.114 38.7939V38.7301C144.255 38.6668 144.399 38.6033 144.54 38.5362C144.537 38.5258 144.533 38.5115 144.53 38.4975C144.601 38.5292 144.674 38.5608 144.749 38.5927C144.759 38.568 144.784 38.5434 144.816 38.5222C144.837 38.5434 144.847 38.582 144.847 38.6349C144.978 38.6033 145.101 38.5185 145.2 38.5857C145.197 38.5857 145.19 38.589 145.186 38.589V38.6526C145.221 38.6632 145.26 38.6914 145.292 38.6808C145.451 38.6419 145.609 38.596 145.764 38.5468C146.121 38.5538 146.47 38.6067 146.823 38.6562C146.925 38.6702 147.034 38.6456 147.14 38.6419C147.154 38.6419 147.168 38.6386 147.186 38.6386H147.207C147.246 38.6419 147.285 38.6386 147.327 38.6349C147.348 38.6456 147.363 38.6632 147.377 38.6951C147.38 38.7021 147.419 38.6914 147.44 38.6951C147.482 38.6984 147.528 38.6984 147.571 38.6984C147.623 38.7407 147.666 38.7161 147.708 38.7021C147.743 38.7054 147.779 38.7054 147.814 38.7054C147.888 38.7481 147.952 38.8502 148.05 38.7583C148.075 38.7373 148.107 38.7231 148.139 38.7124C148.269 38.7231 148.4 38.7337 148.526 38.7551C148.65 38.776 148.777 38.7972 148.904 38.8292C148.858 38.8395 148.809 38.8502 148.759 38.8572C148.756 38.9313 148.752 39.0055 148.752 39.0796C148.735 39.1076 148.714 39.1359 148.696 39.1641C148.668 39.069 148.639 38.9736 148.611 38.8715C148.565 38.9031 148.523 38.9313 148.481 38.9596C148.484 38.9736 148.484 38.9912 148.488 39.0088C148.526 39.0088 148.562 39.0125 148.601 39.0161V39.0584C148.41 39.1006 148.22 39.1465 148.026 39.1888C148.026 39.1994 148.026 39.21 148.029 39.2206C148.124 39.2383 148.22 39.2559 148.311 39.2699C148.332 39.2416 148.382 39.1781 148.389 39.1781C148.449 39.3088 148.519 39.1994 148.583 39.21C148.699 39.2276 148.83 39.0265 148.925 39.3088C148.932 39.2383 148.936 39.1818 148.939 39.1322C149.056 39.1042 149.161 39.076 149.264 39.0477C149.264 39.0301 149.26 39.0088 149.26 38.9912C149.222 38.9806 149.183 38.9736 149.14 38.9632V38.9243C149.158 38.9173 149.172 38.9137 149.19 38.9067C149.229 38.9173 149.267 38.928 149.306 38.942C149.324 38.949 149.345 38.9526 149.363 38.9596C149.352 38.9666 149.338 38.9772 149.324 38.9842C149.345 39.0514 149.366 39.1149 149.387 39.1818C149.415 39.1252 149.433 39.0584 149.454 39.0547C149.543 39.0371 149.638 38.9982 149.715 39.0477C149.786 39.0936 149.86 39.1149 149.93 39.1219C149.927 39.1395 149.92 39.1571 149.913 39.1781C149.955 39.1571 149.994 39.1359 150.04 39.1112C150.072 39.1076 150.107 39.1006 150.139 39.09H150.142C150.146 39.1182 150.149 39.1359 150.149 39.1359C150.184 39.1465 150.213 39.1678 150.241 39.1711L150.244 39.1748C150.287 39.217 150.319 39.1888 150.347 39.1395C150.361 39.1322 150.375 39.1219 150.386 39.1076C150.392 39.1006 150.4 39.0972 150.403 39.09C150.417 39.0936 150.431 39.0972 150.446 39.0972C150.446 39.1042 150.449 39.1182 150.453 39.1322C150.498 39.1748 150.604 39.083 150.59 39.2523C150.509 39.2346 150.428 39.3228 150.364 39.2453C150.28 39.2629 150.198 39.2839 150.125 39.3018C150.184 39.3121 150.251 39.3298 150.315 39.3334C150.35 39.337 150.389 39.3228 150.424 39.3228C150.442 39.3194 150.463 39.3194 150.474 39.3298C150.509 39.3653 150.544 39.3757 150.583 39.3757C150.319 39.3969 150.061 39.4179 149.786 39.4392C149.811 39.4781 149.832 39.5133 149.846 39.5417C149.846 39.5417 149.846 39.5419 149.846 39.5422C149.845 39.5433 149.844 39.5444 149.843 39.5458C149.823 39.5327 149.806 39.5114 149.787 39.5114C149.736 39.5069 149.682 39.5069 149.63 39.5133C149.616 39.5156 149.589 39.5478 149.592 39.5587C149.599 39.5996 149.616 39.6359 149.635 39.6877C149.672 39.55 149.674 39.55 149.766 39.5908C149.756 39.6102 149.747 39.6276 149.736 39.6468H149.826C149.831 39.6188 149.836 39.5931 149.846 39.5478C149.85 39.5523 149.853 39.5542 149.857 39.5584C149.858 39.5598 149.859 39.5612 149.86 39.5626C149.966 39.7356 149.983 39.7392 150.026 39.6581C150.027 39.6569 150.027 39.6552 150.028 39.6544C150.154 39.6728 150.285 39.6147 150.409 39.6488C150.393 39.6441 150.385 39.6301 150.381 39.6122C150.381 39.6122 150.382 39.6122 150.382 39.6122C150.403 39.6052 150.424 39.5908 150.442 39.5663C150.47 39.6086 150.488 39.6511 150.505 39.6474C150.509 39.6474 150.512 39.6474 150.516 39.6438H150.519H150.685C150.689 39.6368 150.692 39.6298 150.696 39.6228C150.675 39.6122 150.657 39.6052 150.632 39.5978C150.655 39.5957 150.678 39.5727 150.701 39.5436C150.721 39.5413 150.744 39.5379 150.763 39.5379C150.785 39.5399 150.809 39.4515 150.831 39.3639C150.84 39.3564 150.849 39.3505 150.858 39.3497C150.861 39.365 150.863 39.3824 150.865 39.4039C150.866 39.407 150.866 39.4073 150.866 39.4057C150.868 39.402 150.871 39.3799 150.874 39.3499C150.885 39.3555 150.895 39.3673 150.904 39.3899C150.929 39.3617 150.946 39.3404 150.975 39.3088C150.943 39.6687 151.151 39.3547 151.172 39.5732C151.119 39.5802 151.07 39.5876 151.021 39.5978C151.021 39.6086 151.017 39.6228 151.017 39.6368C151.165 39.6861 151.313 39.7392 151.465 39.7885C151.465 39.7815 151.472 39.7426 151.472 39.7426C151.673 39.6897 151.856 39.6544 152.04 39.5908C152.065 39.5839 152.086 39.5027 152.11 39.4252C152.156 39.4215 152.177 39.4498 152.177 39.5347C152.23 39.517 152.28 39.4781 152.322 39.4781C152.322 39.4781 152.322 39.4784 152.323 39.4784C152.31 39.4999 152.297 39.5214 152.285 39.5433C152.345 39.5917 152.405 39.6446 152.468 39.6882C152.484 39.6992 152.506 39.6798 152.525 39.6746C152.52 39.6443 152.517 39.6116 152.509 39.5842C152.499 39.5492 152.488 39.5139 152.477 39.4781H152.481C152.495 39.4744 152.509 39.4712 152.523 39.4712C152.604 39.4638 152.682 39.4674 152.76 39.4744C152.816 39.5876 152.858 39.7216 152.784 39.9577C153.052 39.7921 153.289 39.7143 153.504 40C153.472 39.9261 153.44 39.852 153.408 39.7745L153.419 39.7216C153.595 39.7568 153.769 39.8058 153.956 39.8411C153.928 39.6857 153.893 39.6082 153.85 39.6082C153.84 39.6082 153.826 39.6152 153.812 39.6292C153.731 39.7103 153.67 39.6438 153.595 39.5769C153.684 39.5839 153.772 39.5839 153.856 39.5908C153.955 39.5946 154.05 39.6016 154.146 39.6228C154.153 39.6262 154.163 39.6262 154.17 39.6298C154.206 39.6651 154.237 39.7039 154.266 39.7568C154.284 39.7286 154.301 39.6967 154.318 39.6687C154.4 39.6933 154.612 39.5901 154.69 39.6289C154.842 39.7031 154.992 39.5058 155.144 39.5729C155.211 39.6012 155.282 39.6188 155.352 39.6365H155.715C155.881 39.5799 156.037 39.7101 156.207 39.6502C156.256 39.6326 156.315 39.5799 156.365 39.5693C156.509 39.5411 156.523 39.7112 156.667 39.6866C156.787 39.6656 156.903 39.6513 157.02 39.6231C157.175 39.5772 157.33 39.5243 157.485 39.468C157.634 39.4185 157.758 39.4674 157.906 39.4285C158.051 39.3863 158.195 39.3653 158.34 39.3404C158.548 39.3121 158.756 39.2805 158.964 39.2593C158.974 39.2581 158.976 39.2576 158.974 39.257C159.097 39.2601 159.215 39.2771 159.34 39.259C159.474 39.2414 159.62 39.2265 159.754 39.1946C159.8 39.1806 159.85 39.1946 159.899 39.1876C159.998 39.177 160.1 39.1664 160.199 39.1417C160.217 39.1381 160.333 39.1359 160.34 39.1182C160.358 39.1252 160.372 39.1182 160.389 39.0866C160.446 38.9842 160.492 38.8502 160.527 38.7197C160.552 38.6349 160.548 38.5258 160.559 38.4304C160.569 38.3353 160.583 38.2365 160.594 38.141C160.601 38.1201 160.608 38.0955 160.611 38.0742C160.629 37.9893 160.64 37.8978 160.64 37.8094V37.8061C160.686 37.4958 160.725 37.1817 160.746 36.8678C160.784 36.2893 160.788 35.6966 160.781 35.1147C160.781 34.85 160.774 34.5855 160.76 34.321V34.3175C160.767 34.2962 160.774 34.2786 160.781 34.2574V34.2574ZM149.06 39.4202C148.778 39.4288 148.496 39.388 148.213 39.3668C148.339 39.5162 149.098 39.6298 149.283 39.5341C149.231 39.3799 149.152 39.417 149.06 39.4202ZM141.494 36.6251C141.476 36.7183 141.457 36.8113 141.442 36.9042L141.488 36.9128C141.494 36.8169 141.632 36.7444 141.494 36.6251ZM145.835 39.0986C146.305 39.1302 146.775 39.2489 147.248 39.1112C146.779 38.9655 146.307 39.0256 145.835 39.0986ZM140.604 32.8512C140.638 32.8134 140.704 32.7583 140.694 32.7351C140.65 32.6362 140.679 32.6073 140.788 32.6043C140.804 32.6043 140.823 32.581 140.841 32.5607C140.844 32.5549 140.85 32.5491 140.854 32.5462C140.788 32.5579 140.725 32.5695 140.688 32.5752C140.635 32.6537 140.594 32.7147 140.554 32.7758C140.547 32.7873 140.547 32.8106 140.554 32.8193C140.566 32.8339 140.597 32.8512 140.604 32.8512V32.8512ZM141.366 38.0982C141.385 38.1534 141.398 38.197 141.413 38.2376C141.385 38.2435 141.344 38.2639 141.335 38.255C141.285 38.2057 141.241 38.1506 141.173 38.072C141.11 38.1301 140.951 38.0198 140.876 38.162C140.872 38.171 140.819 38.1737 140.81 38.162C140.691 38.014 140.582 38.0896 140.476 38.1737C140.438 38.1561 140.407 38.1273 140.372 38.1273C140.275 38.1215 140.175 38.1215 140.078 38.1301C140.05 38.133 140 38.1766 140.006 38.1911C140.019 38.2462 140.05 38.2958 140.088 38.3655C140.157 38.1794 140.16 38.1794 140.332 38.2347C140.313 38.2609 140.297 38.284 140.275 38.3104H140.444C140.453 38.2726 140.463 38.2376 140.482 38.1766C140.807 38.4614 141.188 38.2435 141.535 38.3131C141.419 38.2871 141.538 38.075 141.366 38.0982V38.0982ZM145.975 38.6912C145.865 38.7172 145.755 38.7432 145.627 38.7732C145.66 38.8163 145.674 38.8339 145.688 38.8518C145.437 38.7024 145.206 38.9573 144.954 38.9165C144.995 38.874 145.035 38.8311 145.075 38.7886C145.083 38.8053 145.09 38.8222 145.098 38.839C145.103 38.7799 145.108 38.7208 145.118 38.5941C144.878 38.8846 144.599 38.7287 144.383 39.001C144.362 39.0267 144.323 38.9996 144.294 39.0071C144.192 39.0337 144.074 39.0155 143.991 39.1036C143.791 39.3166 143.742 39.3325 143.59 39.0636C143.554 39.086 143.518 39.1081 143.479 39.1328C143.544 39.255 143.51 39.3166 143.443 39.3642C143.377 39.4112 143.314 39.4748 143.246 39.5131C143.112 39.5894 143.253 39.6863 143.237 39.77C143.233 39.7957 143.225 39.8256 143.229 39.8481C143.234 39.8782 143.248 39.9029 143.261 39.9359C143.378 39.3754 143.628 39.4294 143.875 39.4658C143.88 39.4859 143.885 39.5061 143.89 39.5262C143.844 39.5652 143.799 39.6041 143.748 39.6477C143.888 39.7826 143.903 39.7765 144.033 39.5607C144.021 39.5123 144.001 39.44 144.003 39.4378C144.05 39.3903 144.097 39.3234 144.148 39.3147C144.224 39.3018 144.305 39.3572 144.379 39.3357C144.526 39.2929 144.665 39.1151 144.823 39.2604C144.836 39.2145 144.849 39.1684 144.864 39.1149C144.952 39.2878 145.136 39.2245 145.189 39.0672C145.263 39.0776 145.324 39.1137 145.375 39.0857C145.43 39.0559 145.475 38.9662 145.524 38.9031C145.541 38.9615 145.564 39.0393 145.572 39.0667C145.717 38.9414 145.847 38.8294 145.976 38.7174C145.976 38.7088 145.975 38.7002 145.975 38.6912" fill="#FFF200"></path><path d="M22.9494 11.087C21.7804 10.0958 20.4164 9.34722 18.852 8.83064C17.2905 8.31378 15.5567 8.05689 13.659 8.05689C11.6003 8.05689 9.72818 8.35604 8.0451 8.94622C6.36216 9.54507 4.93048 10.4431 3.74162 11.6545C2.55275 12.8574 1.63224 14.4105 0.979867 16.3109C0.327606 18.2114 0 20.4677 0 23.0769C0 25.6918 0.327606 27.9791 0.979867 29.9359C1.16908 30.5092 1.37754 31.043 1.61464 31.5625H10.9283C10.3747 31.1869 9.86942 30.6816 9.3809 30.0264C8.23158 28.4845 7.66111 26.1069 7.66111 22.9019C7.66111 21.3176 7.81642 19.9819 8.13551 18.8949C8.44902 17.8075 8.87818 16.9323 9.41194 16.2799C9.94559 15.6276 10.5697 15.1616 11.2813 14.885C11.9957 14.611 12.7694 14.4698 13.5969 14.4698C15.0596 14.4698 16.2992 14.8962 17.3102 15.749C17.9937 16.3279 18.4877 17.048 18.7984 17.9234H26.7334C26.5414 16.7486 26.1997 15.6558 25.7111 14.6478C25.0391 13.2668 24.1186 12.078 22.9494 11.087" fill="white"></path><path d="M51.4576 11.0559C50.4919 10.0843 49.2068 9.34722 47.6087 8.83064C46.0103 8.31378 44.0676 8.05689 41.783 8.05689C39.4506 8.05689 37.4794 8.30539 35.8586 8.79958C34.2378 9.29657 32.9217 9.99952 31.9165 10.909C30.9027 11.821 30.1715 12.9082 29.7139 14.1705C29.3017 15.3254 29.0588 16.5763 28.9939 17.9234H36.2313C36.463 16.8051 36.9231 15.8929 37.6151 15.1843C38.383 14.3936 39.6624 13.9954 41.4442 13.9954C42.9466 13.9954 44.1437 14.2637 45.0333 14.7974C45.9229 15.3311 46.369 16.0737 46.369 17.0254C46.369 18.0561 46.0357 18.7931 45.3638 19.2507C44.6917 19.7053 43.3815 20.0724 41.4442 20.3462C39.5015 20.6258 37.7111 20.9336 36.0732 21.2668C34.4297 21.6057 33.0121 22.1309 31.8233 22.8454C30.6346 23.5541 29.7055 24.534 29.0334 25.785C28.3584 27.0275 28.0254 28.7021 28.0254 30.8002C28.0254 31.0626 28.0355 31.3112 28.0581 31.5625H36.0078C35.8186 31.1305 35.7427 30.6222 35.7427 30.0264C35.7427 28.7613 36.158 27.7927 36.9939 27.1178C37.8211 26.4458 39.3431 25.8895 41.56 25.4546C42.9861 25.1778 44.0732 24.918 44.8271 24.6809C45.5813 24.4436 46.1516 24.1302 46.5526 23.7348L46.4905 26.9428C46.4905 27.8125 46.3041 28.6314 45.9229 29.4051C45.5502 30.1733 45.0529 30.8509 44.4432 31.4214C44.3894 31.4722 44.3433 31.5145 44.2867 31.5625H54.2081V19.5782C54.2081 17.7568 53.9907 16.1246 53.5558 14.6788C53.1209 13.2358 52.4233 12.0273 51.4576 11.0559" fill="white"></path><path d="M80.2798 10.4996C79.4356 9.66652 78.4133 9.04248 77.2302 8.6244C76.047 8.2094 74.7676 8.00036 73.3869 8.00036C71.0203 8.00036 69.0833 8.42684 67.5867 9.28538C66.0842 10.1464 64.8815 11.4144 63.9748 13.089V8.83064H56.6104V31.5625H64.328V21.298C64.328 16.8277 66.333 14.5913 70.3257 14.5913C72.1472 14.5913 73.4319 14.9866 74.1861 15.7744C74.94 16.5679 75.3127 18.09 75.3127 20.3462V31.5625H83.036V17.7568C83.036 16.1698 82.7875 14.7748 82.2933 13.5605C81.7963 12.3519 81.1297 11.3296 80.2798 10.4996Z" fill="white"></path><path d="M110.906 12.1936C109.621 10.8635 108.074 9.83289 106.255 9.09891C104.437 8.36744 102.384 8.0003 100.094 8.0003C97.7614 8.0003 95.6772 8.36744 93.8418 9.09891C92.0036 9.83289 90.4335 10.875 89.1318 12.2218C87.8272 13.5716 86.8305 15.1981 86.1387 17.1012C85.447 19.0045 85.1025 21.1053 85.1025 23.4067C85.1025 25.6657 85.4383 27.7496 86.1077 29.6528C86.345 30.3249 86.6214 30.963 86.9351 31.5645H96.5696C94.2971 30.5303 93.0569 27.6225 93.0569 23.4349C93.0569 17.539 95.4119 14.5881 100.122 14.5881C104.832 14.5881 107.19 17.539 107.19 23.4349C107.19 27.6196 105.922 30.7174 103.677 31.5616H113.063C113.368 30.9857 113.637 30.3785 113.871 29.7403C114.56 27.857 114.907 25.7447 114.907 23.4067C114.907 21.0658 114.56 18.9451 113.871 17.0419C113.176 15.1388 112.191 13.5207 110.906 12.1936Z" fill="white"></path><path d="M142.591 12.1936C141.306 10.8635 139.758 9.83289 137.94 9.09891C136.121 8.36744 134.068 8.0003 131.778 8.0003C129.446 8.0003 127.362 8.36744 125.527 9.09891C123.688 9.83289 122.118 10.875 120.817 12.2218C119.512 13.5716 118.515 15.1981 117.824 17.1012C117.132 19.0045 116.787 21.1053 116.787 23.4067C116.787 25.6657 117.123 27.7496 117.793 29.6528C118.03 30.3249 118.306 30.963 118.62 31.5645H128.254C125.982 30.5303 124.742 27.6225 124.742 23.4349C124.742 17.539 127.097 14.5881 131.807 14.5881C136.517 14.5881 138.874 17.539 138.874 23.4349C138.874 27.6196 137.607 30.7174 135.362 31.5616H144.748C145.053 30.9857 145.321 30.3785 145.555 29.7403C146.245 27.857 146.592 25.7447 146.592 23.4067C146.592 21.0658 146.245 18.9451 145.555 17.0419C144.861 15.1388 143.875 13.5207 142.591 12.1936" fill="white"></path></g><defs><clipPath id="clip0_2813_52690"><rect width="160.783" height="31.9983" fill="white" transform="translate(0 8.00098)"></rect></clipPath></defs></svg> 