<?xml version="1.0" encoding="UTF-8"?> <svg xmlns="http://www.w3.org/2000/svg" width="1432" height="224" viewBox="0 0 1432 224" fill="none"><g clip-path="url(#clip0_2813_52701)"><path d="M223.854 29.9596C212.429 20.3375 199.098 13.0706 183.808 8.05577C168.546 3.03824 151.601 0.544409 133.054 0.544409C112.933 0.544409 94.6356 3.44845 78.1859 9.17772C61.7376 14.9912 47.745 23.7087 36.1256 35.4688C24.5061 47.1461 15.5094 62.2231 9.13343 80.6725C2.75851 99.1219 -0.443359 121.025 -0.443359 146.354C-0.443359 171.74 2.75851 193.944 9.13343 212.94C10.9828 218.505 13.0202 223.687 15.3374 228.73H106.365C100.955 225.084 96.016 220.179 91.2415 213.818C80.0085 198.85 74.4329 175.769 74.4329 144.655C74.4329 129.276 75.9509 116.309 79.0696 105.756C82.1336 95.2008 86.328 86.7042 91.5448 80.371C96.7604 74.0392 102.86 69.5152 109.815 66.8296C116.798 64.1704 124.359 62.7993 132.447 62.7993C146.743 62.7993 158.858 66.9388 168.739 75.2171C175.419 80.8369 180.248 87.828 183.284 96.3258H260.837C258.96 84.9213 255.621 74.313 250.846 64.5268C244.278 51.121 235.281 39.5798 223.854 29.9596" fill="white"></path><path d="M502.496 29.6581C493.058 20.2261 480.499 13.0706 464.879 8.05577C449.257 3.03824 430.27 0.544409 407.942 0.544409C385.145 0.544409 365.88 2.95675 350.039 7.75424C334.198 12.5789 321.335 19.403 311.511 28.2319C301.602 37.0852 294.455 47.6394 289.984 59.8936C285.955 71.105 283.581 83.2489 282.946 96.3258H353.682C355.946 85.47 360.443 76.6145 367.206 69.735C374.711 62.0596 387.216 58.1939 404.63 58.1939C419.314 58.1939 431.014 60.798 439.709 65.9796C448.403 71.1601 452.763 78.3697 452.763 87.6082C452.763 97.614 449.506 104.768 442.939 109.211C436.369 113.624 423.564 117.187 404.63 119.845C385.643 122.56 368.145 125.548 352.137 128.782C336.074 132.072 322.218 137.171 310.6 144.107C298.982 150.988 289.901 160.5 283.332 172.644C276.735 184.706 273.48 200.962 273.48 221.33C273.48 223.878 273.579 226.291 273.8 228.73H351.497C349.648 224.537 348.907 219.602 348.907 213.818C348.907 201.537 352.965 192.134 361.135 185.582C369.219 179.059 384.095 173.658 405.762 169.437C419.699 166.75 430.325 164.228 437.693 161.926C445.064 159.622 450.638 156.58 454.557 152.742L453.95 183.883C453.95 192.326 452.128 200.276 448.403 207.787C444.76 215.244 439.9 221.822 433.941 227.36C433.416 227.854 432.964 228.265 432.412 228.73H529.379V112.39C529.379 94.7086 527.254 78.8633 523.003 64.8283C518.753 50.8197 511.935 39.0876 502.496 29.6581" fill="white"></path><path d="M784.196 24.2575C775.945 16.1702 765.954 10.1122 754.39 6.05363C742.827 2.02493 730.322 -0.00437173 716.828 -0.00437173C693.698 -0.00437173 674.766 4.13572 660.139 12.4702C645.455 20.8291 633.7 33.138 624.838 49.3945V8.05575H552.861V228.73H628.29V129.085C628.29 85.6895 647.886 63.9783 686.909 63.9783C704.712 63.9783 717.268 67.8165 724.639 75.4643C732.007 83.1671 735.65 97.9429 735.65 119.845V228.73H811.134V94.7086C811.134 79.3025 808.705 65.7598 803.875 53.9715C799.017 42.2391 792.503 32.3149 784.196 24.2575Z" fill="white"></path><path d="M1083.54 40.7044C1070.98 27.7914 1055.86 17.7862 1038.08 10.6606C1020.31 3.55948 1000.25 -0.00468417 977.862 -0.00468417C955.066 -0.00468417 934.696 3.55948 916.757 10.6606C898.791 17.7862 883.444 27.9028 870.721 40.9783C857.971 54.0814 848.229 69.8716 841.468 88.3476C834.707 106.824 831.34 127.22 831.34 149.562C831.34 171.492 834.622 191.723 841.164 210.199C843.483 216.724 846.185 222.919 849.251 228.758H943.418C921.207 218.718 909.085 190.489 909.085 149.836C909.085 92.5974 932.103 63.9502 978.139 63.9502C1024.17 63.9502 1047.22 92.5974 1047.22 149.836C1047.22 190.461 1034.82 220.535 1012.88 228.73H1104.62C1107.61 223.139 1110.23 217.244 1112.52 211.049C1119.25 192.765 1122.65 172.259 1122.65 149.562C1122.65 126.836 1119.25 106.248 1112.52 87.7722C1105.73 69.2965 1096.1 53.5881 1083.54 40.7044Z" fill="white"></path><path d="M1393.22 40.7044C1380.66 27.7914 1365.54 17.7862 1347.77 10.6606C1329.99 3.55948 1309.93 -0.00468417 1287.55 -0.00468417C1264.75 -0.00468417 1244.38 3.55948 1226.44 10.6606C1208.48 17.7862 1193.13 27.9028 1180.41 40.9783C1167.66 54.0814 1157.91 69.8716 1151.15 88.3476C1144.39 106.824 1141.02 127.22 1141.02 149.562C1141.02 171.492 1144.31 191.723 1150.85 210.199C1153.17 216.724 1155.87 222.919 1158.93 228.758H1253.1C1230.89 218.718 1218.77 190.489 1218.77 149.836C1218.77 92.5974 1241.79 63.9502 1287.82 63.9502C1333.86 63.9502 1356.9 92.5974 1356.9 149.836C1356.9 190.461 1344.51 220.535 1322.57 228.73H1414.31C1417.29 223.139 1419.91 217.244 1422.2 211.049C1428.94 192.765 1432.33 172.259 1432.33 149.562C1432.33 126.836 1428.94 106.248 1422.2 87.7722C1415.41 69.2965 1405.78 53.5881 1393.22 40.7044" fill="white"></path></g><defs><clipPath id="clip0_2813_52701"><rect width="1432" height="224" fill="white"></rect></clipPath></defs></svg> 