<?xml version="1.0" encoding="UTF-8"?> <svg xmlns="http://www.w3.org/2000/svg" width="1432" height="225" viewBox="0 0 1432 225" fill="none"><g clip-path="url(#clip0_2813_52710)"><path d="M223.854 30.6862C212.429 21.064 199.098 13.7972 183.808 8.78233C168.546 3.7648 151.601 1.27097 133.054 1.27097C112.933 1.27097 94.6356 4.17501 78.1859 9.90429C61.7376 15.7178 47.745 24.4353 36.1256 36.1954C24.5061 47.8726 15.5094 62.9497 9.13343 81.3991C2.75851 99.8485 -0.443359 121.752 -0.443359 147.081C-0.443359 172.466 2.75851 194.67 9.13343 213.667C10.9828 219.232 13.0202 224.413 15.3374 229.457H106.365C100.955 225.811 96.016 220.905 91.2415 214.545C80.0085 199.577 74.4329 176.495 74.4329 145.382C74.4329 130.003 75.9509 117.036 79.0696 106.483C82.1336 95.9274 86.328 87.4307 91.5448 81.0975C96.7604 74.7657 102.86 70.2418 109.815 67.5562C116.798 64.8969 124.359 63.5259 132.447 63.5259C146.743 63.5259 158.858 67.6654 168.739 75.9436C175.419 81.5634 180.248 88.5546 183.284 97.0523H260.837C258.96 85.6478 255.621 75.0395 250.846 65.2533C244.278 51.8475 235.281 40.3064 223.854 30.6862" fill="black"></path><path d="M502.496 30.3846C493.058 20.9526 480.499 13.7972 464.879 8.78233C449.257 3.7648 430.27 1.27097 407.942 1.27097C385.145 1.27097 365.88 3.68331 350.039 8.4808C334.198 13.3055 321.335 20.1295 311.511 28.9584C301.602 37.8118 294.455 48.3659 289.984 60.6202C285.955 71.8315 283.581 83.9755 282.946 97.0523H353.682C355.946 86.1966 360.443 77.341 367.206 70.4616C374.711 62.7861 387.216 58.9204 404.63 58.9204C419.314 58.9204 431.014 61.5245 439.709 66.7062C448.403 71.8867 452.763 79.0962 452.763 88.3348C452.763 98.3405 449.506 105.495 442.939 109.937C436.369 114.35 423.564 117.914 404.63 120.572C385.643 123.286 368.145 126.275 352.137 129.509C336.074 132.799 322.218 137.898 310.6 144.834C298.982 151.714 289.901 161.226 283.332 173.37C276.735 185.433 273.48 201.689 273.48 222.057C273.48 224.604 273.579 227.018 273.8 229.457H351.497C349.648 225.263 348.907 220.329 348.907 214.545C348.907 202.264 352.965 192.861 361.135 186.309C369.219 179.785 384.095 174.385 405.762 170.163C419.699 167.477 430.325 164.954 437.693 162.652C445.064 160.349 450.638 157.306 454.557 153.468L453.95 184.61C453.95 193.053 452.128 201.003 448.403 208.514C444.76 215.971 439.9 222.549 433.941 228.087C433.416 228.581 432.964 228.991 432.412 229.457H529.379V113.116C529.379 95.4351 527.254 79.5898 523.003 65.5549C518.753 51.5463 511.935 39.8142 502.496 30.3846" fill="black"></path><path d="M784.196 24.984C775.945 16.8968 765.954 10.8388 754.39 6.78019C742.827 2.75149 730.322 0.722191 716.828 0.722191C693.698 0.722191 674.766 4.86228 660.139 13.1968C645.455 21.5557 633.7 33.8645 624.838 50.1211V8.78231H552.861V229.457H628.29V129.812C628.29 86.4161 647.886 64.7048 686.909 64.7048C704.712 64.7048 717.268 68.5431 724.639 76.1908C732.007 83.8937 735.65 98.6695 735.65 120.572V229.457H811.134V95.4351C811.134 80.0291 808.705 66.4864 803.875 54.698C799.017 42.9656 792.503 33.0414 784.196 24.984Z" fill="black"></path><path d="M1083.54 41.431C1070.98 28.518 1055.86 18.5128 1038.08 11.3872C1020.31 4.28604 1000.25 0.721878 977.862 0.721878C955.066 0.721878 934.696 4.28604 916.757 11.3872C898.791 18.5128 883.444 28.6294 870.721 41.7048C857.971 54.808 848.229 70.5981 841.468 89.0742C834.707 107.551 831.34 127.947 831.34 150.289C831.34 172.219 834.622 192.45 841.164 210.926C843.483 217.451 846.185 223.646 849.251 229.484H943.418C921.207 219.445 909.085 191.216 909.085 150.562C909.085 93.324 932.103 64.6768 978.139 64.6768C1024.17 64.6768 1047.22 93.324 1047.22 150.562C1047.22 191.188 1034.82 221.261 1012.88 229.457H1104.62C1107.61 223.865 1110.23 217.971 1112.52 211.776C1119.25 193.492 1122.65 172.986 1122.65 150.289C1122.65 127.562 1119.25 106.975 1112.52 88.4988C1105.73 70.023 1096.1 54.3147 1083.54 41.431Z" fill="black"></path><path d="M1393.22 41.431C1380.66 28.518 1365.54 18.5128 1347.77 11.3872C1329.99 4.28604 1309.93 0.721878 1287.55 0.721878C1264.75 0.721878 1244.38 4.28604 1226.44 11.3872C1208.48 18.5128 1193.13 28.6294 1180.41 41.7048C1167.66 54.808 1157.91 70.5981 1151.15 89.0742C1144.39 107.551 1141.02 127.947 1141.02 150.289C1141.02 172.219 1144.31 192.45 1150.85 210.926C1153.17 217.451 1155.87 223.646 1158.93 229.484H1253.1C1230.89 219.445 1218.77 191.216 1218.77 150.562C1218.77 93.324 1241.79 64.6768 1287.82 64.6768C1333.86 64.6768 1356.9 93.324 1356.9 150.562C1356.9 191.188 1344.51 221.261 1322.57 229.457H1414.31C1417.29 223.865 1419.91 217.971 1422.2 211.776C1428.94 193.492 1432.33 172.986 1432.33 150.289C1432.33 127.562 1428.94 106.975 1422.2 88.4988C1415.41 70.023 1405.78 54.3147 1393.22 41.431" fill="black"></path></g><defs><clipPath id="clip0_2813_52710"><rect width="1432" height="224" fill="white" transform="translate(0 0.726562)"></rect></clipPath></defs></svg> 