<?xml version="1.0" encoding="UTF-8"?>
<svg width="512pt" height="512pt" version="1.1" viewBox="0 0 512 512" xmlns="http://www.w3.org/2000/svg">
 <g>
  <path d="m450.75 275.96-74.805-27.863c-8.6172-3.1953-18.27 1.1914-21.492 9.832l-41.18 110.55c-19.383-17.254-38.641-24.848-57.262-22.363-29.922 3.9883-46.621 32.195-47.113 33.07-0.18359 0.26562-18.805 26.93-46.539 32.039-14.496 2.6797-29.184-1.0078-43.613-10.961-28.211-19.457-22.398-44.359-18.055-55.082 2.8672 3.0039 6.5391 4.7344 10.25 4.7344 1.4727 0 2.9492-0.26953 4.3789-0.83594l5.918-2.3398c1.8477 2.6641 4.3633 4.7969 7.4141 6.1172 2.2422 0.97266 4.6133 1.4609 6.9844 1.4609 2.1875 0 4.3789-0.41406 6.4727-1.2461l20.52-8.1133c4.3672-1.7266 7.8047-5.0469 9.6719-9.3594 1.8672-4.3125 1.9453-9.0898 0.21484-13.461l-36.102-91.289c-1.7305-4.3672-5.0547-7.8047-9.3633-9.6719-4.3047-1.8672-9.0898-1.9453-13.461-0.21484l-20.516 8.1133c-4.3672 1.7266-7.8047 5.0469-9.6719 9.3594-1.8672 4.3164-1.9453 9.0938-0.21484 13.465l0.83594 2.1094-2.1758 0.85938c-5.2617-11.172-13.25-38.984-16.027-51.301-6.875-30.531-1.4531-61.91 15.27-88.359 16.727-26.453 42.754-44.809 73.277-51.688 63-14.188 125.85 25.512 140.05 88.547 2.7734 12.324 7.4805 40.867 7.5156 53.219l-2.3359 0.16016-0.14844-2.2695c-0.3125-4.6914-2.4336-8.9766-5.9688-12.062-3.5312-3.0938-8.0938-4.5938-12.75-4.3164l-22.02 1.4648c-9.6758 0.64844-17.02 9.0469-16.375 18.719l6.5273 97.957c0.3125 4.6914 2.4336 8.9766 5.9688 12.062 3.2305 2.832 7.2969 4.3555 11.551 4.3555 0.39844 0 0.79688-0.015625 1.1992-0.039063l22.012-1.4688c4.6914-0.3125 8.9766-2.4336 12.066-5.9648 2.1875-2.5 3.5469-5.5078 4.0703-8.7031l6.3477-0.41797c7.5781-0.50781 13.047-7.9961 12.445-17.066l-4.4922-67.379c-0.41406-6.1797-3.5547-11.16-7.8945-13.613 0.33203-14.07-5.3594-46.32-7.7344-56.879-15.445-68.535-83.762-111.74-152.29-96.285-33.199 7.4805-61.496 27.434-79.684 56.203-18.188 28.766-24.086 62.891-16.605 96.086 2.375 10.559 11.07 42.152 17.402 54.723-0.875 1.25-1.6133 2.625-2.0586 4.2031-1.0156 3.6055-0.74609 7.6758 0.75391 11.465l22.926 57.984c-0.11719 0.15234-0.28125 0.25-0.39062 0.41797-0.26172 0.43359-25.805 43.555 18.457 74.082 13.148 9.0664 26.609 13.629 40.152 13.629 3.7344 0 7.4688-0.34766 11.207-1.0391 31.949-5.9297 52.207-35.078 53.258-36.633 0.14453-0.25 14.824-25.051 39.816-28.387 16.441-2.1758 33.961 5.4727 52.055 22.562l-11.57 31.062c-3.2148 8.6328 1.1914 18.27 9.8242 21.488l74.805 27.863c1.9219 0.71094 3.8828 1.0508 5.8164 1.0508 6.7852 0 13.172-4.1562 15.676-10.879l56.602-151.96c1.5625-4.1836 1.3945-8.7188-0.46094-12.781-1.8398-4.0664-5.1602-7.1641-9.3438-8.7266zm-156.79 31.18c-1.2891 1.4727-3.082 2.3594-5.043 2.4883l-22.016 1.4688c-1.957 0.1875-3.8516-0.51172-5.3242-1.8008-1.4805-1.2891-2.3594-3.082-2.4922-5.0391l-6.5273-97.957c-0.26562-4.0391 2.8008-7.5508 6.8398-7.8164l22.02-1.4648c0.16797-0.015625 0.33203-0.019531 0.5-0.019531 1.7773 0 3.4766 0.64062 4.8242 1.8164 1.4805 1.2891 2.3594 3.0859 2.4922 5.0391l6.5273 97.957c0.12891 1.9648-0.51172 3.8555-1.8008 5.3281zm17.449-12.598-5.8438 0.39063-5.2852-79.262 5.8438-0.39062c1.2656-0.28516 3.457 2.0898 3.7031 5.7188l4.4922 67.379c0.23828 3.6289-1.5625 6.0781-2.9102 6.1641zm-218.61-52.023c0.77734-1.8086 2.2188-3.1914 4.0391-3.918l20.52-8.1133c0.875-0.34375 1.793-0.52344 2.7031-0.52344 0.98828 0 1.9805 0.20312 2.918 0.60937 1.8008 0.77734 3.1914 2.2188 3.9102 4.043l36.102 91.289c0.72266 1.8164 0.6875 3.8203-0.09375 5.6211-0.77734 1.8008-2.2109 3.1914-4.0391 3.9102l-20.52 8.1133c-1.8281 0.71875-3.8281 0.6875-5.6211-0.09375-1.8008-0.77734-3.1914-2.2188-3.9102-4.0391l-36.102-91.289c-0.72266-1.8164-0.68359-3.8086 0.09375-5.6094zm-11.762 25.008c0.12109-0.44531 0.5-1.5156 1.3047-1.832l5.4414-2.1562 29.215 73.875-5.4414 2.1562c-1.2891 0.46484-3.9375-0.94531-5.2734-4.3281l-24.836-62.797c-0.66406-1.6875-0.8125-3.4844-0.41016-4.918zm369.94 26.355-56.602 151.96c-1.25 3.3398-4.9805 5.0469-8.3203 3.8008l-74.805-27.863c-3.3438-1.2461-5.0469-4.9766-3.8047-8.3203l12.719-34.152c0.003906-0.011719 0.003906-0.015625 0.011719-0.027344l43.875-117.79c0.96875-2.6055 3.4453-4.2148 6.0742-4.2148 0.74609 0 1.5117 0.12891 2.2461 0.41016l74.805 27.863c1.6172 0.59766 2.9062 1.8008 3.625 3.3672 0.71875 1.582 0.78125 3.3398 0.17578 4.957z"/>
  <path d="m408.12 366.9-16.18-6.0273c0.050782-2.3359-0.35937-4.6641-1.3633-6.8516-1.7344-3.8008-4.8555-6.7031-8.7695-8.1602-6.3906-2.3672-13.332-0.24219-17.469 4.7344l-17.797-6.6289c-2.6562-0.96094-5.5977 0.35938-6.5859 3.0156-0.98828 2.6523 0.35937 5.5977 3.0117 6.5859l17.781 6.625c-0.050781 2.3359 0.35938 4.6641 1.3555 6.8516 1.7422 3.8008 4.8555 6.7031 8.7695 8.1602 1.7812 0.66016 3.625 0.98828 5.4727 0.98828 2.2188 0 4.4219-0.47656 6.5039-1.4219 2.1875-1 4.0234-2.4922 5.5078-4.2969l16.18 6.0273c0.58984 0.21484 1.1914 0.31641 1.7852 0.31641 2.0742 0 4.0312-1.2695 4.7969-3.3281 1-2.6484-0.34766-5.5977-3-6.5898zm-26.699-4.4844c-0.50781 1.3633-1.5039 2.4375-2.8203 3.043-1.3125 0.59375-2.7852 0.64844-4.1367 0.14453-1.3555-0.50781-2.4336-1.5039-3.0352-2.8203-0.59766-1.3164-0.65625-2.7852-0.14844-4.1406 0.8125-2.1758 2.8828-3.5234 5.0781-3.5234 0.625 0 1.2656 0.10937 1.8828 0.33984 1.3555 0.50781 2.4336 1.5039 3.0312 2.8203s0.65234 2.7891 0.14844 4.1367z"/>
  <path d="m367.83 383.22c-11.719-4.3555-24.812 1.6172-29.18 13.336v0.003906c-4.3672 11.715 1.6172 24.805 13.336 29.18 2.6016 0.96094 5.2695 1.4219 7.8945 1.4219 9.207 0 17.891-5.6523 21.285-14.77 2.1133-5.6797 1.8945-11.836-0.625-17.355-2.5195-5.5039-7.0352-9.7031-12.711-11.816zm3.7461 25.609c-2.3945 6.4297-9.5781 9.707-16.004 7.3203-6.4297-2.4023-9.7109-9.5781-7.3203-16.012 2.3945-6.4375 9.5898-9.7266 16.004-7.3203 3.1172 1.1641 5.5977 3.4609 6.9727 6.4883 1.3828 3.0195 1.5039 6.3984 0.34766 9.5234z"/>
  <path d="m428.09 299.51-51.07-19.02c-2.6523-0.96094-5.6016 0.35938-6.5859 3.0156-0.98828 2.6523 0.35938 5.5977 3.0117 6.5859l51.07 19.02c0.58984 0.21484 1.1914 0.31641 1.7852 0.31641 2.0781 0 4.0312-1.2695 4.7969-3.332 0.99219-2.6484-0.35937-5.5977-3.0078-6.5859z"/>
  <path d="m427.1 318.18-61.539-22.922c-2.6562-0.96094-5.5977 0.35156-6.5859 3.0156-0.98828 2.6523 0.35938 5.5977 3.0117 6.5859l61.539 22.922c0.58984 0.21484 1.1914 0.31641 1.7852 0.31641 2.0781 0 4.0312-1.2695 4.7969-3.332 0.98828-2.6523-0.35547-5.5977-3.0078-6.5859z"/>
  <path d="m416.69 333.76-53.449-19.906c-2.6484-0.96875-5.5977 0.35156-6.5859 3.0156-0.98828 2.6523 0.35938 5.5977 3.0117 6.5859l53.449 19.906c0.58984 0.21484 1.1914 0.31641 1.7852 0.31641 2.0781 0 4.0312-1.2695 4.7969-3.332 0.98828-2.6523-0.35547-5.5977-3.0078-6.5859z"/>
 </g>
</svg>
