<?xml version="1.0" encoding="UTF-8"?>
<svg width="512pt" height="512pt" version="1.1" viewBox="0 0 512 512" xmlns="http://www.w3.org/2000/svg">
 <path d="m284.67 155.65c0-31.23-25.09-56.32-56.32-56.32-31.23 0-56.32 25.09-56.32 56.32 0 31.23 25.09 56.32 56.32 56.32 31.234 0 56.32-25.09 56.32-56.32m120.32-72.703c-1.5352-22.527-11.266-48.641-34.305-56.32-3.5859-0.51172-4.0977-5.1211-1.0234-6.1445 5.6328-1.0234 15.359 7.168 18.434 11.266 12.797 13.82 17.406 32.766 16.895 51.199m13.824-30.211c-3.5859-26.621-28.16-47.102-54.785-47.613-25.09-0.51172-49.664 16.383-56.32 40.961-6.6562 25.602 2.5586 52.223 15.359 74.754 7.6797 12.289 20.48 31.23 35.84 33.793-0.51172 2.5586-2.0469 4.6094-3.0703 7.168-0.51172 1.0234 0 1.5352 1.0234 1.0234h2.0469c0 1.0234 0.51172 2.0469 0.51172 3.0703 2.0469 7.6797 3.5859 15.359-9.7266 51.199-10.238 27.648-8.7031 45.566-4.6094 61.441l-26.113-29.695c-11.266-12.289-31.23-21.504-48.129-21.504l-78.844-0.003906c-5.1211 0-14.336-4.0977-17.922-8.1914l-48.129-56.32c-7.168-8.1914-19.457-9.2148-28.16-2.0469-8.1914 7.168-9.2148 19.969-2.0469 28.16l48.129 56.32c6.6562 7.6797 16.383 13.824 27.137 17.922l-29.184 103.94c-1.5352 6.1445-0.51172 12.289 3.0703 17.406 3.5859 5.1211 9.7266 7.6797 15.871 7.6797h22.527l-15.359 91.137c-2.0469 10.754 5.6328 20.992 16.383 23.039 1.0234 0 2.0469 0.51172 3.5859 0.51172 9.7266 0 17.922-6.6562 19.457-16.383l16.895-97.793h11.777l16.895 97.793c1.5352 9.7266 10.238 16.383 19.457 16.383 1.0234 0 2.0469 0 3.5859-0.51172 10.754-2.0469 17.922-12.289 16.383-23.039l-15.359-91.137h22.527c6.1445 0 12.289-3.0703 15.871-7.6797 3.5859-5.1211 5.1211-11.266 3.0703-17.406l-25.09-88.062 45.566 51.711c4.0977 4.6094 9.2148 6.6562 14.848 6.6562 4.6094 0 9.2148-1.5352 13.312-5.1211 8.1914-7.168 8.7031-19.969 1.5352-28.16l-9.7266-10.754c-7.6797-20.48-14.336-37.887-1.5352-73.215 13.824-38.398 11.777-47.105 9.7266-55.809v-0.51172h0.51172c1.5352 0 2.0469 0 1.5352-1.5352-1.0234-2.5586-2.5586-4.6094-3.0703-7.168 10.754-2.0469 18.434-10.238 25.09-17.922 18.949-23.555 32.262-53.762 27.652-84.484"/>
</svg>
