<?xml version="1.0" encoding="UTF-8"?>
<svg width="512pt" height="512pt" version="1.1" viewBox="0 0 512 512" xmlns="http://www.w3.org/2000/svg">
 <g>
  <path d="m256 213.5-10.238-10.75c-21.504-21.504-58.367-17.406-73.727 12.289-9.2148 17.922-4.0977 39.426 10.238 53.762l68.098 68.098c3.0703 3.0703 8.7031 3.0703 11.777 0l69.633-69.121c21.504-21.504 17.406-58.367-12.289-73.727-17.922-9.2148-39.426-4.0977-53.762 10.238z"/>
  <path d="m155.14 71.168c-1.5352 8.7031-3.5859 19.969-5.6328 30.207h2.0469c6.6562 0 12.801 2.0469 18.945 5.6328 3.0703 2.0469 5.6328 4.0977 8.1914 6.6562l100.35-1.0234c-1.0234-3.5859-1.5352-7.168-1.5352-10.754v-45.566c0-6.1445 1.0234-11.777 2.5586-16.895l-137.21-1.5391c9.2148 7.6797 14.336 19.969 12.289 33.281z"/>
  <path d="m316.41 124.41c15.359 13.824 51.711 35.84 51.711 35.84 5.1211 3.5859 12.801 2.0469 16.383-3.5859 3.0703-5.1211 1.5352-10.754-3.5859-15.871-5.1211-5.1211-15.871-13.824-15.871-13.824-4.6094-4.6094-1.5352-8.7031 3.0703-8.7031 8.7031 0.51172 13.824 1.0234 23.551 2.0469 9.7266 1.0234 54.273 9.2148 54.273 9.2148 5.6328 1.0234 10.754-2.5586 11.777-8.1914 1.0234-5.6328-2.5586-10.754-8.1914-11.777l-55.293-9.2109c-1.5352-0.51172-2.5586-1.5352-2.5586-3.0703v-1.0234c0-2.0469 1.5352-3.5859 3.5859-3.5859l66.559 4.0977c5.6328 0.51172 10.754-4.0977 10.754-9.7266 0-5.6328-4.0977-10.754-9.7266-10.754l-69.633-4.6094c-1.5352 0-3.0703-1.5352-3.0703-3.0703s1.0234-3.0703 3.0703-3.5859l59.902-2.5586c5.6328-0.51172 10.238-5.1211 9.7266-10.754 0-5.6328-5.1211-10.238-10.754-9.7266l-59.391 3.582c-1.5352 0-3.0703-1.5352-3.0703-3.0703s1.0234-3.0703 2.5586-3.0703l46.078-5.6328c5.6328-0.51172 9.7266-5.6328 9.2148-11.266-0.51172-5.6328-5.6328-9.7266-11.266-9.2148 0 0-63.488 8.1914-87.039 11.266-23.039 3.0703-46.078 8.7031-46.078 31.742v45.566c-0.50781 8.1914 6.6602 16.387 13.312 22.527z"/>
  <path d="m440.83 155.14c-8.7031-1.5352-19.969-3.5859-30.207-5.1211 0.51172 7.6797-2.0469 14.848-5.1211 20.48-2.0469 3.0703-4.0977 5.6328-7.168 8.1914l1.0234 100.35c3.5859-1.0234 7.168-1.5352 10.754-1.5352h45.566c6.1445 0 11.777 1.0234 16.895 2.5586l1.0234-137.21c-6.6562 7.6797-16.383 12.289-27.137 12.289-1.5312 0.51172-3.582 0-5.6289 0z"/>
  <path d="m487.94 348.67c-3.0703-23.039-8.7031-46.078-31.742-46.078h-45.566c-8.7031 0-16.383 7.168-22.527 13.824-13.824 15.359-35.84 51.711-35.84 51.711-3.5859 5.1211-2.0469 12.801 3.5859 16.383 5.1211 3.0703 10.754 1.5352 15.871-3.5859 5.1211-5.1211 13.824-15.871 13.824-15.871 4.6094-4.6094 8.7031-1.5352 8.7031 3.0703-0.51172 8.7031-1.0234 13.824-2.0469 23.551-2.5664 9.2188-10.758 53.766-10.758 53.766-1.0234 5.6328 2.5586 10.754 8.1914 11.777 5.6328 1.0234 10.754-2.5586 11.777-8.1914l10.238-54.789c0-1.5352 1.5352-2.5586 3.0703-2.5586h1.0234c2.0469 0 3.5859 1.5352 3.0703 3.5859l-4.0977 66.559c-0.51172 5.6328 4.0977 10.754 9.7266 10.754 5.6328 0 10.754-4.0977 10.754-9.7266l4.6094-69.633c0-1.5352 1.5352-3.0703 3.0703-3.0703s3.0703 1.5352 3.5859 3.0703l2.5586 59.902c0 5.6328 5.1211 10.238 10.754 9.7266 5.6328-0.51172 10.238-5.1211 9.7266-10.754l-2.5586-59.902c0-1.5352 1.5352-3.0703 3.0703-3.0703 1.5352 0 3.0703 1.0234 3.0703 2.5586l5.6328 46.078c0.51172 5.6328 5.6328 9.7266 11.266 9.2148 5.6328-0.51172 9.7266-5.6328 9.2148-11.266 0.003907 0.003907-8.1875-63.484-11.258-87.035z"/>
  <path d="m71.168 356.86c8.7031 1.5352 19.969 3.5859 30.207 5.6328-0.51172-7.6797 2.0469-14.848 5.1211-20.992 2.0469-3.0703 4.0977-5.6328 7.168-8.1914l-1.0234-100.35c-3.5859 1.0234-7.168 1.5352-10.754 1.5352h-45.566c-6.1445 0-11.777-1.0234-16.895-2.5586l-1.5391 137.21c6.6562-7.6797 16.383-12.801 27.137-12.801 1.5352 0 4.0977 0.51172 6.1445 0.51172z"/>
  <path d="m101.89 209.41c8.7031 0 16.383-7.168 22.527-13.824 13.824-15.359 35.84-51.711 35.84-51.711 3.5859-5.1211 2.0469-12.801-3.5859-16.383-5.1211-3.0703-10.754-1.5352-15.871 3.5859-5.1211 5.1211-13.824 15.871-13.824 15.871-4.6094 4.6094-8.7031 1.5352-8.7031-3.0703 0.51172-8.7031 1.0234-13.824 2.0469-23.551 1.0234-9.7266 9.2148-54.273 9.2148-54.273 1.0234-5.6328-2.5586-10.754-8.1914-11.777-5.6328-1.0234-10.754 2.5586-11.777 8.1914l-9.2109 55.297c0 1.5352-1.5352 2.5586-3.0703 2.5586h-1.0234c-2.0469 0-3.5859-1.5352-3.0703-3.5859l4.0977-66.559c0.51172-5.6328-4.0977-10.754-9.7266-10.754-5.6328 0-10.754 4.0977-10.754 9.7266l-4.6094 69.633c0 1.5352-1.5352 3.0703-3.0703 3.0703s-3.0703-1.0234-3.5859-3.0703l-2.5586-59.902c0-5.6328-5.1211-10.238-10.754-9.7266-5.6328 0-10.238 5.1211-9.7266 10.754l2.5586 59.902c0 1.5352-1.5352 3.0703-3.0703 3.0703-1.5352 0-3.0703-1.0234-3.0703-3.0703l-5.6328-46.078c-0.51172-5.6328-5.6328-9.7266-11.266-9.2148-5.6328 0.51172-9.7266 5.6328-9.2148 11.266 0 0 8.1914 63.488 11.266 87.039 3.0703 23.039 8.7031 46.078 31.742 46.078 17.914 0.50781 28.156 0.50781 46.074 0.50781z"/>
  <path d="m356.86 440.83c1.5352-8.7031 3.5859-19.969 5.6328-30.207h-2.0469c-6.6562 0-12.801-2.0469-18.945-5.6328-3.0703-2.0469-5.6328-4.0977-8.1914-7.168l-100.35 1.5352c1.0234 3.5859 1.5352 7.168 1.5352 10.754v45.566c0 6.1445-1.0234 11.777-2.5586 16.895l137.21 1.5352c-2.5586-2.0469-4.6094-4.0977-6.1445-6.6562-5.6328-7.6758-7.6797-16.895-6.1445-26.621z"/>
  <path d="m195.59 387.59c-15.359-13.824-51.711-35.84-51.711-35.84-5.1211-3.5859-12.801-2.0469-16.383 3.5859-3.0703 5.1211-1.5352 10.754 3.5859 15.871 5.1211 5.1211 15.871 13.824 15.871 13.824 4.6094 4.6094 1.5352 8.7031-3.0703 8.7031-8.7031-0.51172-13.824-1.0234-23.551-2.0469-9.2227-2.0508-53.77-10.242-53.77-10.242-5.6328-1.0234-10.754 2.5586-11.777 8.1914-1.0234 5.6328 2.5586 10.754 8.1914 11.777l54.789 10.238c1.5352 0.51172 2.5586 1.5352 2.5586 3.0703v1.0234c0 2.0469-1.5352 3.5859-3.5859 3.0703l-66.559-4.0938c-5.6328-0.51172-10.754 4.0977-10.754 9.7266 0 5.6328 4.0977 10.754 9.7266 10.754l69.633 4.6094c1.5352 0 3.0703 1.5352 3.0703 3.0703s-1.0234 3.0703-3.0703 3.5859l-59.902 2.5586c-5.6328 0-10.238 5.1211-9.7266 10.754 0 5.6328 5.1211 10.238 10.754 9.7266l59.902-2.5586c1.5352 0 3.0703 1.5352 3.0703 3.0703s-1.0234 3.0703-2.5586 3.0703l-46.078 5.6328c-5.6328 0.51172-9.7266 5.6328-9.2148 11.266 0.51172 5.6328 5.6328 9.7266 11.266 9.2148 0 0 63.488-8.1914 87.039-11.266 23.039-3.0703 46.078-8.7031 46.078-31.742v-45.566c-0.003906-8.7031-7.1719-16.898-13.824-23.039z"/>
 </g>
</svg>
