<?xml version="1.0" encoding="UTF-8"?>
<svg width="512pt" height="512pt" version="1.1" viewBox="0 0 512 512" xmlns="http://www.w3.org/2000/svg">
 <path d="m371.85 140.15c-63.883-63.883-167.82-63.883-231.7 0-63.883 63.883-63.883 167.82 0 231.7 31.938 31.938 73.898 47.906 115.85 47.906s83.91-15.969 115.85-47.906c63.879-63.879 63.879-167.82-0.003907-231.7zm-71.973 57.492c-18.453-22.453-27.168-51.969-24.68-83.492 26.879 3.6055 52.863 14.797 74.562 33.609zm-14.484 14.484-29.395 29.395-93.762-93.762c26.523-22.988 59.457-34.715 92.555-34.988-2.9102 37.477 7.9297 72.672 30.602 99.355zm-43.875 43.875-29.395 29.395c-26.691-22.668-61.879-33.496-99.359-30.598 0.27734-33.094 11.996-66.039 34.988-92.559zm-29.398 58.359c18.453 22.453 27.168 51.969 24.68 83.492-26.879-3.6133-52.863-14.797-74.562-33.609zm14.484-14.484 29.395-29.395 93.762 93.762c-26.523 22.988-59.457 34.707-92.555 34.984 2.9102-37.473-7.9297-72.668-30.602-99.352zm43.875-43.875 29.312-29.312c23.848 20.262 54.504 31.188 87.52 31.188 3.9414 0 7.9141-0.16406 11.91-0.47656-0.31641 33.035-12.031 65.895-34.98 92.363zm127.38-19.191c-31.527 2.5156-61.047-6.2266-83.496-24.688l49.883-49.883c18.816 21.699 30.008 47.688 33.613 74.57zm-283.7 38.391c31.539-2.4844 61.051 6.2266 83.492 24.68l-49.883 49.883c-18.82-21.691-30.008-47.684-33.609-74.562z"/>
</svg>
