<?xml version="1.0" encoding="UTF-8"?>
<svg width="512pt" height="512pt" version="1.1" viewBox="0 0 512 512" xmlns="http://www.w3.org/2000/svg">
 <g>
  <path d="m437.33 202.03h-362.13c-4.4219 0.03125-8.4023-2.668-10.012-6.7852-1.6094-4.1172-0.51172-8.8008 2.7578-11.777l181.33-164.48 0.003906 0.003906c4.0742-3.7305 10.324-3.7305 14.398 0l181.33 164.48v-0.003906c3.2578 2.9648 4.3633 7.625 2.7734 11.734-1.6484 4.2891-5.8594 7.043-10.453 6.8281zm-334.19-21.332 306.24-0.003906-153.39-139.41z"/>
  <path d="m389.97 394.67c-5.8906 0-10.664-4.7773-10.664-10.668v-162.24c0-5.8945 4.7734-10.668 10.664-10.668s10.668 4.7734 10.668 10.668v162.24c0 2.8281-1.125 5.543-3.125 7.543s-4.7148 3.125-7.543 3.125z"/>
  <path d="m122.13 394.67c-5.8906 0-10.668-4.7773-10.668-10.668v-162.24c0-5.8945 4.7773-10.668 10.668-10.668 5.8906 0 10.668 4.7734 10.668 10.668v162.24c0 2.8281-1.125 5.543-3.125 7.543s-4.7148 3.125-7.543 3.125z"/>
  <path d="m439.04 451.09h-366.08c-5.8906 0-10.668-4.7773-10.668-10.668 0.027343-17.812 7.1172-34.891 19.715-47.484 12.594-12.598 29.672-19.688 47.484-19.715h253.02c17.812 0.027344 34.891 7.1172 47.484 19.715 12.598 12.594 19.688 29.672 19.715 47.484 0 2.8281-1.125 5.543-3.125 7.543s-4.7148 3.125-7.543 3.125zm-353.71-21.332h341.34c-2.418-9.9258-8.0703-18.762-16.066-25.117-7.9961-6.3555-17.883-9.8633-28.094-9.9766h-253.02c-10.211 0.11328-20.098 3.6211-28.094 9.9766-7.9961 6.3555-13.648 15.191-16.066 25.117z"/>
  <path d="m485.33 495.79h-458.66c-5.8906 0-10.668-4.7734-10.668-10.664s4.7773-10.668 10.668-10.668h458.67-0.003907c5.8906 0 10.668 4.7773 10.668 10.668s-4.7773 10.664-10.668 10.664z"/>
  <path d="m256 298.67c-28.691 0-51.199-15.895-51.199-36.375s22.508-36.375 51.199-36.375c26.559 0 48 13.547 50.988 32v0.003906c0.91016 5.8906-3.125 11.406-9.0156 12.316-5.8906 0.91406-11.406-3.1211-12.32-9.0117-1.0664-6.6133-13.547-14.078-29.867-14.078-16.32 0-29.867 8.1055-29.867 15.039 0.003906 6.9336 13.23 15.145 30.082 15.145 5.8906 0 10.668 4.7773 10.668 10.668s-4.7773 10.668-10.668 10.668z"/>
  <path d="m256 349.76c-26.453 0-47.895-13.547-50.879-32-0.94531-5.8945 3.0664-11.434 8.957-12.375 5.8945-0.94141 11.434 3.0703 12.375 8.9609 1.0664 6.7188 13.547 14.188 29.762 14.188s29.973-8.1055 29.973-15.148c0-7.0391-13.336-14.719-30.188-14.719-5.8906 0-10.668-4.7773-10.668-10.668s4.7773-10.668 10.668-10.668c28.801 0 51.309 16 51.309 36.375 0 20.371-22.508 36.055-51.309 36.055z"/>
  <path d="m256 369.81c-5.8906 0-10.668-4.7734-10.668-10.664v-143.04c0-5.8906 4.7773-10.664 10.668-10.664s10.668 4.7734 10.668 10.664v143.04c0 2.8281-1.125 5.5391-3.125 7.5391-2 2.0039-4.7148 3.125-7.543 3.125z"/>
 </g>
</svg>
