<?xml version="1.0" encoding="UTF-8"?>
<svg width="1200pt" height="1200pt" version="1.1" viewBox="0 0 1200 1200" xmlns="http://www.w3.org/2000/svg">
 <g>
  <path d="m1159.2 270c-9.6016-12-22.801-18-37.199-18h-810l-26.398-134.4c-4.8008-22.801-24-38.398-48-38.398l-159.6-0.003906c-26.398 0-48 21.602-48 48 0 26.398 21.602 48 48 48h118.8l128.4 643.2c4.8008 22.801 24 38.398 48 38.398h637.2c22.801 0 42-15.602 46.801-38.398l110.4-508.8c4.8008-13.199 1.2031-27.598-8.3984-39.598zm-187.2 490.8h-559.2l-81.602-411.6h730.8z"/>
  <path d="m589.2 1024.8c0 53.68-43.516 97.199-97.199 97.199s-97.199-43.52-97.199-97.199c0-53.684 43.516-97.199 97.199-97.199s97.199 43.516 97.199 97.199"/>
  <path d="m984 1024.8c0 53.68-43.52 97.199-97.199 97.199-53.684 0-97.199-43.52-97.199-97.199 0-53.684 43.516-97.199 97.199-97.199 53.68 0 97.199 43.516 97.199 97.199"/>
 </g>
</svg>
