<?xml version="1.0" encoding="UTF-8"?>
<svg width="512pt" height="512pt" version="1.1" viewBox="0 0 512 512" xmlns="http://www.w3.org/2000/svg">
 <g>
  <path d="m164.34 412.69c31.074 0 56.352-25.281 56.352-56.352 0-31.066-25.277-56.352-56.352-56.352-31.074 0-56.355 25.281-56.355 56.352 0 31.07 25.277 56.352 56.355 56.352zm0-97.34c22.605 0 40.992 18.391 40.992 40.992s-18.387 40.992-40.992 40.992c-22.605 0-40.996-18.391-40.996-40.992 0.003906-22.602 18.395-40.992 40.996-40.992z"/>
  <path d="m346.81 299.99c-31.066 0-56.352 25.281-56.352 56.352 0 31.066 25.281 56.352 56.352 56.352 31.074 0 56.355-25.281 56.355-56.352s-25.277-56.352-56.355-56.352zm0 97.34c-22.602 0-40.992-18.391-40.992-40.992 0-22.602 18.391-40.992 40.992-40.992 22.605 0 40.996 18.391 40.996 40.992 0 22.602-18.391 40.992-40.996 40.992z"/>
  <path d="m293.28 446.61c-3.7461-2.5508-7.332-5.375-10.656-8.3984-8.125-7.3516-14.965-15.984-20.336-25.672-1.3516-2.4414-3.9219-3.9531-6.7109-3.9531-2.7891 0-5.3594 1.5156-6.7188 3.9531-5.3828 9.7031-12.227 18.336-20.348 25.684-3.3125 3.0117-6.8984 5.8359-10.648 8.3867-2.8125 1.9141-4.0312 5.4492-2.9883 8.6875l8.7227 27.258c1.043 3.2656 4.0586 5.3398 7.3125 5.3398 0.77344 0 1.5664-0.11328 2.3438-0.36328 4.0391-1.2969 6.2656-5.6172 4.9766-9.6562l-7.0234-21.945c2.6523-2.0117 5.2031-4.125 7.6289-6.3281 6.2617-5.6562 11.859-11.992 16.742-18.902 4.875 6.9062 10.477 13.23 16.73 18.895 2.4375 2.2109 4.9922 4.332 7.6406 6.3398l-7.0195 21.945c-1.2891 4.0391 0.9375 8.3672 4.9766 9.6562 4.0508 1.3047 8.3594-0.9375 9.6562-4.9766l8.7188-27.258c1.0312-3.2461-0.18359-6.7773-3-8.6914z"/>
  <path d="m459.1 364.86c0-33.324-7.9648-62.832-8.9336-66.305-2.4766-11.875-10.148-18.953-20.559-18.953-12.078 0-20.418 8.2578-20.758 20.562-0.097656 3.4453 0.59375 7.832 1.5547 13.91 1.8398 11.664 4.6172 29.293 2.832 50.129-2.3594 27.41-26.441 56.555-66.43 56.555-41.141 0-63.594-37.125-66.477-57-1.9336-13.359-3.5234-35.051-3.7031-37.535-0.16797-11.289-9.5469-20.422-21.055-20.422-11.504 0-20.879 9.1328-21.047 20.422-0.17969 2.5-1.7773 24.184-3.707 37.535-2.8828 19.875-25.344 57-66.477 57-39.98 0-64.066-29.137-66.426-56.562-1.7812-20.699 1.0508-38.66 2.9219-50.551 1.0078-6.4141 1.6797-10.648 1.4453-13.844-0.85156-11.52-9.7656-20.203-20.742-20.203-10.312 0-17.812 6.9414-20.547 18.93-0.36328 1.4727-8.9453 36.551-8.9453 66.328 0 31.434 15.422 65.219 39.289 86.086 1.9922 1.7344 4.0391 3.4062 6.1289 4.9883l-7.0234 21.945c-1.2891 4.0391 0.9375 8.3594 4.9766 9.6562 4.0352 1.2969 8.3594-0.9375 9.6562-4.9766l8.7227-27.258c1.0391-3.2422-0.18359-6.7773-3-8.6953-3.2109-2.1797-6.3633-4.6133-9.3594-7.2227-20.676-18.074-34.031-47.324-34.031-74.523 0-27.883 8.4141-62.305 8.5312-62.781 1.6289-7.1211 4.4141-7.1211 5.6016-7.1211 3.4219 0 5.2109 3.0938 5.4219 5.9805 0.10938 1.4219-0.64062 6.1484-1.2969 10.32-1.9922 12.621-4.9961 31.691-3.0547 54.262 2.9492 34.227 32.598 70.602 81.73 70.602 46.66 0 77.414-40.746 81.68-70.16 2.125-14.68 3.7773-37.902 3.8438-38.891 0.011718-0.17969 0.019531-0.35937 0.019531-0.53906 0-2.8633 2.6641-5.3711 5.6875-5.3711 3.0352 0 5.6953 2.5078 5.6953 5.3711 0 0.17969 0.003907 0.35938 0.019531 0.53906 0.070313 0.97656 1.7148 24.211 3.8398 38.891 4.2656 29.414 35.02 70.16 81.68 70.16 49.141 0 78.793-36.371 81.73-70.602 1.957-22.707-1-41.445-2.9609-53.848-0.76172-4.8633-1.4297-9.0664-1.3789-11.094 0.10938-3.9414 1.7266-5.6211 5.4062-5.6211 1.3555 0 4.1719 0 5.5586 6.9219 0.039063 0.19922 0.09375 0.40625 0.14453 0.59766 0.085937 0.29688 8.4258 29.887 8.4258 62.383 0 29.707-11.449 54.773-34.031 74.516-2.9766 2.6055-6.125 5.0312-9.3594 7.2305-2.8164 1.9141-4.0352 5.4531-3 8.6953l8.7227 27.258c1.043 3.2656 4.0664 5.3398 7.3164 5.3398 0.77344 0 1.5664-0.11328 2.3398-0.36328 4.0391-1.2969 6.2656-5.6172 4.9766-9.6562l-7.0234-21.938c2.0977-1.5977 4.1562-3.2656 6.1406-5.0039 25.699-22.461 39.285-52.234 39.285-86.074z"/>
  <path d="m255.57 297.03c72.562 0 131.59-59.027 131.59-131.59 0-72.559-59.031-131.59-131.59-131.59-72.551 0-131.58 59.027-131.58 131.59s59.027 131.59 131.58 131.59zm-80.953-73.426c1.4609 1.8008 3.6523 2.8477 5.9648 2.8477h31.801c6.7578 0 12.262 5.5 12.262 12.262 0 6.7617-5.5 12.266-12.262 12.266h-35.398c-15.023-13.809-26.402-31.508-32.539-51.492h14.297c8.0859 0 14.66 6.5703 14.66 14.648 0 0.98438-0.10938 2.0117-0.32812 3.043-0.48438 2.2617 0.085937 4.6289 1.543 6.4258zm196.74-67.938h-34.52c-3.082 0-5.8672 1.8398-7.0703 4.6758s-0.59375 6.1172 1.543 8.3359c2.2617 2.3438 3.5117 5.4062 3.5117 8.6133 0 4.4648-2.3711 8.4844-6.3438 10.746-2.3906 1.3672-3.8711 3.9023-3.8828 6.6523-0.011718 2.75 1.4492 5.293 3.8281 6.6719 4.0039 2.3203 6.3945 6.293 6.3945 10.633 0 6.75-5.8633 12.453-12.801 12.453h-21.109c-6.8594 0-12.441-5.5859-12.441-12.453 0-3.4102 1.3867-6.6055 3.918-8.9961 2.2773-2.1641 3.0156-5.5 1.8477-8.4219s-3.9883-4.832-7.1367-4.832h-15.242c-6.8594 0-12.445-5.5859-12.445-12.453 0-6.8594 5.5859-12.441 12.445-12.441h38.777c3.1289 0 5.9453-1.8945 7.1211-4.7969 1.1758-2.9023 0.47266-6.2227-1.7773-8.4023-2.7891-2.7031-4.3281-6.3086-4.3281-10.152 0-4.4805 2.1094-8.6133 5.7969-11.34 2.6641-1.9766 3.7539-5.4336 2.7188-8.582-1.0391-3.1445-3.9766-5.2695-7.2969-5.2695h-22.891c-7.8125 0-14.172-6.3555-14.172-14.172 0-7.8164 6.3555-14.172 14.172-14.172h52.137c16.406 18.305 27.074 41.812 29.246 67.703zm-201.02-53.98c0 6.8672-5.582 12.453-12.445 12.453h-6.5742c3.9219-7.9414 8.7188-15.375 14.273-22.168 2.9023 2.3242 4.7461 5.8672 4.7461 9.7148zm-25.27 27.812h12.824c15.336 0 27.809-12.477 27.809-27.812 0-8.168-3.7109-15.719-9.6367-20.906 20.801-19.555 48.773-31.574 79.512-31.574 26.199 0 50.395 8.7188 69.855 23.398h-35.434c-16.285 0-29.531 13.246-29.531 29.531 0 16.285 13.246 29.531 29.531 29.531h7.9922c-1.1016 3.1016-1.6797 6.4141-1.6797 9.832 0 2.7383 0.36719 5.4258 1.0898 7.9922h-25.527c-15.336 0-27.809 12.473-27.809 27.801 0 15.336 12.473 27.812 27.809 27.812h2.1094c-0.56641 2.2266-0.85938 4.5312-0.85938 6.8906 0 15.336 12.473 27.812 27.801 27.812h21.109c15.523 0 28.16-12.477 28.16-27.812 0-6.3242-2.2695-12.406-6.2344-17.27 3.9609-4.8672 6.2344-11.008 6.2344-17.43 0-2.1289-0.24219-4.2227-0.71875-6.2617h22.195c-2.9297 61.508-53.871 110.64-116.09 110.64-20.941 0-40.59-5.5977-57.578-15.328h14.391c15.23 0 27.621-12.395 27.621-27.629 0-15.23-12.391-27.621-27.621-27.621h-23.781c-1.5312-15.121-14.34-26.961-29.863-26.961h-17.867c-0.98828-6.0859-1.5195-12.324-1.5195-18.688-0.007813-12.547 2.0156-24.621 5.707-35.945z"/>
 </g>
</svg>
