<?xml version="1.0" encoding="UTF-8"?>
<svg width="100pt" height="100pt" version="1.1" viewBox="0 0 100 100" xmlns="http://www.w3.org/2000/svg">
 <path d="m30.316 43.918-8.6914-4.0156c-0.058594-0.027344-0.11719-0.054688-0.17578-0.089844-0.22266-0.13281-0.42188-0.30469-0.57422-0.51562-0.39453-0.52344-0.5-1.2305-0.27734-1.8477 0.066406-0.18359 0.16016-0.35547 0.27734-0.51172 0.15234-0.20703 0.35156-0.38672 0.57422-0.51562 0.058593-0.035156 0.11719-0.058594 0.17578-0.09375l25.582-11.805c0.15625-0.0625 0.19141-0.085938 0.35547-0.125 0.19141-0.046876 0.37109-0.054688 0.5625-0.054688 0.0625 0.003906 0.12891 0.011719 0.19141 0.019531 0.16406 0.03125 0.20703 0.03125 0.36328 0.085938 0.0625 0.023437 0.11719 0.050781 0.17578 0.074219l25.586 11.805 0.027344 0.015625c0.042969 0.023438 0.082031 0.042969 0.125 0.066406 0.007812 0.003906 0.011719 0.007813 0.019531 0.011719 0.22656 0.12891 0.42188 0.30859 0.57812 0.51562 0.11328 0.15625 0.21094 0.32812 0.27734 0.51172l0.015625 0.046875c0.003906 0.011718 0.007813 0.027344 0.011719 0.042968 0.003906 0.015626 0.011718 0.035157 0.015625 0.054688 0.042969 0.15234 0.066406 0.3125 0.070312 0.47266v0.050782 26.07c0.24609 0.085938 0.48828 0.19141 0.72266 0.3125 1.0977 0.55859 2.0039 1.4688 2.5664 2.5625 0.28906 0.56641 0.48438 1.1719 0.58203 1.793 0.089844 0.59766 0.089844 1.2031 0 1.793-0.089844 0.57812-0.26562 1.1406-0.51562 1.668-0.30859 0.63672-0.73438 1.2227-1.2461 1.7109-0.51562 0.49219-1.1211 0.88672-1.7773 1.1641-0.72656 0.30859-1.5117 0.46875-2.2969 0.46875-0.78906 0-1.5742-0.16016-2.3008-0.46875-0.65625-0.27734-1.2578-0.67188-1.7734-1.1641-0.51562-0.48828-0.94141-1.0742-1.25-1.7109-0.25-0.52734-0.42578-1.0898-0.51562-1.668-0.089844-0.58984-0.089844-1.1953 0-1.793 0.097656-0.62109 0.29297-1.2266 0.58203-1.793 0.5625-1.0938 1.4688-2.0039 2.5664-2.5625 0.23438-0.12109 0.47656-0.22656 0.72266-0.3125v-22.996l-5.8789 2.7148c0.089844 4.6797-0.027343 9.3594-0.027343 14.039v0.019532 0.13281c-0.007813 0.25-0.027344 0.50391-0.066407 0.75-0.042969 0.29688-0.11328 0.58594-0.19922 0.87109-0.54687 1.7891-1.8555 3.2266-3.3477 4.3008-1.7109 1.2344-3.6992 2.0664-5.7188 2.6445-1.7695 0.51172-3.5898 0.82813-5.418 0.99219-1.9648 0.17578-3.9531 0.17578-5.9219 0-1.3281-0.12109-2.6484-0.32031-3.9492-0.61328-0.96875-0.21875-1.9258-0.49219-2.8594-0.82422-0.55078-0.19531-1.0938-0.41406-1.6289-0.65625-0.40625-0.18359-0.80469-0.38281-1.1953-0.59766-0.33594-0.17969-0.66406-0.37891-0.98047-0.58594-1.4688-0.95703-2.8086-2.2188-3.5547-3.832-0.3125-0.67578-0.51172-1.4023-0.56641-2.1484-0.011719-0.15625-0.019532-0.31641-0.015626-0.47656-0.125-4.668-0.019531-9.3359-0.003906-14.004zm43.25 23.867c-0.29688 0.011719-0.58203 0.082032-0.84375 0.21484-0.49609 0.25391-0.875 0.72266-1.0156 1.2617-0.058593 0.24219-0.074219 0.49609-0.042969 0.74609 0.023438 0.19141 0.078126 0.37891 0.15625 0.55469 0.097657 0.21484 0.23828 0.41406 0.40234 0.58203 0.17188 0.16797 0.36719 0.30469 0.58594 0.40625 0.23828 0.10547 0.49609 0.16406 0.75781 0.16797 0.26172 0.011719 0.52344-0.035156 0.76953-0.13281 0.21875-0.085938 0.42578-0.21484 0.60156-0.375 0.17578-0.16016 0.32422-0.35156 0.43359-0.5625 0.085937-0.17188 0.14844-0.35547 0.17969-0.54688 0.14844-0.8125-0.24219-1.6445-0.95703-2.0547-0.25391-0.14453-0.53125-0.23047-0.82422-0.25391-0.070312-0.003907-0.13672-0.007813-0.20312-0.007813zm-11.773-22.043-12.938 5.9688c-0.15625 0.0625-0.19141 0.085937-0.35547 0.12891-0.30859 0.074218-0.62891 0.074218-0.9375 0-0.16406-0.042969-0.19922-0.066406-0.35547-0.12891l-12.898-5.9531c0.035156 4.0625-0.054688 8.125-0.054688 12.188v0.003907c0.003906 0.085937 0.007813 0.16797 0.019532 0.25391 0.011718 0.089844 0.027343 0.17578 0.046874 0.25781 0.15625 0.58984 0.51953 1.0977 0.9375 1.5312 0.77344 0.80078 1.7617 1.3984 2.7617 1.875 0.41797 0.19922 0.84766 0.37891 1.2852 0.54297 1.082 0.40625 2.2031 0.70703 3.3359 0.92969 1.4023 0.27734 2.8281 0.43359 4.2539 0.48828 1.6094 0.0625 3.2227-0.003906 4.8203-0.21094 1.3203-0.17188 2.6289-0.4375 3.9062-0.82422 0.47656-0.14453 0.94531-0.30469 1.4102-0.48828 0.33984-0.13281 0.67969-0.27734 1.0156-0.4375 0.97266-0.46484 1.9297-1.043 2.6953-1.8125 0.40625-0.40625 0.76953-0.88281 0.95312-1.4336 0.050782-0.15234 0.085938-0.30859 0.10156-0.46875 0.007813-0.058594 0.007813-0.12109 0.011719-0.18359-0.10938-4.0742-0.042969-8.1484-0.015625-12.227zm-34.648-7.625 20.887 9.6406 20.891-9.6406-20.891-9.6406c-6.9609 3.2148-13.926 6.4258-20.887 9.6406z" fill-rule="evenodd"/>
</svg>
