<?xml version="1.0" encoding="UTF-8"?>
<svg width="512pt" height="512pt" version="1.1" viewBox="0 0 512 512" xmlns="http://www.w3.org/2000/svg">
 <path d="m158.72 30.719c-36.578 0-66.559 29.984-66.559 66.562 0 18.129 7.3164 34.676 19.199 46.719-16.621 3.0586-29.438 17.777-29.438 35.199v143.36c0 19.59 16.25 35.84 35.84 35.84h25.117l-34.559 103.68c-1.582 3.9375-1.4609 8.3555 0.32813 12.203 1.7891 3.8477 5.0898 6.7812 9.1172 8.1094 4.0312 1.3281 8.4297 0.93359 12.156-1.0977 3.7266-2.0273 6.4453-5.5078 7.5195-9.6133l37.758-113.28h90.242l37.438 113.28c1.0703 4.1055 3.793 7.5859 7.5195 9.6133 3.7266 2.0312 8.125 2.4258 12.156 1.0977 4.0273-1.3281 7.3281-4.2617 9.1172-8.1094s1.9102-8.2656 0.32812-12.203l-40.961-124c-1.0352-3.0352-2.9961-5.6719-5.6094-7.5352-2.6094-1.8672-5.7422-2.8672-8.9492-2.8633h-158.72c-3.1055 0-5.1211-2.0156-5.1211-5.1211v-143.36c0-3.1016 2.0156-5.1211 5.1211-5.1211h204.8c3.1055 0 5.1211 2.0195 5.1211 5.1211v143.36c0 2.6172-1.6562 4.4023-3.8398 4.9609-5.3164 1.3711-9.4961 5.4766-10.965 10.766-1.4727 5.2891-0.007812 10.961 3.8398 14.879 3.8438 3.918 9.4883 5.4883 14.805 4.1172 15.504-3.9766 26.879-18.195 26.879-34.723v-6.3984l49.281 25.121c4.7539 2.4492 10.441 2.25 15.012-0.52344 4.5703-2.7773 7.3711-7.7305 7.3867-13.078v-153.6c0.035156-4.4258-1.8438-8.6562-5.1523-11.598-3.3125-2.9414-7.7305-4.3125-12.125-3.7617-1.7891 0.23047-3.5195 0.77344-5.1211 1.6016l-49.281 25.121v-6.2422c0-17.422-12.816-32.141-29.438-35.199 11.883-12.043 19.199-28.59 19.199-46.719 0-36.578-29.98-66.562-66.559-66.562-27.613 0-51.406 17.172-61.441 41.281-10.035-24.109-33.828-41.281-61.441-41.281zm0 30.723c19.977 0 35.84 15.863 35.84 35.84 0 19.973-15.863 35.84-35.84 35.84-19.973 0-35.84-15.867-35.84-35.84 0-19.977 15.867-35.84 35.84-35.84zm122.88 0c19.973 0 35.84 15.863 35.84 35.84 0 19.973-15.867 35.84-35.84 35.84-19.977 0-35.84-15.867-35.84-35.84 0-19.977 15.863-35.84 35.84-35.84zm-61.441 61.117c3.2266 7.7578 7.8477 14.836 13.602 20.801h-27.203c5.7539-5.9648 10.375-13.043 13.602-20.801zm179.2 76.48v103.52l-40.961-20.797v-61.922z"/>
</svg>
