<?xml version="1.0" encoding="UTF-8"?>
<svg width="512pt" height="512pt" version="1.1" viewBox="0 0 512 512" xmlns="http://www.w3.org/2000/svg">
 <g>
  <path d="m419.84 81.922h-327.68c-5.6328 0-10.238 4.6094-10.238 10.238v327.68c0 5.6328 4.6094 10.238 10.238 10.238h327.68c5.6328 0 10.238-4.6094 10.238-10.238v-327.68c0-5.6328-4.6055-10.238-10.238-10.238zm-10.238 20.477v127.49l-48.641-52.734c-3.5859-4.0977-9.7266-4.6094-13.824-1.0234l-110.59 90.109-34.816-37.887c-3.0703-3.0703-7.6797-4.0977-11.777-2.5586l-87.551 41.984v-165.38zm-307.2 187.91 89.602-42.496 148.48 161.79h-238.08zm265.73 119.3-117.25-128 101.89-82.945 57.344 61.441 0.003906 149.5z"/>
  <path d="m243.2 209.92c20.992 0 38.398-17.406 38.398-38.398 0.003906-20.996-17.406-38.402-38.398-38.402-20.992 0-38.398 17.406-38.398 38.398 0 20.992 17.406 38.402 38.398 38.402zm0-56.32c9.7266 0 17.922 8.1914 17.922 17.922 0 9.7227-8.1914 17.918-17.922 17.918-9.7266 0-17.918-8.1953-17.918-17.922 0-9.7266 8.1914-17.918 17.918-17.918z"/>
 </g>
</svg>
