<?xml version="1.0" encoding="UTF-8"?>
<svg width="512pt" height="512pt" version="1.1" viewBox="0 0 512 512" xmlns="http://www.w3.org/2000/svg">
 <defs>
  <clipPath id="a">
   <path d="m94.781 135h322.44v242h-322.44z"/>
  </clipPath>
 </defs>
 <g clip-path="url(#a)">
  <path d="m326.54 175.39h-70.535c-5.5703 0-10.074 4.5156-10.074 10.078v80.609h-110.88v-120.96c0-5.543-4.4961-10.035-10.035-10.035h-20.195c-5.543 0-10.035 4.4922-10.035 10.035v221.76c0 5.543 4.4922 10.035 10.035 10.035h20.195c5.5391 0 10.035-4.4922 10.035-10.035v-60.496h241.91v60.496c0 5.543 4.4961 10.035 10.039 10.035h20.191c5.543 0 10.035-4.4922 10.035-10.035v-100.8c0-50.09-40.598-90.688-90.684-90.688m-136.03 70.535c19.477 0 35.27-15.793 35.27-35.27s-15.793-35.266-35.27-35.266c-19.477 0-35.266 15.789-35.266 35.266s15.789 35.27 35.266 35.27" fill-rule="evenodd"/>
 </g>
</svg>
