<?xml version="1.0" encoding="UTF-8"?>
<svg width="512pt" height="512pt" version="1.1" viewBox="0 0 512 512" xmlns="http://www.w3.org/2000/svg">
 <g>
  <path d="m275.2 60.801h24.535c6.3984 0 10.668-4.2656 10.668-10.668 0-6.3984-4.2656-10.668-10.668-10.668h-24.535c-6.3984 0-10.668 4.2656-10.668 10.668 0.003906 6.4023 4.2695 10.668 10.668 10.668z"/>
  <path d="m339.2 60.801h13.867c6.3984 0 10.668-4.2656 10.668-10.668 0-6.3984-4.2656-10.668-10.668-10.668h-13.867c-6.3984 0-10.668 4.2656-10.668 10.668 0.003906 6.4023 5.3359 10.668 10.668 10.668z"/>
  <path d="m329.6 456.54h-32c-6.3984 0-10.668 4.2656-10.668 10.668 0 6.3984 4.2656 10.668 10.668 10.668h32c6.3984 0 10.668-4.2656 10.668-10.668-0.003906-6.4023-4.2695-10.668-10.668-10.668z"/>
  <path d="m499.2 276.27c8.5352-7.4648 13.867-18.133 13.867-29.867 0-22.398-18.133-40.535-40.535-40.535h-8.5352l0.003906-163.2c0-23.465-19.199-42.668-42.668-42.668h-213.33c-23.465 0-42.668 19.199-42.668 42.668v68.266l-61.867 61.867c-14.934 14.934-33.066 24.535-53.332 29.867-16 4.2656-30.934 10.668-44.801 19.199-4.2656 2.1328-5.332 5.332-5.332 9.5977v197.33c0 4.2656 3.1992 8.5352 7.4648 10.668 8.5352 3.1992 16 5.332 21.332 8.5352 27.734 12.801 57.602 19.199 88.535 19.199h48v2.1328c0 23.465 19.199 42.668 42.668 42.668h213.33c23.465 0 42.668-19.199 42.668-42.668v-3.1992h8.5352c22.398 0 40.535-18.133 40.535-40.535 0-11.734-5.332-22.398-13.867-29.867 8.5352-7.4648 13.867-18.133 13.867-29.867s-5.332-22.398-13.867-29.867c8.5352-7.4648 13.867-18.133 13.867-29.867-0.003906-11.73-6.4023-22.395-13.871-29.863zm-313.6-233.6c0-11.734 9.6016-21.332 21.332-21.332h213.33c11.734 0 21.332 9.6016 21.332 21.332v32h-192c-6.3984-5.332-14.934-7.4648-23.465-7.4648-8.5352 0-17.066 3.1992-23.465 7.4648h-16l-0.003906-32zm190.93 233.6c-11.734 11.734-22.398 41.602 0 59.734l-1.0664 1.0664c-5.332 5.332-9.6016 12.801-10.668 20.266-2.1328 14.934 1.0664 28.801 11.734 38.398v1.0664l-1.0664 1.0664c-5.332 5.332-8.5352 11.734-10.668 19.199l-179.2 0.003906v-212.27l67.199-67.199c11.734-11.734 14.934-27.734 10.668-41.602h178.13v109.87c-18.133 0-35.199 0-45.867 1.0664-7.4648 1.0664-14.934 5.332-20.266 10.668-5.332 5.332-9.6016 12.801-10.668 20.266-3.1992 13.867 0 26.668 11.734 38.398zm-216.54-61.867c1.0664 3.1992 3.1992 6.3984 5.332 8.5352v221.87h-48c-26.668 0-54.398-6.3984-78.934-18.133-5.332-2.1328-10.668-4.2656-17.066-6.3984v-183.47c10.668-6.3984 21.332-10.668 34.133-13.867 23.465-5.332 45.867-18.133 62.934-35.199l94.934-94.934c7.4648-7.4648 20.266-7.4648 27.734 1.0664 6.3984 7.4648 6.3984 20.266-2.1328 27.734l-73.602 73.602c-6.3984 5.332-7.4648 12.797-5.332 19.195zm281.6 254.93c0 11.734-9.6016 21.332-21.332 21.332h-213.33c-11.734 0-21.332-9.6016-21.332-21.332v-32h179.2c5.332 18.133 19.199 27.734 38.398 28.801h1.0664 38.398v3.1992zm29.863-24.531h-67.199c-10.668 0-19.199-8.5352-19.199-19.199 1.0664-12.801 8.5352-18.133 19.199-19.199h67.199c10.668 0 19.199 8.5352 19.199 19.199 0.003907 10.664-8.5312 19.199-19.199 19.199zm0-59.734h-67.199c-10.668 0-19.199-8.5352-19.199-19.199 0-11.734 8.5352-17.066 19.199-19.199h67.199c10.668 0 19.199 8.5352 19.199 19.199 0.003907 10.668-8.5312 19.199-19.199 19.199zm0-59.734h-67.199c-10.668 0-19.199-8.5352-19.199-19.199 1.0664-13.867 9.6016-18.133 19.199-19.199h67.199c10.668 0 19.199 8.5352 19.199 19.199 0.003907 10.668-8.5312 19.199-19.199 19.199zm0-59.73h-67.199c-13.867 0-20.266-10.668-18.133-23.465 2.1328-8.5352 9.6016-14.934 18.133-14.934h67.199c10.668 0 19.199 8.5352 19.199 19.199 0.003907 10.664-8.5312 19.199-19.199 19.199z"/>
 </g>
</svg>
