<?xml version="1.0" encoding="UTF-8"?>
<svg width="512pt" height="512pt" version="1.1" viewBox="0 0 512 512" xmlns="http://www.w3.org/2000/svg">
 <g>
  <path d="m326.14 390.14c-6.6562 0-12.289-5.6328-12.289-12.289v-112.13l-51.199 50.176c-4.6094 4.6094-12.801 4.6094-17.406 0l-51.199-50.176v112.13c0 6.6562-5.6328 12.289-12.289 12.289s-12.289-5.6328-12.289-12.289v-141.82c0-5.1211 3.0703-9.7266 7.6797-11.266 4.6094-2.0469 9.7266-1.0234 13.824 2.5586l64 62.465 62.465-62.973c3.5859-3.5859 9.2148-4.6094 13.824-2.5586 4.6094 2.0469 7.6797 6.6562 7.6797 11.266v141.82c-0.51172 7.6758-6.1445 12.797-12.801 12.797z"/>
  <path d="m398.85 390.14c-6.6562 0-12.289-5.6328-12.289-12.289v-141.82c0-6.6562 5.6328-12.289 12.289-12.289s12.289 5.6328 12.289 12.289v141.82c0 7.168-5.6328 12.289-12.289 12.289z"/>
  <path d="m108.03 390.14c-6.6562 0-12.289-5.6328-12.289-12.289v-141.82c0-6.6562 5.6328-12.289 12.289-12.289s12.289 5.6328 12.289 12.289v141.82c0.51172 7.168-5.1211 12.289-12.289 12.289z"/>
  <path d="m414.21 432.64h-321.54c-6.6562 0-12.289-5.6328-12.289-12.289s5.6328-12.289 12.289-12.289h321.54c6.6562 0 12.289 5.6328 12.289 12.289s-5.6328 12.289-12.289 12.289z"/>
  <path d="m449.54 473.6h-392.19c-6.6562 0-12.289-5.6328-12.289-12.289s5.6328-12.289 12.289-12.289h392.7c6.6562 0 12.289 5.6328 12.289 12.289s-5.6328 12.289-12.801 12.289z"/>
  <path d="m460.29 206.34c-0.51172 0-0.51172 0 0 0h-413.18c-5.6328 0-10.238-3.5859-11.777-8.7031-1.5352-5.1211 0.51172-10.754 5.1211-13.824l205.82-136.19c4.0977-2.5586 9.7266-2.5586 13.824 0l204.29 134.66c4.6094 2.0469 8.1914 6.1445 8.1914 11.777-0.003906 6.6523-5.6328 12.285-12.289 12.285zm-371.71-25.09h329.21l-164.35-108.54z"/>
 </g>
</svg>
