<?xml version="1.0" encoding="UTF-8"?>
<svg width="512pt" height="512pt" version="1.1" viewBox="0 0 512 512" xmlns="http://www.w3.org/2000/svg">
 <path d="m445.3 40.008c0-4.4531-2.0625-8.6523-5.5859-11.379-3.5273-2.7305-8.1094-3.6719-12.426-2.5508l-242.45 62.844c-6.3516 1.6406-10.785 7.3789-10.785 13.938v259.9c-11.105-7.8789-24.656-12.527-39.277-12.527-37.543 0-68.082 30.543-68.082 68.082s30.543 68.07 68.082 68.07c37.531 0 68.07-30.531 68.07-68.07v-219.89l213.66-55.379v189.05c-11.105-7.8789-24.66-12.527-39.281-12.527-37.539 0-68.074 30.543-68.074 68.082 0 37.531 30.543 68.07 68.074 68.07s68.074-30.543 68.074-68.07v-347.65zm-310.52 417.57c-21.66 0-39.281-17.621-39.281-39.277 0-21.66 17.617-39.277 39.281-39.277 21.656 0 39.277 17.613 39.277 39.277-0.003906 21.656-17.625 39.277-39.277 39.277zm68.07-288.91v-54.672l213.66-55.379v54.676zm174.37 258.25c-21.66 0-39.281-17.621-39.281-39.277 0-21.66 17.621-39.289 39.281-39.289s39.281 17.621 39.281 39.289c0.003906 21.656-17.621 39.277-39.281 39.277z"/>
</svg>
