<?xml version="1.0" encoding="UTF-8"?>
<svg width="100pt" height="100pt" version="1.1" viewBox="0 0 100 100" xmlns="http://www.w3.org/2000/svg">
 <g>
  <path d="m68.75 30.605c-5.5195 0.039062-10.469 3.3984-12.551 8.5078s-0.89062 10.969 3.0273 14.859c3.918 3.8867 9.7891 5.0352 14.883 2.9141 5.0938-2.1211 8.4102-7.0977 8.4102-12.617-0.03125-7.5742-6.1953-13.688-13.77-13.664zm0 21.082c-2.9883-0.042969-5.6641-1.875-6.7773-4.6484-1.1172-2.7773-0.45703-5.9492 1.6758-8.0469 2.1289-2.1016 5.3086-2.7148 8.0664-1.5625 2.7578 1.1523 4.5547 3.8516 4.5547 6.8398-0.03125 4.125-3.3984 7.4414-7.5195 7.418z"/>
  <path d="m52.855 55.582-6.25 6.25c-0.89062 0.89062-1.1602 2.2305-0.67969 3.3945 0.47656 1.168 1.6055 1.9297 2.8672 1.9414 0.82422 0 1.6172-0.32422 2.207-0.89844l6.25-6.25c1.2266-1.2188 1.2305-3.1992 0.011719-4.4258-1.2227-1.2266-3.2031-1.2305-4.4297-0.011719z"/>
  <path d="m82.418 33.855c0.78125-0.03125 1.5234-0.35156 2.082-0.89844l6.25-6.25c0.62109-0.57422 0.98438-1.3789 1.0039-2.2266 0.019532-0.84766-0.30859-1.6641-0.90234-2.2656-0.59766-0.60547-1.4141-0.9375-2.2617-0.92578-0.84766 0.007813-1.6562 0.36328-2.2344 0.98047l-6.25 6.1445v0.003907c-1.2188 1.2188-1.2188 3.1953 0 4.4141 0.58984 0.65625 1.4297 1.0273 2.3125 1.0234z"/>
  <path d="m40.605 47.395h8.793-0.003907c1.7266 0 3.125-1.3984 3.125-3.125 0-1.7227-1.3984-3.125-3.125-3.125h-8.7891c-1.7266 0-3.125 1.4023-3.125 3.125 0 1.7266 1.3984 3.125 3.125 3.125z"/>
  <path d="m96.875 41.145h-8.8125c-1.7266 0-3.125 1.4023-3.125 3.125 0 1.7266 1.3984 3.125 3.125 3.125h8.8125c1.7266 0 3.125-1.3984 3.125-3.125 0-1.7227-1.3984-3.125-3.125-3.125z"/>
  <path d="m52.855 32.957c0.59375 0.57031 1.3828 0.89062 2.207 0.89844 1.2734 0.007812 2.4219-0.75781 2.9062-1.9336s0.21094-2.5312-0.69922-3.4219l-6.25-6.1445c-0.57812-0.61719-1.3867-0.97266-2.2344-0.98438-0.84766-0.011719-1.6641 0.32422-2.2617 0.92578-0.59375 0.60156-0.92188 1.4219-0.90234 2.2695 0.019531 0.84766 0.38281 1.6484 1.0039 2.2266z"/>
  <path d="m84.605 55.582c-1.2383-1.1406-3.1562-1.0977-4.3398 0.097657-1.1875 1.1953-1.2109 3.1172-0.058594 4.3398l6.25 6.25c0.55859 0.55469 1.3008 0.875 2.0859 0.89844 1.2617-0.003907 2.3984-0.76562 2.8828-1.9297 0.48438-1.168 0.21875-2.5117-0.67578-3.4062z"/>
  <path d="m68.75 28.25c1.7266 0 3.125-1.3984 3.125-3.125v-8.7305c0-1.7227-1.3984-3.125-3.125-3.125s-3.125 1.4023-3.125 3.125v8.7305c0 1.7266 1.3984 3.125 3.125 3.125z"/>
  <path d="m68.75 60.27c-1.7227 0.011719-3.1133 1.4062-3.125 3.125v8.7305c0 1.7266 1.3984 3.125 3.125 3.125s3.125-1.3984 3.125-3.125v-8.7305c0-1.7227-1.3984-3.125-3.125-3.125z"/>
  <path d="m54.688 72.918c-1.6719-0.40625-3.3594 0.61719-3.7695 2.2891-0.78906 3.1445-3.6172 5.3438-6.8555 5.3359h-29.73c-2.1836 0.10938-4.3164-0.67969-5.9023-2.1875-1.5859-1.5039-2.4844-3.5938-2.4844-5.7812s0.89844-4.2812 2.4844-5.7852c1.5859-1.5078 3.7188-2.2969 5.9023-2.1836 0.30469-0.023438 0.61328-0.023438 0.91797 0 1.6953 0.22266 3.2539-0.95703 3.5-2.6484 0.46875-2.8438 2.3438-5.2578 4.9883-6.4141 2.6445-1.1523 5.6914-0.88672 8.0938 0.70703 1.4336 0.98828 3.3984 0.62891 4.3867-0.80078 0.47656-0.6875 0.65625-1.5391 0.50781-2.3594-0.15234-0.82422-0.62109-1.5508-1.3086-2.0273-3.7891-2.5586-8.5508-3.2227-12.895-1.8008s-7.7891 4.7695-9.3359 9.0703c-7.8398 0.31641-13.941 6.9297-13.625 14.773 0.31641 7.8398 6.9297 13.941 14.77 13.625h29.73c6.125 0.027343 11.469-4.1523 12.918-10.105 0.39062-1.6562-0.63672-3.3164-2.293-3.707z"/>
 </g>
</svg>
