<svg id="Layer_1" data-name="Layer 1" xmlns="http://www.w3.org/2000/svg" viewBox="0 0 144 144"><path d="M103.27,77.54c-10.08-5.2-28.36-5.24-39.11-.1-7.44,3.57-20,2.34-25.67-.12a72.48,72.48,0,0,0-19.6-4.74V87.09A55.3,55.3,0,0,1,32.8,90.55,50.78,50.78,0,0,0,52,94.08c6.46,0,13-1.1,18.34-3.65,7.26-3.47,20.76-2.94,26.3-.09,6.85,3.53,18.45,3.75,24.75,3.56,1,0,2.25-.08,3.68-.16V79.3c-1.53.12-3.21.2-5,.23C111.48,79.7,105.44,78.65,103.27,77.54Zm0,33.24c-10.08-5.19-28.36-5.23-39.11-.09-7.44,3.57-20,2.34-25.67-.12a72.11,72.11,0,0,0-19.6-4.74v14.51A55.3,55.3,0,0,1,32.8,123.8,50.78,50.78,0,0,0,52,127.32c6.46,0,13-1.09,18.34-3.64,7.26-3.48,20.76-3,26.3-.09,6.85,3.53,18.45,3.75,24.75,3.56,1,0,2.25-.08,3.68-.17V112.55c-1.53.11-3.21.19-5,.23C111.48,113,105.44,111.9,103.27,110.78ZM100,44.33,62,16.06l-43.1,26.4V59.35L61.21,33.42,98.83,61.37l26.28-14.25V30.74Z"/></svg>