<?xml version="1.0" encoding="UTF-8"?>
<svg width="512pt" height="512pt" version="1.1" viewBox="0 0 512 512" xmlns="http://www.w3.org/2000/svg">
 <g>
  <path d="m330.75 18.895h-288.52c-9.2695 0.011719-18.156 3.6992-24.711 10.254-6.5547 6.5586-10.242 15.445-10.258 24.715v232.86c0.015625 9.2734 3.7031 18.16 10.258 24.715 6.5547 6.5547 15.441 10.242 24.711 10.258h101.43v123.39c0.011719 12.734 5.0781 24.941 14.082 33.945s21.211 14.066 33.941 14.078h265.06c12.734-0.011719 24.941-5.0742 33.945-14.078 9.0039-9.0039 14.066-21.211 14.082-33.945v-153.24c-0.015625-12.734-5.0781-24.941-14.082-33.945-9.0039-9.0039-21.211-14.066-33.945-14.082h-42.035l-25.602-31.129h0.003906c-6.0586-7.418-14.102-12.957-23.195-15.973v-142.8c0-9.3164-3.7109-18.246-10.312-24.82-6.5977-6.5703-15.547-10.242-24.859-10.199zm-288.51 25.602 288.51-0.003906c5.1602 0.027343 9.3398 4.207 9.3672 9.3711v140.29h-21.297l-75.625-75.625c-2.4062-2.3984-5.6641-3.7422-9.0625-3.7383-3.3945-0.003906-6.6562 1.3398-9.0625 3.7383l-76.801 76.801-40.754-40.398c-4.7461-4.7305-12.34-4.9961-17.406-0.61328l-57.242 49.461v-149.86c0-5.1836 4.1875-9.3945 9.3672-9.4219zm0 251.8-0.003907-0.003906c-2.5156-0.011719-4.9219-1.0312-6.6797-2.832-1.7617-1.7969-2.7305-4.2266-2.6875-6.7422v-49.152l65.023-56.32 41.266 41.266v0.003906c2.4062 2.3984 5.668 3.7422 9.0625 3.7383 3.3984 0.003906 6.6602-1.3398 9.0625-3.7383l76.801-76.801 50.484 50.484c-9.8867 2.8125-18.68 8.582-25.191 16.535l-25.602 31.129-42.086 0.003907c-12.723 0.011718-24.922 5.0703-33.926 14.062-9 8.9922-14.07 21.188-14.098 33.91v4.5039zm326.91-67.383 29.391 35.84h-0.003907c2.4258 2.9727 6.0508 4.6992 9.8828 4.7109h48.332c5.9297 0.015625 11.613 2.375 15.809 6.5703 4.1914 4.1914 6.5547 9.875 6.5664 15.805v153.24c0 5.9453-2.3633 11.652-6.5664 15.855-4.207 4.207-9.9102 6.5703-15.859 6.5703h-265.01c-5.9453 0-11.648-2.3633-15.855-6.5703-4.207-4.2031-6.5703-9.9102-6.5703-15.855v-153.24c0-5.9492 2.3633-11.652 6.5703-15.855 4.207-4.207 9.9102-6.5703 15.855-6.5703h48.336c3.832-0.011718 7.457-1.7383 9.8789-4.7109l29.336-35.84h0.003906c4.7422-5.8086 11.852-9.1758 19.352-9.1641h51.199c7.5117 0 14.621 3.3867 19.355 9.2148z"/>
  <path d="m241.3 356.56c0.015624 21.98 8.7578 43.055 24.309 58.59 15.551 15.535 36.637 24.258 58.621 24.25 21.98-0.007813 43.059-8.75 58.598-24.297 15.535-15.547 24.266-36.633 24.258-58.613-0.003906-21.98-8.7383-43.062-24.285-58.602-15.543-15.543-36.625-24.273-58.605-24.273-21.984 0.027344-43.062 8.7773-58.602 24.328-15.543 15.547-24.277 36.629-24.293 58.617zm140.19 0c-0.015626 15.191-6.0625 29.754-16.812 40.488s-25.324 16.762-40.516 16.75c-15.191-0.007813-29.758-6.0508-40.496-16.797s-16.766-25.32-16.762-40.512c0.003906-15.191 6.043-29.762 16.785-40.5 10.746-10.742 25.316-16.777 40.508-16.777 15.199 0.015624 29.77 6.0625 40.516 16.816 10.742 10.75 16.777 25.328 16.777 40.531z"/>
  <path d="m147.46 150.43c11.84 0 23.195-4.7031 31.57-13.078 8.3711-8.3711 13.074-19.727 13.074-31.57 0-11.84-4.7031-23.195-13.074-31.566-8.375-8.375-19.73-13.078-31.57-13.078-11.844 0-23.199 4.7031-31.57 13.078-8.375 8.3711-13.078 19.727-13.078 31.566 0.015625 11.84 4.7227 23.188 13.094 31.559 8.3672 8.3672 19.719 13.074 31.555 13.09zm0-63.691c5.0508 0 9.8945 2.0039 13.469 5.5781 3.5703 3.5703 5.5781 8.4141 5.5781 13.465 0 5.0547-2.0078 9.8984-5.5781 13.469-3.5742 3.5742-8.418 5.5781-13.469 5.5781s-9.8984-2.0039-13.469-5.5781c-3.5703-3.5703-5.5781-8.4141-5.5781-13.469 0.011719-5.0469 2.0234-9.8828 5.5938-13.449 3.5664-3.5703 8.4062-5.582 13.453-5.5938z"/>
 </g>
</svg>
