<?xml version="1.0" encoding="UTF-8"?>
<svg width="512pt" height="512pt" version="1.1" viewBox="0 0 512 512" xmlns="http://www.w3.org/2000/svg">
 <g>
  <path d="m322.5 310.3v0.55078c0 3.5508-0.25 7.0508-0.80078 10.5-0.10156 0.55078-0.14844 1.1016-0.25 1.6484-0.39844 2.3516-0.94922 4.6484-1.6016 6.9492-0.25 0.80078-0.5 1.6016-0.80078 2.3984-0.10156 0.25-0.19922 0.55078-0.30078 0.85156-0.10156 0.30078-0.19922 0.55078-0.30078 0.85156-0.050781 0.19922-0.14844 0.39844-0.25 0.60156-0.14844 0.39844-0.30078 0.80078-0.5 1.1992-0.10156 0.25-0.19922 0.44922-0.30078 0.64844-0.19922 0.5-0.44922 1-0.64844 1.5-0.10156 0.14844-0.14844 0.35156-0.25 0.5-0.050782 0.10156-0.10156 0.19922-0.14844 0.30078-0.14844 0.25-0.25 0.55078-0.39844 0.80078 0 0.050782-0.050781 0.050782-0.050781 0.10156-0.19922 0.44922-0.44922 0.89844-0.69922 1.3516-0.10156 0.14844-0.14844 0.35156-0.25 0.5-0.14844 0.30078-0.30078 0.60156-0.5 0.89844-0.14844 0.30078-0.30078 0.60156-0.5 0.85156-0.10156 0.19922-0.19922 0.35156-0.30078 0.55078-0.14844 0.25-0.25 0.44922-0.39844 0.69922-0.10156 0.19922-0.25 0.39844-0.35156 0.60156-0.14844 0.25-0.30078 0.5-0.44922 0.75 0 0.050781-0.050781 0.050781-0.050781 0.10156-0.19922 0.35156-0.44922 0.64844-0.64844 1-0.30078 0.44922-0.64844 0.94922-0.94922 1.3984-0.14844 0.25-0.35156 0.5-0.5 0.75-0.10156 0.14844-0.19922 0.30078-0.35156 0.44922-0.19922 0.25-0.39844 0.55078-0.60156 0.80078-0.55078 0.69922-1.1016 1.4492-1.6484 2.1484-0.30078 0.35156-0.55078 0.69922-0.85156 1.0508-0.25 0.35156-0.55078 0.64844-0.80078 0.94922-0.050781 0.050781-0.050781 0.050781-0.10156 0.10156-0.19922 0.25-0.44922 0.5-0.64844 0.75-0.10156 0.14844-0.25 0.25-0.35156 0.39844-0.25 0.25-0.5 0.55078-0.75 0.80078-0.30078 0.35156-0.64844 0.64844-0.94922 0.94922-0.19922 0.19922-0.44922 0.44922-0.64844 0.64844-0.35156 0.30078-0.64844 0.64844-1 0.94922-0.25 0.25-0.5 0.5-0.75 0.69922-0.64844 0.60156-1.25 1.1484-1.8984 1.6992h-0.050781c-0.39844 0.35156-0.80078 0.69922-1.25 1-0.39844 0.30078-0.75 0.60156-1.1484 0.89844-0.050781 0.050781-0.14844 0.10156-0.19922 0.14844-0.39844 0.30078-0.80078 0.60156-1.25 0.94922-0.44922 0.30078-0.89844 0.64844-1.3516 0.94922-2.0508 1.3984-4.1484 2.6992-6.3516 3.8984-0.35156 0.19922-0.69922 0.35156-1.0508 0.55078-5.1992 2.6992-10.75 4.6484-16.551 5.8008-1.9492 0.39844-3.8984 0.64844-5.8008 0.89844-5.75 0.64844-11.5 0.5-17.102-0.35156-0.35156-0.050781-0.64844-0.25-1-0.25h-2.1992c-0.30078-0.10156-0.55078-0.19922-0.85156-0.30078-1.1016-0.39844-2.1992-0.69922-3.3008-0.69922-0.10156-0.14844-0.14844 0-0.25-0.5-0.10156 0-0.14844 0-0.25-0.050781-0.14844-0.050782-0.35156 0.050781-0.5 0.050781-0.10156 0-0.19922 0-0.30078-0.050781-0.050781 0-0.10156 0-0.14844-0.050782-0.14844-0.050781-0.35156-0.10156-0.5-0.14844-0.10156-0.050781-0.19922-0.050781-0.30078-0.10156-0.19922-0.050781-0.35156-0.14844-0.55078-0.14844-0.050781 0-0.10156 0-0.14844-0.050781-0.30078-0.10156-0.55078-0.19922-0.85156-0.25-0.050781 0-0.10156-0.050782-0.14844-0.050782-0.050781 0-0.10156-0.050781-0.14844-0.050781-0.050781 0-0.10156-0.050781-0.10156-0.050781s-0.050781 0-0.050781-0.050782c-0.5-0.19922-0.94922-0.44922-1.4492-0.5h-0.25c-0.10156-0.10156-0.25-0.14844-0.35156-0.19922-0.10156-0.050782-0.19922-0.10156-0.30078-0.14844-0.19922-0.050781-0.35156-0.14844-0.55078-0.19922-0.25-0.10156-0.55078-0.25-0.80078-0.44922h-1c-0.10156-0.14844-0.14844-0.25-0.25-0.30078-0.25-0.19922-0.5-0.19922-0.75-0.19922-0.050781-0.050781-0.10156-0.10156-0.14844-0.14844-0.050781-0.050781-0.10156-0.050781-0.10156-0.10156 0 0 0-0.050781-0.050781-0.050781-0.14844-0.14844-0.30078-0.19922-0.44922-0.19922h-0.25-0.10156c-0.30078-0.050781-0.60156-0.5-0.89844-0.5-0.30078 0-0.60156-0.39844-0.85156-0.5h-0.10156l-0.050782-0.050781c-0.050781-0.050782-0.10156-0.050782-0.14844-0.10156-0.44922-0.35156-0.94922-0.5-1.3984-0.69922l-0.19922-0.10156c-0.050781 0-0.050781-0.050782-0.10156-0.050782-0.30078-0.14844-0.64844-0.35156-0.94922-0.5h-0.050781c-0.050781 0-0.050781-0.050781-0.10156-0.050781-0.25-0.14844-0.5-0.39844-0.75-0.39844h-0.050782-0.10156c-0.25-0.050782-0.55078-0.35156-0.80078-0.5-0.10156-0.050782-0.19922-0.14844-0.30078-0.19922-0.19922-0.14844-0.39844-0.25-0.55078-0.30078h-0.050781v-0.050782c-0.30078-0.44922-0.60156-0.44922-0.89844-0.44922 0-0.050782-0.050781-0.050782-0.050781-0.10156-0.050781-0.050781-0.050781-0.10156-0.10156-0.14844-0.14844-0.14844-0.30078-0.25-0.44922-0.39844-0.050781-0.050781-0.10156-0.10156-0.14844-0.19922-0.050781-0.050782-0.050781-0.10156-0.10156-0.14844-0.30078 0-0.60156-0.35156-0.89844-0.55078v0.050781h-0.050781-0.050781c-0.19922-0.050781-0.39844-0.30078-0.55078-0.44922l-0.050782-0.050781h-0.25l-0.050781-0.050781c-0.10156-0.10156-0.19922-0.19922-0.30078-0.25-0.050782-0.050781-0.10156-0.10156-0.14844-0.10156v-0.050781h-0.10156c-0.050782-0.050781-0.14844 0-0.19922 0-0.050781-0.10156-0.10156-0.14844-0.14844-0.25-0.10156-0.10156-0.19922-0.14844-0.25-0.19922-0.14844-0.050781-0.25-0.050781-0.39844-0.050781-0.10156-0.14844-0.14844-0.25-0.25-0.35156l-0.10156-0.10156c-0.10156-0.10156-0.25-0.19922-0.35156-0.35156-0.050781-0.050782-0.10156-0.10156-0.14844-0.19922v0.10156c-0.25-0.19922-0.5-0.5-0.69922-0.55078h-0.050781-0.050782c-0.75-0.5-1.4492-1.25-2.1484-1.8516-0.30078-0.30078-0.64844-0.55078-0.94922-0.85156-0.30078-0.25-0.60156-0.55078-0.89844-0.85156-0.19922-0.19922-0.39844-0.35156-0.55078-0.55078l-0.30078-0.30078c-0.5-0.5-1-1-1.5-1.5508-0.14844-0.14844-0.25-0.30078-0.39844-0.39844-0.14844-0.14844-0.25-0.30078-0.39844-0.39844-0.050781-0.050782-0.10156-0.14844-0.19922-0.19922l-0.050781-0.050781c-0.14844-0.14844-0.35156-0.30078-0.39844-0.44922v-0.050781c0-0.050782-0.050782-0.10156-0.10156-0.14844-0.10156-0.050781-0.19922-0.14844-0.25-0.19922-0.050781-0.050782-0.10156-0.10156-0.10156-0.10156-0.050781-0.050781-0.14844-0.10156-0.19922-0.19922l-0.050782-0.050781c-0.25-0.25-0.44922-0.55078-0.69922-0.85156-0.25-0.30078-0.44922-0.55078-0.69922-0.85156-0.44922-0.55078-0.89844-1.1484-1.3516-1.75-1.3008-1.75-2.5508-3.6016-3.6992-5.5-0.39844-0.64844-0.75-1.3008-1.1016-1.9492-1.1016-1.9492-2.1016-3.9492-2.9492-6.0508-0.30078-0.69922-0.55078-1.3516-0.85156-2.0508-0.14844-0.39844-0.30078-0.80078-0.44922-1.1992-0.14844-0.39844-0.30078-0.80078-0.44922-1.1992-0.14844-0.39844-0.25-0.75-0.39844-1.1484-0.14844-0.39844-0.25-0.80078-0.39844-1.1992-2.4492-7.8984-3.3984-16.301-2.75-24.5 1.1484-14.051 6.4492-27.051 15.352-37.949 8.1016-9.8984 19.051-16.949 31.051-20.75 0.39844-0.14844 0.85156-0.25 1.25-0.39844 0.85156-0.25 1.6484-0.44922 2.5-0.69922 1-0.25 2-0.5 3-0.69922 1.5-0.30078 3.0508-0.55078 4.5508-0.80078 0.60156-0.10156 1.1992-0.14844 1.8008-0.19922 9.9492-1.1016 20.148 0 29.648 3.6016 25.762 9.5586 43.512 34.512 43.512 62.461z"/>
  <path d="m449.35 43.102c-4.7031-14.25-17.852-24.152-32.852-24.703-4.3516-0.14844-8.6992 0.10156-13.051 0.10156h-303.9c-1.4492 0-2.8984-0.14844-4.3984-0.10156-15 0.75-28.051 10.75-32.602 25.051-1.8516 5.8984-1.5508 11.949-1.5508 18.051v389.4c0 6.5-0.25 13.051 2.1016 19.301 5.3516 14 18.352 23.301 33.449 23.449 1.1016 0 2.1484-0.10156 3.25-0.10156h315.65c0.10156 0 0.25 0.10156 0.35156 0.10156 15-0.30078 28-9.75 33.199-23.801 1.5-4.1484 2-8.5508 2-12.949v-401.65c0-4.1016-0.39844-8.25-1.6484-12.148zm-272.9 51.348v-0.35156c0.050781-0.10156 0.050781-0.25 0.10156-0.39844 0.19922-0.64844 0.30078-1.3008 0.5-1.9492 0.14844-0.55078 0.35156-1.0508 0.5-1.5508 0.14844-0.30078 0.30078-0.64844 0.5-0.94922 0.30078-0.60156 0.64844-1.1484 1-1.6992 0.10156-0.10156 0.75-1.0508 0.75-1.1016 0.64844-0.75 1.3516-1.5 2.1016-2.1484 0.25-0.25 0.5-0.44922 0.80078-0.69922-0.10156 0.10156 0.94922-0.64844 1.1016-0.75 0.55078-0.35156 1.1484-0.69922 1.6992-1 0.30078-0.14844 0.60156-0.30078 0.89844-0.44922 0.10156-0.050782 0.19922-0.050782 0.35156-0.14844 1.1016-0.35156 2.1484-0.60156 3.25-0.89844 0.14844-0.050781 0.30078-0.10156 0.39844-0.10156 0.10156 0 0.19922-0.050781 0.35156-0.050781 0.69922-0.050781 1.3984-0.14844 2.1016-0.14844h126.3c0.25 0 0.5 0.050781 0.75 0.050781 0.55078 0 1.1016 0.10156 1.6484 0.14844-0.60156-0.050781 1.5508 0.35156 1.8008 0.44922 0.44922 0.10156 0.85156 0.25 1.3008 0.39844 0.14844 0.050782 1.1992 0.5 1.25 0.5 1 0.5 1.9492 1.1016 2.8984 1.6484 0.14844 0.10156 0.25 0.14844 0.35156 0.19922 0.050781 0.050781 0.14844 0.14844 0.25 0.19922 0.39844 0.35156 0.80078 0.75 1.1992 1.1016 0.39844 0.39844 0.75 0.75 1.1484 1.1992 0.14844 0.19922 0.30078 0.35156 0.44922 0.55078v0.050781c0.050781 0.050781 0.14844 0.25 0.35156 0.5 0.60156 1 1.1992 1.9492 1.6992 2.9492v0.050781c0.10156 0.19922 0.25 0.64844 0.35156 0.80078 0.19922 0.55078 0.35156 1.0508 0.5 1.6016 0.14844 0.44922 0.19922 0.89844 0.30078 1.3516 0 0 0.14844 1.1992 0.19922 1.3984 0.10156 1.3008 0.050781 2.5508-0.10156 3.8516v0.10156c0 0.10156-0.050781 0.19922-0.10156 0.30078-0.19922 0.64844-0.30078 1.3008-0.5 1.9492-0.14844 0.44922-0.25 0.89844-0.44922 1.3008-0.050781 0-0.5 1.0508-0.55078 1.1992-0.39844 0.80078-0.89844 1.5508-1.3984 2.3008-0.050781 0.050781-0.69922 0.89844-0.80078 1.0508-0.60156 0.64844-1.1992 1.25-1.8516 1.8516-0.10156 0.10156-0.94922 0.69922-1.0508 0.80078-0.39844 0.25-0.80078 0.55078-1.1992 0.75-0.39844 0.25-0.75 0.44922-1.1484 0.64844-0.14844 0.050781-1.1992 0.55078-1.1992 0.55078-1.1016 0.39844-2.1992 0.64844-3.3008 0.94922-0.14844 0.050781-0.30078 0.10156-0.39844 0.10156h-0.35156c-0.69922 0.050782-1.3984 0.10156-2.1016 0.10156l-62.102-0.011719c-21.398 0-42.75 0.25-64.148 0-0.35156 0-0.75 0-1.1016-0.050781-0.35156 0-0.75-0.050781-1.1016-0.050781 0-0.050782-1.1992-0.25-1.3516-0.25-0.64844-0.14844-1.3008-0.35156-1.9492-0.55078-0.14844-0.050781-1.1992-0.5-1.25-0.5-1-0.5-1.9492-1.1016-2.8984-1.6484-0.14844-0.10156-0.25-0.14844-0.35156-0.19922-0.050781-0.050781-0.14844-0.14844-0.25-0.19922-0.5-0.44922-1-0.85156-1.4492-1.3516-0.44922-0.44922-0.89844-0.94922-1.3516-1.4492-0.10156-0.10156-0.14844-0.14844-0.19922-0.25-0.050781-0.10156-0.10156-0.19922-0.19922-0.35156-0.55078-0.94922-1.1484-1.8984-1.6484-2.8516-0.050781-0.10156-0.14844-0.19922-0.19922-0.30078 0-0.10156-0.050781-0.19922-0.10156-0.35156-0.25-0.85156-0.55078-1.6992-0.75-2.6016-0.050781-0.14844-0.25-1.3516-0.25-1.3516 0-0.25-0.050781-0.5-0.050781-0.75-0.046876-1.1914 0-2.3398 0.050781-3.4922zm221.05 215.95c-0.44922 6.5508-0.69922 13.102-1.5508 19.602-0.10156 0.94922-0.25 1.8516-0.39844 2.8008-0.19922 1.3008-0.39844 2.6484-0.64844 3.9492-0.10156 0.44922-0.14844 0.89844-0.25 1.3008-0.14844 0.85156-0.35156 1.75-0.55078 2.6016-0.19922 0.85156-0.39844 1.75-0.60156 2.6016-0.30078 1.3008-0.64844 2.6016-1 3.8984-0.25 0.85156-0.44922 1.6992-0.69922 2.6016-0.19922 0.69922-0.39844 1.3516-0.60156 2.0508-0.19922 0.64844-0.39844 1.3008-0.60156 1.9492-0.19922 0.64844-0.39844 1.25-0.64844 1.8984-0.19922 0.60156-0.39844 1.1992-0.64844 1.8516-6.6992 18.852-17.5 36.25-31.301 50.699-4.6016 4.8008-9.5508 9.3008-14.801 13.398-0.69922 0.55078-1.3984 1.1016-2.1016 1.6484-1.0508 0.80078-2.1484 1.6016-3.25 2.3516-0.69922 0.5-1.4492 1.0508-2.1992 1.5508-0.35156 0.25-0.75 0.5-1.1016 0.75-4.4492 2.9492-9.0508 5.6992-13.75 8.1484-1.6016 0.80078-3.1484 1.6016-4.8008 2.3516-1.6016 0.75-3.25 1.5-4.8516 2.1992-0.80078 0.35156-1.6484 0.69922-2.4492 1-1 0.39844-2 0.80078-3 1.1484-0.25 0.10156-0.5 0.19922-0.75 0.30078-0.85156 0.30078-1.6484 0.60156-2.5 0.89844-1.25 0.44922-2.5508 0.85156-3.8008 1.25-0.44922 0.14844-0.85156 0.25-1.3008 0.39844-0.39844 0.14844-0.85156 0.25-1.3008 0.39844-0.5 0.14844-0.94922 0.30078-1.4492 0.39844-3.3516 0.94922-6.75 1.8008-10.148 2.4492-0.30078 0.050781-0.60156 0.10156-0.89844 0.14844h-0.14844c-0.39844 0.10156-0.85156 0.14844-1.25 0.25 0.35156-0.050782 0.75-0.14844 1.1016-0.19922-0.80078 0.14844-1.5508 0.30078-2.3516 0.39844-1.1016 0.14844-2.1992 0.10156-3.3008 0.60156h-0.25-0.10156c-0.94922 0-1.9492 0.25-2.8984 0.39844h-0.050781c-0.14844 0-0.30078 0.050782-0.44922 0.050782-1.1484 0.14844-2.3516 0.25-3.5 0.39844-6.4492 0.64844-12.898 0.85156-19.352 0.60156-0.64844 0-1.3008-0.050782-1.9492-0.10156-1.3008-0.050781-2.6016-0.14844-3.8984-0.25-1.6016-0.14844-3.25-0.25-4.8516-0.44922-1.6016-0.19922-3.1992-0.39844-4.8516-0.60156-0.25-0.050782-0.55078-0.10156-0.80078-0.14844-0.14844 0-0.30078-0.050781-0.5-0.050781-0.44922-0.050781-0.85156-0.14844-1.3008-0.19922-0.44922-0.10156-0.85156-0.14844-1.3008-0.19922-5.6484-1-11.199-2.25-16.699-3.8984-4.75-1.4492-9.4492-3-14.102-5-0.050782-0.050781-0.14844-0.10156-0.19922-0.10156 0.050781 0.050781 0.10156 0.10156 0.14844 0.10156-0.35156 0-0.75-0.35156-1.1016-0.5-0.10156-0.050781-0.25-0.10156-0.35156-0.14844 0 0-0.050781 0-0.10156-0.050781-0.25-0.10156-0.5-0.19922-0.75-0.30078-0.35156-0.14844-0.75-0.30078-1.1016-0.44922-6.8516-3.0508-13.398-6.6484-19.648-10.801-0.10156-0.050781-0.25-0.19922-0.35156-0.19922h-0.050781-0.050781s-0.050782-0.10156-0.050782-0.14844v0.10156s-0.050781 0.050782-0.050781 0.050782c0-0.5-0.050781-0.5-0.050781-0.5l-0.050781 0.050781h-0.050781l-0.050782-0.050781h-0.050781-0.050781-0.050782-0.050781c-0.050781-0.10156-0.14844-0.19922-0.19922-0.25-0.050781-0.050782-0.10156-0.10156-0.14844-0.14844-0.050781-0.050781-0.14844-0.10156-0.19922-0.14844l-0.050781-0.050781h-0.050781c0.050781 0.050781 0.10156 0.14844 0.14844 0.19922-0.19922-0.14844-0.35156-0.19922-0.55078-0.35156-0.10156-0.050782-0.19922-0.14844-0.30078-0.19922h-0.050781-0.050782v-0.10156l-0.050781-0.050781-0.10156-0.29688h-0.14844v0.050781h-0.050781l-0.050782-0.050781h-0.050781-0.10156l-0.10156-0.10156c-0.050781-0.050782-0.050781-0.050782-0.10156-0.10156-0.25-0.25-0.5-0.35156-0.75-0.60156-0.050782-0.050781-0.10156-0.10156-0.14844-0.14844v0.14844c-0.10156-0.050781-0.19922-0.19922-0.30078-0.30078-0.14844-0.14844-0.30078-0.35156-0.5-0.35156h-0.050781-0.050782-0.050781-0.10156c-0.14844-0.19922-0.30078-0.39844-0.39844-0.55078-0.14844-0.14844-0.35156-0.30078-0.5-0.44922h-0.14844c-0.30078-0.39844-0.55078-0.5-0.85156-0.75-0.050781-0.050781-0.050781-0.050781-0.10156-0.10156-0.050781-0.050781-0.050781-0.10156-0.10156-0.14844-0.35156 0-0.69922-0.5-1.0508-0.5-0.69922-0.5-1.3984-1.1016-2.0508-1.6484-0.19922-0.14844-0.39844-0.39844-0.55078-0.60156-0.10156-0.050781-0.14844-0.10156-0.25-0.14844-0.050781-0.050781-0.14844-0.050781-0.19922-0.10156-0.050782-0.050781-0.10156-0.14844-0.14844-0.19922 0.050782 0.050781 0.050782 0.050781 0.10156 0.10156v-0.10156c-0.050781-0.10156-0.10156-0.30078-0.10156-0.35156h-0.25c-0.050781-0.050782-0.10156 0-0.14844 0-0.10156 0-0.14844-0.19922-0.25-0.25-0.050781-0.050782-0.14844-0.10156-0.19922-0.10156h-0.10156 0.050781 0.050781c-0.64844-0.55078-1.3008-1.1016-1.9492-1.6484 0.64844 0.55078 1.1992 1.1016 1.8516 1.6484-0.64844-0.55078-1.3008-1.1484-1.9492-1.6992-0.55078-0.5-1.1484-0.94922-1.6992-1.4492-0.10156-0.10156-0.19922-0.14844-0.30078-0.25l-0.050781 0.050781c-0.5-0.44922-0.89844-0.89844-1.3984-1.3008-0.14844-0.14844-0.25-0.25-0.39844-0.39844-2.8008-2.6992-5.5-5.5-8.0508-8.3516-0.10156-0.10156-0.19922-0.25-0.30078-0.35156-0.30078-0.30078-0.55078-0.60156-0.85156-0.89844-0.25-0.25-0.44922-0.55078-0.69922-0.85156-0.050781-0.050781-0.10156-0.14844-0.14844-0.19922-5.0508-5.8516-9.6016-12.051-13.648-18.602-0.14844-0.25-0.30078-0.44922-0.44922-0.64844-1.0508-1.6992-2.1016-3.4492-3.1016-5.1992-0.5-1.5508-1.5-3.1016-2.3008-4.6484-0.10156-0.19922-0.19922-0.44922-0.30078-0.64844-0.30078-0.64844-0.80078-1.25-0.89844-1.8984v-0.25c-0.14844-0.25-0.25-0.44922-0.35156-0.69922-0.10156-0.25-0.25-0.44922-0.35156-0.69922-0.69922-1.3516-1.25-2.75-1.8516-4.1016-0.25-0.55078-0.44922-1.1016-0.69922-1.6484-0.55078-1.3008-1.1016-2.6016-1.6016-3.9492-0.35156-1-0.64844-2-1-2.9492-0.050781-0.14844-0.10156-0.30078-0.19922-0.39844 0-0.39844-0.30078-0.75-0.39844-1.1484-0.10156-0.39844-0.25-0.75-0.39844-1.1484-0.10156-0.25-0.14844-0.5-0.25-0.80078-0.10156-0.30078-0.19922-0.60156-0.30078-0.94922-0.10156-0.30078-0.19922-0.60156-0.30078-0.94922-0.14844-0.44922-0.30078-0.94922-0.39844-1.4492-0.30078-1.0508-0.60156-2.1016-0.89844-3.1484-0.14844-0.5-0.25-1-0.39844-1.5508-0.19922-0.69922-0.35156-1.3984-0.5-2.1016-0.19922-0.89844-0.39844-1.75-0.60156-2.6484-0.19922-0.89844-0.39844-1.8516-0.60156-2.75-0.30078-1.5-0.55078-3-0.80078-4.5 0-0.14844-0.050781-0.30078-0.050781-0.39844-0.55078-3.3516-0.94922-6.6992-1.25-10.051-0.10156-0.85156-0.14844-1.6484-0.19922-2.5v-0.19922c-0.5-6.8008-0.44922-13.602 0.050781-20.398 2.3008-29.301 13.5-57 32.148-79.699 2.8008-3.3984 5.8008-6.6992 8.8984-9.8008 3.6992-3.6992 7.6016-7.1484 11.699-10.449 14.602-11.648 31.5-20.398 49.449-25.5 2.8008-0.80078 5.6016-1.5 8.4492-2.1016 0.5-0.10156 0.94922-0.25 1.3984-0.35156 4.25-0.85156 8.6016-1.5508 12.898-2.0508h1.5 0.10156 0.050781 0.050782-0.050782-0.050781-0.050781-0.050782c0.30078-0.050781 0.55078-0.14844 0.85156-0.19922v-0.14844-0.14844c0.30078 0 0.60156-0.050782 0.89844-0.10156 0.10156 0 0.19922 0.10156 0.30078 0.10156h1.25c1.25-0.10156 2.5-0.14844 3.8008-0.25 5.5-0.25 11-0.25 16.449 0.14844 0.39844 0.050781 0.75 0.050781 1.1484 0.10156h0.050781c0.10156 0 0.19922-0.050782 0.30078-0.050782 0.35156 0 0.75 0.050782 1.1016 0.050782h0.050782 0.19922 0.39844c0.14844 0.050781 0.25 0.10156 0.39844 0.14844 0.35156 0.050781 0.69922 0.10156 1.0508 0.14844 1.1484 0.10156 2.3008 0.25 3.4492 0.39844h0.14844c1.3008 0.14844 2.6484 0.30078 3.9492 0.5 1.1992 0.19922 2.3516 0.39844 3.5508 0.60156 0.39844 0.050782 0.80078 0.14844 1.25 0.25 0.75 0.14844 1.5508 0.30078 2.3008 0.44922 1.3008 0.25 2.6484 0.55078 3.9492 0.89844 0.050781 0 0.10156 0.050781 0.14844 0.050781 0.39844 0.10156 0.80078 0.19922 1.1992 0.25 0.19922 0.050781 0.39844 0.10156 0.60156 0.14844 0.39844 0.10156 0.80078 0.19922 1.1484 0.30078 0.69922 0.14844 1.3516 0.35156 2.0508 0.55078 0.050782 0 0.14844 0.050781 0.19922 0.050781 1.1484 0.35156 2.3516 0.69922 3.5 1.0508 0.14844 0.050782 0.25 0.10156 0.39844 0.14844 0.25 0.050781 0.5 0.14844 0.69922 0.19922 0.35156 0.10156 0.75 0.25 1.1016 0.35156 1.5508 0.5 3.0508 1.1016 4.6016 1.6484 12.301 4.5508 23.852 10.852 34.398 18.352 0.39844 0 0.75 0.5 1.1016 0.5 0.35156 0.5 0.75 0.64844 1.1016 0.94922 0.75 0.55078 1.5 1.1992 2.1992 1.75v0.14844c0.85156 0.64844 1.6992 1.1992 2.5508 2.1992 0.39844 0 0.85156 0.60156 1.25 0.94922 0.85156 0.69922 1.6992 1.3984 2.5 2.1016 1.3516 1.1992 2.6992 2.3984 4.0508 3.6484 0.60156 0.55078 1.1484 1.1016 1.75 1.6484 0.60156 0.55078 1.1484 1.1484 1.6992 1.6992 0.55078 0.60156 1.1484 1.1484 1.6992 1.75 2.8008 2.9492 5.5508 6 8.1016 9.1992 0.55078 0.69922 1.25 1.3984 1.75 2.1016 0.5 0.69922 1 1.4492 1.5508 2.1484s1 1.4492 1.5508 2.1992c16.941 23.402 25.492 52.199 25.992 81.199z"/>
 </g>
</svg>
