<?xml version="1.0" encoding="UTF-8"?>
<svg width="512pt" height="512pt" version="1.1" viewBox="0 0 512 512" xmlns="http://www.w3.org/2000/svg">
 <g>
  <path d="m166.32 211.29v26.367h-33.707c-2.7305 0-5.207 1.2812-6.8281 3.4141-1.6211 2.1328-2.1328 4.9492-1.3672 7.5078l11.777 39.508c1.1094 3.5859 4.4375 6.0586 8.1914 6.0586h11.863l11.945 167.17c0.33984 4.4375 4.0117 7.9375 8.5352 7.9375h158.55c4.4375 0 8.1914-3.5 8.5352-7.9375l11.945-167.17h11.863c3.7539 0 7.082-2.4766 8.1914-6.0586l11.777-39.508c0.76953-2.5586 0.25781-5.375-1.3672-7.5078-1.6211-2.1328-4.1797-3.4141-6.8281-3.4141h-33.707v-26.367c0-32.512-26.453-59.051-59.051-59.051h-61.184c-32.602 0-59.137 26.539-59.137 59.051zm161.02 240.98h-142.68l-11.266-158.04h165.29zm33.875-175.1h-210.43l-6.6562-22.441h223.83zm-135.85-107.86h61.184c23.125 0 41.984 18.859 41.984 41.984v26.367h-21.078v-21.246c0-4.6914-3.8398-8.5352-8.5352-8.5352-4.6914 0-8.5352 3.8398-8.5352 8.5352v21.246h-68.863v-21.246c0-4.6914-3.8398-8.5352-8.5352-8.5352-4.6914 0-8.5352 3.8398-8.5352 8.5352v21.246h-21.078v-26.367c0.007812-23.125 18.863-41.984 41.992-41.984z"/>
  <path d="m306.26 92.93c0-27.734-22.527-50.262-50.262-50.262s-50.262 22.527-50.262 50.262c0 27.734 22.527 50.262 50.262 50.262 27.734-0.003906 50.262-22.531 50.262-50.262zm-83.457 0c0-18.262 14.848-33.195 33.195-33.195s33.195 14.934 33.195 33.195c0 18.348-14.934 33.195-33.195 33.195-18.348-0.003906-33.195-14.852-33.195-33.195z"/>
 </g>
</svg>
