<?xml version="1.0" encoding="UTF-8"?>
<svg width="100pt" height="100pt" version="1.1" viewBox="0 0 100 100" xmlns="http://www.w3.org/2000/svg">
 <g fill-rule="evenodd">
  <path d="m24.137 76.273h-16.637c-0.64453 0-1.1719-0.52734-1.1719-1.1719v-54.656c0-0.64453 0.52734-1.1719 1.1719-1.1719h16.637c0.64453 0 1.1719 0.52734 1.1719 1.1719v54.656c0 0.64453-0.52734 1.1719-1.1719 1.1719zm-15.465-2.3438h14.293v-52.312h-14.293z"/>
  <path d="m24.137 39.836c-0.35156 0-0.64453-0.11719-0.87891-0.35156l-16.578-18.219c-0.46875-0.46875-0.41016-1.2305 0.058593-1.6992 0.46875-0.41016 1.2305-0.35156 1.6406 0.11719l16.637 18.219c0.41016 0.46875 0.35156 1.2305-0.11719 1.6406-0.23438 0.23438-0.46875 0.29297-0.76172 0.29297z"/>
  <path d="m7.5 58.055c-0.23438 0-0.52734-0.058594-0.76172-0.29297-0.46875-0.41016-0.52734-1.1719-0.058593-1.6406l16.578-18.219c0.41016-0.46875 1.1719-0.52734 1.6406-0.058594 0.46875 0.41016 0.52734 1.1719 0.11719 1.6406l-16.637 18.219c-0.23438 0.23438-0.52734 0.35156-0.87891 0.35156z"/>
  <path d="m24.137 76.273c-0.35156 0-0.64453-0.11719-0.87891-0.35156l-16.578-18.219c-0.46875-0.46875-0.41016-1.2305 0.058593-1.6406 0.46875-0.46875 1.2305-0.41016 1.6406 0.058594l16.637 18.219c0.41016 0.46875 0.35156 1.2305-0.11719 1.6406-0.23438 0.23438-0.46875 0.29297-0.76172 0.29297z"/>
  <path d="m7.5 39.836c-0.23438 0-0.52734-0.058594-0.76172-0.29297-0.46875-0.41016-0.52734-1.1719-0.058593-1.6406l16.578-18.219c0.41016-0.46875 1.1719-0.52734 1.6406-0.11719 0.46875 0.46875 0.52734 1.2305 0.11719 1.6992l-16.637 18.219c-0.23438 0.23438-0.52734 0.35156-0.87891 0.35156z"/>
  <path d="m24.137 58.055c-0.35156 0-0.64453-0.11719-0.87891-0.35156l-16.578-18.219c-0.46875-0.46875-0.41016-1.2305 0.058593-1.6406 0.46875-0.46875 1.2305-0.41016 1.6406 0.058594l16.637 18.219c0.41016 0.46875 0.35156 1.2305-0.11719 1.6406-0.23438 0.23438-0.46875 0.29297-0.76172 0.29297z"/>
  <path d="m7.5 76.273c-0.23438 0-0.52734-0.058594-0.76172-0.29297-0.46875-0.41016-0.52734-1.1719-0.058593-1.6406l16.578-18.219c0.41016-0.46875 1.1719-0.52734 1.6406-0.058594 0.46875 0.41016 0.52734 1.1719 0.11719 1.6406l-16.637 18.219c-0.23438 0.23438-0.52734 0.35156-0.87891 0.35156z"/>
  <path d="m92.441 76.273h-16.578c-0.64453 0-1.1719-0.52734-1.1719-1.1719v-54.656c0-0.64453 0.52734-1.1719 1.1719-1.1719h16.578c0.64453 0 1.1719 0.52734 1.1719 1.1719v54.656c0 0.64453-0.52734 1.1719-1.1719 1.1719zm-15.406-2.3438h14.234v-52.312h-14.234z"/>
  <path d="m92.441 39.836c-0.29297 0-0.64453-0.11719-0.87891-0.35156l-16.578-18.219c-0.41016-0.46875-0.41016-1.2305 0.058594-1.6992 0.52734-0.41016 1.2305-0.35156 1.6992 0.11719l16.578 18.219c0.41016 0.46875 0.41016 1.2305-0.058593 1.6406-0.23438 0.23438-0.52734 0.29297-0.82031 0.29297z"/>
  <path d="m75.863 58.055c-0.29297 0-0.58594-0.058594-0.82031-0.29297-0.46875-0.41016-0.46875-1.1719-0.058594-1.6406l16.578-18.219c0.46875-0.46875 1.2305-0.52734 1.6992-0.058594 0.46875 0.41016 0.46875 1.1719 0.058593 1.6406l-16.578 18.219c-0.23438 0.23438-0.58594 0.35156-0.87891 0.35156z"/>
  <path d="m92.441 76.273c-0.29297 0-0.64453-0.11719-0.87891-0.35156l-16.578-18.219c-0.41016-0.46875-0.41016-1.2305 0.058594-1.6406 0.52734-0.46875 1.2305-0.41016 1.6992 0.058594l16.578 18.219c0.41016 0.46875 0.41016 1.2305-0.058593 1.6406-0.23438 0.23438-0.52734 0.29297-0.82031 0.29297z"/>
  <path d="m75.863 39.836c-0.29297 0-0.58594-0.058594-0.82031-0.29297-0.46875-0.41016-0.46875-1.1719-0.058594-1.6406l16.578-18.219c0.46875-0.46875 1.2305-0.52734 1.6992-0.11719 0.46875 0.46875 0.46875 1.2305 0.058593 1.6992l-16.578 18.219c-0.23438 0.23438-0.58594 0.35156-0.87891 0.35156z"/>
  <path d="m92.441 58.055c-0.29297 0-0.64453-0.11719-0.87891-0.35156l-16.578-18.219c-0.41016-0.46875-0.41016-1.2305 0.058594-1.6406 0.52734-0.46875 1.2305-0.41016 1.6992 0.058594l16.578 18.219c0.41016 0.46875 0.41016 1.2305-0.058593 1.6406-0.23438 0.23438-0.52734 0.29297-0.82031 0.29297z"/>
  <path d="m75.863 76.273c-0.29297 0-0.58594-0.058594-0.82031-0.29297-0.46875-0.41016-0.46875-1.1719-0.058594-1.6406l16.578-18.219c0.46875-0.46875 1.2305-0.52734 1.6992-0.058594 0.46875 0.41016 0.46875 1.1719 0.058593 1.6406l-16.578 18.219c-0.23438 0.23438-0.58594 0.35156-0.87891 0.35156z"/>
  <path d="m92.441 21.617h-84.945c-0.46875 0-0.9375-0.29297-1.1133-0.82031-0.11719-0.46875 0.058594-0.99609 0.46875-1.2891l16.051-11.715c0.23438-0.11719 0.46875-0.23438 0.70312-0.23438h52.605c0.23437 0 0.46875 0.11719 0.64453 0.23438l16.285 11.715c0.41016 0.29297 0.58594 0.82031 0.41016 1.2891-0.11719 0.52734-0.58594 0.82031-1.1133 0.82031zm-81.312-2.3438h77.68l-13.004-9.375h-51.785l-12.887 9.375z"/>
  <path d="m23.609 21.617c-0.64453 0-1.1719-0.52734-1.1719-1.1719v-11.715c0-0.64453 0.52734-1.1719 1.1719-1.1719s1.1719 0.52734 1.1719 1.1719v11.715c0 0.64453-0.52734 1.1719-1.1719 1.1719z"/>
  <path d="m34.152 21.617c-0.64453 0-1.1719-0.52734-1.1719-1.1719v-11.715c0-0.64453 0.52734-1.1719 1.1719-1.1719 0.64453 0 1.1719 0.52734 1.1719 1.1719v11.715c0 0.64453-0.52734 1.1719-1.1719 1.1719z"/>
  <path d="m44.641 21.617c-0.64453 0-1.1719-0.52734-1.1719-1.1719v-11.715c0-0.64453 0.52734-1.1719 1.1719-1.1719s1.1719 0.52734 1.1719 1.1719v11.715c0 0.64453-0.52734 1.1719-1.1719 1.1719z"/>
  <path d="m55.184 21.617c-0.64453 0-1.1719-0.52734-1.1719-1.1719v-11.715c0-0.64453 0.52734-1.1719 1.1719-1.1719 0.64453 0 1.1719 0.52734 1.1719 1.1719v11.715c0 0.64453-0.52734 1.1719-1.1719 1.1719z"/>
  <path d="m65.672 21.617c-0.64453 0-1.1719-0.52734-1.1719-1.1719v-11.715c0-0.64453 0.52734-1.1719 1.1719-1.1719s1.1719 0.52734 1.1719 1.1719v11.715c0 0.64453-0.52734 1.1719-1.1719 1.1719z"/>
  <path d="m76.215 21.617c-0.64453 0-1.1719-0.52734-1.1719-1.1719v-11.715c0-0.64453 0.52734-1.1719 1.1719-1.1719 0.64453 0 1.1719 0.52734 1.1719 1.1719v11.715c0 0.64453-0.52734 1.1719-1.1719 1.1719z"/>
  <path d="m98.828 86.059h-97.656c-0.64453 0-1.1719-0.52734-1.1719-1.1719v-9.7852c0-0.64453 0.52734-1.1719 1.1719-1.1719h33.801c0.64453 0 1.1719 0.52734 1.1719 1.1719v3.457c0 0.64453-0.52734 1.1719-1.1719 1.1719h-4.6875v3.9844h41.008v-3.9844h-4.6875c-0.64453 0-1.1719-0.52734-1.1719-1.1719v-3.457c0-0.64453 0.52734-1.1719 1.1719-1.1719h32.219c0.64453 0 1.1719 0.52734 1.1719 1.1719v9.7852c0 0.64453-0.52734 1.1719-1.1719 1.1719zm-25.191-2.3438h24.02v-7.4414h-29.879v1.1133h4.6875c0.64453 0 1.1719 0.52734 1.1719 1.1719zm-71.293 0h25.602v-5.1562c0-0.64453 0.52734-1.1719 1.1719-1.1719h4.6875v-1.1133h-31.457v7.4414z"/>
  <path d="m75.863 27.945h-51.727c-0.64453 0-1.1719-0.52734-1.1719-1.1719 0-0.70313 0.52734-1.1719 1.1719-1.1719h51.727c0.64453 0 1.1719 0.46875 1.1719 1.1719 0 0.64453-0.52734 1.1719-1.1719 1.1719z"/>
  <path d="m32.219 33.742c-0.64453 0-1.1719-0.52734-1.1719-1.1719v-5.8594c0-0.64453 0.52734-1.1719 1.1719-1.1719s1.1719 0.52734 1.1719 1.1719v5.8594c0 0.64453-0.52734 1.1719-1.1719 1.1719z"/>
  <path d="m35.5 38.254h-6.6211c-0.64453 0-1.1719-0.52734-1.1719-1.1719v-2.2852c0-1.875 1.5234-3.3984 3.457-3.3984h2.1094c1.875 0 3.3984 1.5234 3.3984 3.3984v2.2852c0 0.64453-0.52734 1.1719-1.1719 1.1719zm-5.4492-2.3438h4.2773v-1.1133c0-0.58594-0.46875-1.0547-1.0547-1.0547h-2.1094c-0.64453 0-1.1133 0.46875-1.1133 1.0547z"/>
  <path d="m49.973 33.742c-0.64453 0-1.1719-0.52734-1.1719-1.1719v-5.8594c0-0.64453 0.52734-1.1719 1.1719-1.1719 0.64453 0 1.1719 0.52734 1.1719 1.1719v5.8594c0 0.64453-0.52734 1.1719-1.1719 1.1719z"/>
  <path d="m53.309 38.254h-6.6211c-0.64453 0-1.1719-0.52734-1.1719-1.1719v-2.2852c0-1.875 1.5234-3.3984 3.3984-3.3984h2.168c1.875 0 3.3984 1.5234 3.3984 3.3984v2.2852c0 0.64453-0.52734 1.1719-1.1719 1.1719zm-5.4492-2.3438h4.2773v-1.1133c0-0.58594-0.46875-1.0547-1.0547-1.0547h-2.168c-0.58594 0-1.0547 0.46875-1.0547 1.0547z"/>
  <path d="m67.781 33.742c-0.64453 0-1.1719-0.52734-1.1719-1.1719v-5.8594c0-0.64453 0.52734-1.1719 1.1719-1.1719s1.1719 0.52734 1.1719 1.1719v5.8594c0 0.64453-0.52734 1.1719-1.1719 1.1719z"/>
  <path d="m71.059 38.254h-6.6211c-0.64453 0-1.1719-0.52734-1.1719-1.1719v-2.2852c0-1.875 1.5234-3.3984 3.457-3.3984h2.1094c1.875 0 3.3984 1.5234 3.3984 3.3984v2.2852c0 0.64453-0.52734 1.1719-1.1719 1.1719zm-5.4492-2.3438h4.2773v-1.1133c0-0.58594-0.46875-1.0547-1.0547-1.0547h-2.1094c-0.58594 0-1.1133 0.46875-1.1133 1.0547z"/>
  <path d="m66.609 79.73h-31.633c-0.64453 0-1.1719-0.52734-1.1719-1.1719v-6.3867c0-0.64453 0.52734-1.1719 1.1719-1.1719h31.633c0.64453 0 1.1719 0.52734 1.1719 1.1719v6.3867c0 0.64453-0.52734 1.1719-1.1719 1.1719zm-30.461-2.3438h29.293v-4.043h-29.293z"/>
  <path d="m72.465 86.059h-43.352c-0.64453 0-1.1719-0.52734-1.1719-1.1719v-6.3281c0-0.64453 0.52734-1.1719 1.1719-1.1719h43.352c0.64453 0 1.1719 0.52734 1.1719 1.1719v6.3281c0 0.64453-0.52734 1.1719-1.1719 1.1719zm-42.18-2.3438h41.008v-3.9844h-41.008z"/>
  <path d="m76.332 92.383h-51.141c-0.64453 0-1.1719-0.52734-1.1719-1.1719v-6.3281c0-0.64453 0.52734-1.1719 1.1719-1.1719h51.141c0.64453 0 1.1719 0.52734 1.1719 1.1719v6.3281c0 0.64453-0.52734 1.1719-1.1719 1.1719zm-49.973-2.3438h48.801v-3.9844h-48.801z"/>
 </g>
</svg>
