<?xml version="1.0" encoding="UTF-8"?>
<svg width="100pt" height="100pt" version="1.1" viewBox="0 0 100 100" xmlns="http://www.w3.org/2000/svg">
 <g>
  <path d="m90.398 58.602c0-4.3984-3.6016-7.8984-8-7.8984-1.3008 0-2.5 0.30078-3.6016 0.89844-1.3984-2.5-4-4-6.8984-4-1.3008 0-2.5 0.30078-3.6016 0.89844-1.3984-2.5-4-4-6.8984-4-0.89844 0-1.8008 0.10156-2.6016 0.39844v-4.6016h6c4.8008 0 8.6016-3.8984 8.6016-8.6992v-20.398c0-4.8008-3.8984-8.6992-8.6016-8.6992h-46.598c-4.8008 0-8.6016 3.8984-8.6016 8.6992v20.301c0 4.8008 3.8984 8.6992 8.6016 8.6992h24.602v23.801l-3.3008-3.3008c-2.6992-2.6992-7-3.1016-10.199-1-1.8984 1.3008-3.1016 3.3008-3.5 5.5-0.30078 2.1992 0.30078 4.5 1.8008 6.3008l14.398 17.398c4.5 5.5 11.199 8.6016 18.199 8.6016h9c5.6016 0 10.898-2.1992 14.898-6.1992s6.1992-9.3008 6.1992-14.898zm-21 33.5h-9c-5.5 0-10.602-2.3984-14.102-6.6016l-14.398-17.398c-0.5-0.60156-0.69922-1.3008-0.60156-2.1016 0.10156-0.80078 0.5-1.3984 1.1016-1.8008 0.39844-0.30078 1-0.5 1.5-0.5 0.69922 0 1.3984 0.30078 1.8984 0.80078l5.8008 5.8008c1.1016 1.1016 2.8008 1.3984 4.3008 0.80078 1.5-0.60156 2.3984-2 2.3984-3.6016l0.003906-37.398c0-1.3984 1.1992-2.6016 2.6016-2.6016 0.69922 0 1.3008 0.30078 1.8008 0.80078s0.80078 1.1016 0.80078 1.8008v25.699c0 1.5 1.1992 2.6992 2.6992 2.6992s2.6992-1.1992 2.6992-2.6992v-3.5c0-1.3984 1.1992-2.6016 2.6016-2.6016 1.3984 0 2.6016 1.1992 2.6016 2.6016l-0.003907 6.6992c0 1.5 1.1992 2.6992 2.6992 2.6992s2.6992-1.1992 2.6992-2.6992v-3.5c0-1.3984 1.1992-2.6016 2.6016-2.6016 1.3984 0 2.6016 1.1992 2.6016 2.6016v6.6992c0 1.5 1.1992 2.6992 2.6992 2.6992s2.6992-1.1992 2.6992-2.6992v-3.5c0-1.3984 1.1992-2.6016 2.6016-2.6016 1.3984 0 2.6016 1.1992 2.6016 2.6016v17.801c0 4.1992-1.6016 8.1016-4.6016 11.102-3.2031 2.8984-7.2031 4.5-11.305 4.5zm-51.199-57.902c-1.5 0-2.6016-1.1992-2.6016-2.6992l0.003906-20.301c0-1.5 1.1992-2.6992 2.6016-2.6992h46.5c1.5 0 2.6016 1.1992 2.6016 2.6992v20.301c0 1.5-1.1992 2.6992-2.6016 2.6992h-6v-4c0-2.1016-0.80078-4.1016-2.3008-5.6016s-3.5-2.3008-5.6016-2.3008c-4.3984 0-7.8984 3.6016-7.8984 8v4l-24.703 0.003906z"/>
  <path d="m35.5 15.5-5.5 5.8984-1.8984-2.1016c-1-1.1016-2.6992-1.1992-3.8008-0.10156-1.1016 1-1.1992 2.6992-0.10156 3.8008l3.8984 4.1992c0.5 0.60156 1.1992 0.89844 2 0.89844 0.80078 0 1.5-0.30078 2-0.89844l7.5-8c1-1.1016 1-2.8008-0.10156-3.8008-1.0977-0.99609-2.9961-0.99609-3.9961 0.10547z"/>
 </g>
</svg>
