<?xml version="1.0" encoding="UTF-8"?>
<svg width="512pt" height="512pt" version="1.1" viewBox="0 0 512 512" xmlns="http://www.w3.org/2000/svg">
 <path d="m405.33 277.33h-128c0-22.863 12.199-43.992 32-55.426 19.805-11.43 44.199-11.43 64 0 19.805 11.434 32 32.562 32 55.426zm42.668-170.67v120.23c0 45.363-20.621 88.27-56.047 116.61l-50.621 40.496-50.621-40.496c-6.3828-5.207-12.328-10.934-17.766-17.121v-0.003906h0.003907c-7.7969 32-25.961 60.523-51.66 81.125l-50.621 40.496-50.621-40.496c-35.426-28.34-56.047-71.246-56.047-116.61v-120.23h170.67v-64zm-192 85.336h-170.67v98.895c-0.089843 38.902 17.602 75.719 48.039 99.949l37.297 29.836 37.293-29.836c30.438-24.23 48.133-61.047 48.039-99.949zm170.67-64h-170.67v42.668h21.332v120.23c0 2.0547-0.26172 4.0664-0.34766 6.1094h0.003906c7.3867 11.309 16.52 21.379 27.051 29.84l37.293 29.836 37.293-29.836h0.003906c30.438-24.23 48.129-61.047 48.039-99.949zm-256 234.67c16.973 0 33.25-6.7422 45.254-18.746s18.746-28.281 18.746-45.254h-128c0 16.973 6.7422 33.25 18.742 45.254 12.004 12.004 28.281 18.746 45.258 18.746z"/>
</svg>
