<?xml version="1.0" encoding="UTF-8"?>
<svg width="100pt" height="100pt" version="1.1" viewBox="0 0 100 100" xmlns="http://www.w3.org/2000/svg">
 <g>
  <path d="m83.863 41.926c-0.58984 0.15234-0.9375 0.75781-0.78906 1.3477 1.332 4.9844 1.668 10.121 1.0156 15.289-0.98438 7.7891-4.1836 14.758-8.8477 20.379-0.5-2-0.4375-4.1211 0.28906-5.9375 0.65234-1.5898 1.7109-3 2.8477-4.4844l0.69531-0.92578c0.36328-0.48438 0.25781-1.1836-0.22656-1.5469s-1.1836-0.25781-1.5469 0.22656l-0.68359 0.91016c-1.168 1.5312-2.3789 3.1211-3.1367 5-1.0742 2.6836-1.0312 5.8789 0.046875 8.7109-7.5312 7.9531-18.211 12.758-29.711 12.547-0.0625-0.27344-0.12109-0.5625-0.16797-0.83203-0.33203-1.7422-0.66797-3.5469-1.6211-5.1367-1.4688-2.4688-4.2422-4.168-8.2578-5.0625-0.95312-0.21094-1.9258-0.36328-2.8945-0.53125-2.0312-0.33203-3.9531-0.65234-5.7422-1.3789-2.1523-0.89453-4.6836-2.8945-4.7734-5.6367-0.089844-2.5898 2.168-4.8047 4.4688-5.8477 1.9688-0.87891 4.1523-1.2109 6.4375-1.5625 0.72656-0.10547 1.4531-0.22656 2.1836-0.34766 2.6211-0.46875 6.3789-1.4258 8.7109-4.2266 1.1055-1.332 1.7734-2.8945 2.4102-4.4102 0.37891-0.91016 0.74219-1.7734 1.2109-2.5898 1.6953-3.0156 4.8633-5.1953 8.2891-5.6953 1.4688-0.22656 3-0.03125 4.1055 0.54688 0.54688 0.27344 1.2109 0.0625 1.4844-0.48438 0.27344-0.54688 0.0625-1.2109-0.48438-1.4844-1.5312-0.78906-3.5156-1.0625-5.4375-0.75781-4.0742 0.58984-7.8633 3.1953-9.8945 6.8047-0.51562 0.92578-0.92578 1.8789-1.3164 2.8164-0.60547 1.4258-1.168 2.7578-2.0625 3.8477-1.8789 2.2578-5.1211 3.0625-7.4102 3.4688-0.71094 0.12109-1.4258 0.22656-2.1367 0.33203-2.3477 0.34766-4.7734 0.71094-7.0312 1.7266-2.7578 1.2422-5.9102 4.0742-5.7734 7.9375 0.12109 3.7734 3.3789 6.4531 6.1367 7.6055 2.0156 0.81641 4.1523 1.1836 6.2109 1.5156 0.9375 0.15234 1.8633 0.30469 2.7891 0.5 3.3789 0.75781 5.6836 2.1055 6.832 4.0312 0.75781 1.2578 1.0469 2.7891 1.3477 4.4102 0.015624 0.10547 0.046874 0.21094 0.0625 0.31641-0.66797-0.046875-1.3477-0.12109-2.0312-0.21094-21.766-2.7266-37.266-22.742-34.508-44.559 0.24219-1.9258 0.63672-3.8164 1.1367-5.668 2.9375-0.13672 6.5625-1.7734 7.9375-2.8164 0.21094-0.16797 0.42578-0.33203 0.65234-0.5 1.168-0.92578 2.2734-1.7891 3.2891-1.5312 0.80469 0.21094 1.3047 1.0742 1.4688 1.4375 0.25781 0.5625 0.4375 1.168 0.60547 1.8164 0.089843 0.33203 0.18359 0.66797 0.28906 0.98438 1.2891 4.2109 4.5 7.6953 8.5742 9.3164 1 0.41016 2.1523 0.68359 3.2891 0.68359 1.4258 0 2.8047-0.4375 3.8047-1.5742 1.0625-1.1953 1.4258-3 1-4.9375-0.19531-0.92578-0.51562-1.7891-0.83203-2.6367-0.18359-0.48438-0.36328-0.95312-0.51562-1.4375-0.95312-3.1523-0.5625-6.4688-0.13672-10 0.36328-2.9844 0.72656-6.0898 0.21094-9.1367-0.42578-2.5312-1.5312-4.9531-3.1211-7.0625 1.5898-0.5 3.2266-0.89453 4.8633-1.1953-0.12109 1.6055 0.13672 3.2109 0.80469 4.6836 0.37891 0.81641 0.86328 1.6055 1.4375 2.3164 0.21094 0.27344 0.53125 0.41016 0.86328 0.41016 0.24219 0 0.5-0.074219 0.69531-0.24219 0.46875-0.37891 0.54688-1.0742 0.16797-1.5625-0.46875-0.57422-0.84766-1.1836-1.1367-1.832-0.57422-1.2734-0.75781-2.7266-0.5625-4.1211 3.2422-0.39453 6.5469-0.39453 9.8164 0.015625 2.0469 0.25781 4.0742 0.68359 6.0312 1.2422 0.58984 0.16797 1.1953-0.16797 1.3633-0.75781s-0.16797-1.1953-0.75781-1.3633c-2.0742-0.58984-4.2109-1.0312-6.3633-1.3047-7.4023-0.92578-14.934 0.12109-21.766 3.0312-0.5625 0.24219-0.81641 0.89453-0.58984 1.4531 0.18359 0.42578 0.58984 0.66797 1.0156 0.66797 0.15234 0 0.28906-0.03125 0.4375-0.089843 0.48438-0.21094 1-0.39453 1.5-0.57422 1.6211 1.9258 2.7422 4.2578 3.1523 6.6523 0.45312 2.7422 0.12109 5.5469-0.22656 8.5156-0.42578 3.5898-0.87891 7.3047 0.21094 10.91 0.16797 0.53125 0.36328 1.0469 0.5625 1.5625 0.30469 0.78906 0.57422 1.5469 0.74219 2.3164 0.13672 0.58984 0.34766 2.0625-0.5 3.0156-1.0312 1.1836-3.1211 0.91016-4.5898 0.30469-3.4258-1.3633-6.2109-4.3945-7.2891-7.9258-0.089843-0.30469-0.18359-0.60547-0.25781-0.91016-0.19531-0.71094-0.39453-1.4375-0.74219-2.1836-0.66797-1.3945-1.7109-2.3164-2.9258-2.6367-2.0898-0.53125-3.8164 0.83203-5.2109 1.9375-0.21094 0.16797-0.41016 0.31641-0.60547 0.46875-1.1523 0.86328-3.7578 1.9844-5.9102 2.2891 0.9375-2.7266 2.1523-5.332 3.6836-7.8164 0.31641-0.51562 0.15234-1.1953-0.36328-1.5156-0.53125-0.31641-1.1953-0.15234-1.5156 0.36328-3.1055 5.0898-5.0742 10.695-5.832 16.652-2.9258 23.031 13.438 44.152 36.469 47.074 1.7891 0.22656 3.5625 0.33203 5.3164 0.33203 20.863 0 39.031-15.574 41.727-36.816 0.69531-5.4531 0.33203-10.879-1.0742-16.137-0.18359-0.59375-0.79297-0.94141-1.3828-0.78906z"/>
  <path d="m60.438 71.816c1.4688 0 2.9375-0.78906 3.9375-1.7891 0.96875-0.96875 1.7266-2.1836 2.332-3.6953 0.22656-0.5625-0.046875-1.2109-0.62109-1.4375-0.5625-0.22656-1.2109 0.046875-1.4375 0.62109-0.5 1.2266-1.0898 2.1953-1.8477 2.9531-0.84766 0.84766-2.2266 1.4688-3.0898 0.95312-0.5-0.31641-0.83203-1.0469-0.84766-1.8477-0.015625-0.60547-0.54688-1.0742-1.1211-1.0898-0.60547 0.015625-1.1055 0.51562-1.0898 1.1211 0.03125 1.5469 0.74219 2.9688 1.9102 3.6953 0.57422 0.36719 1.2266 0.51562 1.875 0.51562z"/>
  <path d="m25.574 57.168c-1.1055 0.53125-2.3633 1-3.2578 0.57422-0.5-0.22656-0.91016-0.75781-1.3477-1.3164l-0.37891-0.46875c-1.3477-1.6523-2.6367-1.8789-3.4844-1.7891-1.0625 0.12109-2.0312 0.84766-2.5898 1.9375-0.4375 0.86328-0.57422 1.7891-0.68359 2.5469-0.13672 0.98438-0.34766 2.4688 0.34766 3.7734 0.80469 1.5 2.5312 2.3164 5.1211 2.4258 0.34766 0.015626 0.71094 0.015626 1.0742 0.015626 3.0469 0 6.1211-0.51563 8.9844-1.5156 2.1836-0.75781 3.4688-1.7734 3.832-3.0156 0.18359-0.60547 0.22656-1.5469-0.60547-2.6211-2.1484-2.8516-5.5547-1.2461-7.0117-0.54688zm3.0781 4.0742c-2.9375 1.0312-6.1211 1.5156-9.2266 1.3789-1.7578-0.074219-2.8477-0.5-3.2578-1.2578-0.31641-0.60547-0.24219-1.4531-0.10547-2.4102 0.089844-0.62109 0.18359-1.3164 0.45312-1.832 0.21094-0.42578 0.5625-0.71094 0.86328-0.74219h0.074219c0.41016 0 0.92578 0.34766 1.4375 0.98438l0.33203 0.42578c0.54688 0.69531 1.168 1.5 2.1367 1.9531 1.7266 0.81641 3.5742 0.18359 5.1523-0.57422 2.3633-1.1211 3.5469-1.1523 4.3477-0.10547 0.19531 0.25781 0.28906 0.48438 0.22656 0.63672-0.085938 0.34766-0.79688 0.98438-2.4336 1.543z"/>
  <path d="m95.984 32.969-2.2891-1.5742v-6.1367c0-0.83203-0.31641-1.6211-0.92578-2.2266-0.60547-0.58984-1.3789-0.91016-2.1953-0.91016-1.7266 0-3.1211 1.4102-3.1211 3.1367v1.8477l-1.0156-0.69531v-5.0469c0-0.83203-0.31641-1.6211-0.91016-2.2109-0.58984-0.58984-1.3789-0.92578-2.2266-0.92578-1.7266 0-3.1211 1.4102-3.1211 3.1367v0.75781l-3.832-2.6211v-6.9375c0-4.5469-3.6953-8.2422-8.2422-8.2422s-8.2266 3.6953-8.2266 8.2422v6.9375l-3.832 2.6211v-0.75781c0-1.7266-1.4102-3.1367-3.1211-3.1367-0.84766 0-1.6367 0.33203-2.2109 0.91016-0.58984 0.58984-0.92578 1.3789-0.92578 2.2109v5.0469l-1.0156 0.69531v-1.8477c0-1.7266-1.4102-3.1367-3.1211-3.1367-0.81641 0-1.6055 0.31641-2.2109 0.92578-0.58984 0.58984-0.91016 1.3789-0.91016 2.2109v6.1367l-2.2891 1.5742c-1 0.68359-1.5898 1.8164-1.5898 3.0312v4.7266c0 0.65234 0.28906 1.2578 0.80469 1.6523 0.37891 0.28906 0.81641 0.4375 1.2891 0.4375 0.16797 0 0.33203-0.015625 0.51562-0.0625l18.637-4.6211v2.1523c0 1.4258 0.19531 2.832 0.58984 4.2578l2.6055 7.7266-7.1523 4.9102c-0.69531 0.48438-1.1211 1.2734-1.1211 2.1367v2.7109c0 0.51562 0.22656 1 0.63672 1.3164 0.41016 0.31641 0.92578 0.4375 1.4375 0.31641l11.227-2.7891 11.242 2.7891c0.13672 0.03125 0.25781 0.046875 0.39453 0.046875 0.37891 0 0.74219-0.12109 1.0469-0.36328 0.41016-0.31641 0.63672-0.80469 0.63672-1.3164v-2.7109c0-0.84766-0.42578-1.6523-1.1211-2.1367l-7.1523-4.9102 2.6211-7.7891c0.37891-1.3789 0.57422-2.7891 0.57422-4.1953v-2.1523l18.637 4.6211c0.16797 0.046875 0.33203 0.0625 0.51562 0.0625 0.46875 0 0.91016-0.15234 1.2891-0.4375 0.51562-0.39453 0.80469-1 0.80469-1.6523v-4.7266c-0.035156-1.1953-0.625-2.3164-1.625-3.0156zm-6.332-7.6953c0-0.5 0.41016-0.92578 0.91016-0.92578 0.24219 0 0.46875 0.10547 0.65234 0.27344 0.18359 0.16797 0.27344 0.41016 0.27344 0.65234v4.6211l-1.832-1.2578zm-7.2734-3.9102c0-0.51562 0.39453-0.92578 0.91016-0.92578 0.24219 0 0.46875 0.089844 0.65234 0.27344 0.18359 0.16797 0.27344 0.41016 0.27344 0.65234v3.5312l-1.832-1.2578zm-30.379 0c0-0.24219 0.089844-0.46875 0.27344-0.65234 0.16797-0.16797 0.39453-0.25781 0.63672-0.25781 0.5 0 0.91016 0.41016 0.91016 0.92578v2.2734l-1.832 1.2578-0.003906-3.5469zm-7.2578 3.9102c0-0.24219 0.089843-0.46875 0.25781-0.63672 0.5625-0.5625 1.5625-0.10547 1.5625 0.63672v3.3633l-1.832 1.2578-0.003907-4.6211zm-3.8945 15.301v-4.5742c0-0.48438 0.24219-0.92578 0.63672-1.1953l18.395-12.621v13.684zm16.152 20.789v-2.0312c0-0.12109 0.0625-0.22656 0.16797-0.30469l6.6367-4.5625 0.48437 1.4258c0.12109 0.37891 0.31641 0.72656 0.53125 1.0469 0.015626 0.015625 0.03125 0.046875 0.03125 0.0625 0.089844 0.12109 0.19531 0.24219 0.30469 0.34766 0.03125 0.03125 0.0625 0.074219 0.10547 0.12109 0.089843 0.089844 0.19531 0.18359 0.30469 0.27344 0.046875 0.046874 0.10547 0.089843 0.15234 0.13672 0.10547 0.074219 0.21094 0.13672 0.31641 0.19531 0.074219 0.046875 0.13672 0.089843 0.21094 0.12109 0.10547 0.046876 0.21094 0.089844 0.30469 0.13672 0.089844 0.03125 0.16797 0.074219 0.25781 0.10547 0.10547 0.03125 0.19531 0.0625 0.30469 0.074219 0.10547 0.03125 0.19531 0.0625 0.30469 0.074219 0.089843 0.015624 0.19531 0.015624 0.30469 0.03125 0.089844 0.015624 0.18359 0.03125 0.27344 0.03125-0.0625 0-0.10547 0.015624-0.15234 0.03125zm22.211-2.0312v2.0312l-10.848-2.6836c-0.046875-0.015626-0.10547-0.015626-0.15234-0.03125 0.10547 0 0.19531-0.015626 0.28906-0.03125 0.089844-0.015626 0.18359-0.015626 0.28906-0.03125 0.12109-0.015626 0.22656-0.046876 0.33203-0.074219 0.089844-0.03125 0.18359-0.046875 0.25781-0.074219 0.10547-0.03125 0.21094-0.074219 0.30469-0.12109 0.089844-0.046875 0.18359-0.074218 0.25781-0.12109 0.089844-0.046874 0.16797-0.10547 0.24219-0.15234 0.089844-0.0625 0.18359-0.10547 0.27344-0.16797 0.0625-0.046875 0.12109-0.10547 0.18359-0.15234 0.10547-0.074218 0.19531-0.16797 0.28906-0.25781 0.03125-0.03125 0.0625-0.074219 0.089843-0.10547 0.10547-0.12109 0.21094-0.22656 0.30469-0.36328v-0.015625c0.24219-0.33203 0.4375-0.69531 0.57422-1.0898l0.48437-1.4258 6.6367 4.5625c0.13281 0.0625 0.19141 0.18359 0.19141 0.30469zm-5.0742-19.027c0 1.2109-0.16797 2.4375-0.46875 3.5625l-3.0625 9.0742-0.75781 2.2578c-0.25781 0.74219-0.9375 1.2422-1.7266 1.2422-0.30469 0-0.57422-0.089844-0.81641-0.22656-0.41016-0.21094-0.74219-0.5625-0.91016-1.0312l-0.95312-2.8164-2.8477-8.4688c-0.31641-1.1836-0.48438-2.3945-0.48438-3.6211l-0.003906-27.715c0-3.3164 2.6953-6.0156 6.0156-6.0156 3.3164 0 6.0312 2.6953 6.0312 6.0156v27.742zm21.227 0.26953-19.016-4.7109v-13.684l18.395 12.621c0.39453 0.27344 0.63672 0.72656 0.63672 1.1953v4.5781z"/>
  <path d="m69.773 14.453c-0.92578 0.92578-2.4258 0.92578-3.3477 0-0.4375-0.4375-1.1367-0.4375-1.5625 0-0.4375 0.4375-0.4375 1.1367 0 1.5625 0.89453 0.89453 2.0625 1.332 3.2422 1.332 1.168 0 2.3477-0.4375 3.2422-1.332 0.4375-0.4375 0.4375-1.1367 0-1.5625-0.4375-0.4375-1.1367-0.4375-1.5742 0z"/>
  <path d="m14.984 32c0.71094 0 1.3945-0.30469 1.8789-0.83203 3.3477-3.668 8.9844-10.484 8.9844-14.969 0-5.9688-4.8633-10.832-10.863-10.832-5.9688 0-10.832 4.8633-10.832 10.832 0 4.4844 5.6211 11.305 8.9688 14.969 0.46875 0.52734 1.1523 0.83203 1.8633 0.83203zm0-24.426c4.7734 0 8.6367 3.8633 8.6367 8.6211 0 2.6836-3.1367 7.7266-8.4102 13.469-0.074219 0.089844-0.18359 0.10547-0.24219 0.10547-0.0625 0-0.16797-0.015625-0.24219-0.10547-5.2266-5.7266-8.3633-10.77-8.3633-13.453 0-4.7578 3.8633-8.6367 8.6211-8.6367z"/>
  <path d="m19.953 15.363c0-2.7266-2.2266-4.9531-4.9531-4.9531s-4.9531 2.2266-4.9531 4.9531c0 2.7266 2.2266 4.9531 4.9531 4.9531s4.9531-2.2109 4.9531-4.9531zm-7.6953 0c0-1.5156 1.2266-2.7422 2.7422-2.7422s2.7422 1.2266 2.7422 2.7422-1.2266 2.7422-2.7422 2.7422-2.7422-1.2266-2.7422-2.7422z"/>
 </g>
</svg>
