<?xml version="1.0" encoding="UTF-8"?>
<svg width="512pt" height="512pt" version="1.1" viewBox="0 0 512 512" xmlns="http://www.w3.org/2000/svg">
 <path d="m359.94 92.242h-32.82l-10.266-29.559c-2.4023-6.8555-8.9141-11.484-16.285-11.484h-89.305c-7.3711 0-13.883 4.6289-16.285 11.484l-10.141 29.559h-32.773c-34.473 0-62.293 27.988-62.293 62.293v202.24c0 31.574 23.383 57.684 53.758 61.781 0.019531 0.003906 0.035156 0 0.054687 0.003906l-11.707 14.191c-6.0273 7.2969-4.9883 18.102 2.3086 24.129 7.2773 6 18.074 5.0156 24.137-2.3164l29.137-35.324h136.99l29.137 35.324c6.0547 7.3242 16.852 8.3242 24.137 2.3164 7.3008-6.0273 8.3359-16.832 2.3086-24.129l-11.699-14.184c0.042969-0.007812 0.089844-0.003906 0.13281-0.011718 30.379-4.0977 53.758-30.207 53.758-61.781l0.007813-202.23c0-34.305-27.82-62.297-62.293-62.297zm-182.61 277.34c-11.945 0-21.504-9.5586-21.504-21.332 0-11.945 9.5586-21.504 21.504-21.504 11.777 0 21.332 9.5586 21.332 21.504 0 11.773-9.5586 21.332-21.332 21.332zm157.52 0c-11.777 0-21.504-9.5586-21.504-21.332 0-11.945 9.7266-21.504 21.504-21.504 11.945 0 21.332 9.5586 21.332 21.504 0 11.773-9.3867 21.332-21.332 21.332zm36.012-106.67c0 11.094-9.043 20.137-20.309 20.137h-189.1c-11.266 0-20.309-9.043-20.309-20.137v-98.988c0-11.266 9.043-20.309 20.309-20.309h189.1c11.266 0 20.309 9.043 20.309 20.309z"/>
</svg>
