<?xml version="1.0" encoding="UTF-8"?>
<svg width="100pt" height="100pt" version="1.1" viewBox="0 0 100 100" xmlns="http://www.w3.org/2000/svg">
 <g>
  <path d="m33.898 49.102h-5.8008l-6.3984-4.1016c-0.5-0.30078-1.1016-0.60156-1.6992-0.69922l-5.3008-1.1992c-1.8984-0.39844-3.8008 0.10156-5.1992 1.5-0.89844 0.80078-1.3984 2-1.6992 3.1992l-3 14.801c-0.30078 1.0977-0.19922 2.2969 0.19922 3.3984 0.89844 2.1992 3 3.5 5.1992 3.5h14v16.801c0 2.1016 1.5 4 3.6016 4.1992 2.3984 0.19922 4.5-1.6016 4.5-4v-19.301c0-3.1992-2.6016-5.8008-5.8008-5.8008h-7.1016l1.8008-8.3008 3.3008 2.1016c1 0.69922 2.1992 1 3.3984 1h6.1992c2.1016 0 3.8008-1.8984 3.5-4.1016-0.29688-1.7969-1.8984-2.9961-3.6992-2.9961z"/>
  <path d="m18.918 26.117c4.2812 0.46484 7.375 4.3164 6.9102 8.5977s-4.3164 7.375-8.5977 6.9102-7.375-4.3164-6.9102-8.5977c0.46484-4.2812 4.3164-7.375 8.5977-6.9102"/>
  <path d="m18.602 73.398h-14.703c-0.80078 0-1.3984 0.60156-1.3984 1.3984v14.102c0 0.80078 0.60156 1.3984 1.3984 1.3984h14.699c0.80078 0 1.3984-0.60156 1.3984-1.3984l0.003906-14.098c0-0.80078-0.60156-1.4023-1.3984-1.4023z"/>
  <path d="m95 66c0.5-1.1016 0.5-2.3008 0.30078-3.3984l-3.1016-14.801c-0.30078-1.1992-0.80078-2.3984-1.6992-3.1992-1.3984-1.3008-3.3008-1.8984-5.1992-1.5l-5.3008 1.1992c-0.60156 0.10156-1.1992 0.39844-1.6992 0.69922l-6.3984 4.1016h-5.8008c-1.6992 0-3.3984 1.1992-3.6992 2.8984-0.39844 2.1992 1.3008 4.1016 3.5 4.1016h6.1992c1.1992 0 2.3984-0.30078 3.3984-1l3.3008-2.1016 1.8008 8.3008h-7.1016c-3.1992 0-5.8008 2.6016-5.8008 5.8008v19.301c0 2.3984 2 4.3008 4.5 4 2.1016-0.19922 3.6016-2.1016 3.6016-4.1992v-16.703h14c2.1992 0 4.1992-1.3984 5.1992-3.5z"/>
  <path d="m89.645 32.953c0.46875 4.2852-2.625 8.1328-6.9102 8.5977-4.2812 0.46875-8.1289-2.625-8.5977-6.9102-0.46484-4.2812 2.6289-8.1289 6.9102-8.5977 4.2852-0.46484 8.1328 2.6289 8.5977 6.9102"/>
  <path d="m96.102 73.398h-14.703c-0.80078 0-1.3984 0.60156-1.3984 1.3984v14.102c0 0.80078 0.60156 1.3984 1.3984 1.3984h14.699c0.80078 0 1.3984-0.60156 1.3984-1.3984l0.003906-14.098c0-0.80078-0.60156-1.4023-1.3984-1.4023z"/>
  <path d="m43 24.301h14c1 0 1.6992-1.1016 1.1992-2l-7-12.102c-0.5-0.89844-1.8008-0.89844-2.3008 0l-7 12.102c-0.59766 0.89844 0.10156 2 1.1016 2z"/>
  <path d="m45.801 29.199h-12c-0.69922 0-1.3008 0.60156-1.3008 1.3008v12c0 0.69922 0.60156 1.3008 1.3008 1.3008h12c0.69922 0 1.3008-0.60156 1.3008-1.3008v-12c0-0.69922-0.60156-1.3008-1.3008-1.3008z"/>
  <path d="m65.5 42.898 2.6016-8.1016c0.19922-0.5 0-1.1992-0.5-1.5l-6.8984-5c-0.5-0.30078-1.1016-0.30078-1.6016 0l-6.8984 5c-0.5 0.30078-0.69922 0.89844-0.5 1.5l2.6016 8.1016c0.19922 0.5 0.69922 0.89844 1.3008 0.89844h8.5c0.69531 0.003906 1.1953-0.29688 1.3945-0.89844z"/>
 </g>
</svg>
